{
	"asset":{
		"version":"2.0",
		"generator":"Created using the official Cinema 4D glTF Exporter 1.000x284978"
	},
	"scenes":[{
		"nodes":[0,
		2]
	}],
	"nodes":[{
		"name":"Object001",
		"children":[1]
	},
	{
		"name":"Object001",
		"mesh":0,
		"skin":0
	},
	{
		"name":"mixamorig:Hips",
		"translation":[-0.005084565840661526,
		0.09649527817964554,
		-0.006785987410694361],
		"rotation":[0.135780468583107,
		-0.16025616228580476,
		0.12717661261558534,
		0.9693852663040161],
		"scale":[1.0,
		1.0,
		1.0],
		"children":[3,
		57,
		62]
	},
	{
		"name":"mixamorig:Spine",
		"translation":[0.0,
		0.012615785002708435,
		0.001770921517163515],
		"rotation":[-0.0032820941414684059,
		-0.0014928433811292053,
		-0.06757079809904099,
		-0.9977079629898071],
		"scale":[1.0,
		1.0,
		1.0],
		"children":[4]
	},
	{
		"name":"mixamorig:Spine1",
		"translation":[0.0,
		0.01486270222812891,
		2.3893220735260458e-11],
		"rotation":[-0.0400671549141407,
		-0.0017313479911535979,
		0.011040747165679932,
		0.9991344809532166],
		"scale":[1.0,
		1.0,
		1.0],
		"children":[5]
	},
	{
		"name":"mixamorig:Spine2",
		"translation":[-8.673617379884036e-19,
		0.016985975205898286,
		-8.65993388110553e-11],
		"rotation":[-0.04011205956339836,
		-0.0011458075605332852,
		0.011020596139132977,
		0.9991337656974793],
		"scale":[1.0,
		1.0,
		1.0],
		"children":[6,
		9,
		33]
	},
	{
		"name":"mixamorig:Neck",
		"translation":[-8.673617379884036e-19,
		0.019109202548861505,
		1.5407466413819293e-9],
		"rotation":[0.17056810855865479,
		-0.008605985902249813,
		-0.006344181019812822,
		-0.9852879047393799],
		"scale":[1.0,
		1.0,
		1.0],
		"children":[7]
	},
	{
		"name":"mixamorig:Head",
		"translation":[0.0,
		0.008301705121994019,
		-0.003485111054033041],
		"rotation":[-0.021715577691793443,
		0.017329595983028413,
		0.1124458909034729,
		-0.9932693839073181],
		"scale":[1.0,
		1.0,
		1.0],
		"children":[8]
	},
	{
		"name":"mixamorig:HeadTop_End",
		"translation":[1.734723475976807e-18,
		0.02387470006942749,
		-0.01002276036888361],
		"rotation":[0.0,
		0.0,
		0.0,
		-1.0],
		"scale":[1.0,
		1.0,
		1.0]
	},
	{
		"name":"mixamorig:LeftShoulder",
		"translation":[0.0071279313415288929,
		0.015722917392849923,
		0.0004950950387865305],
		"rotation":[-0.5982689261436462,
		-0.4035101532936096,
		-0.5353094339370728,
		0.43897339701652529],
		"scale":[1.0,
		1.0,
		1.0],
		"children":[10]
	},
	{
		"name":"mixamorig:LeftArm",
		"translation":[-4.055984020867598e-11,
		0.01586170680820942,
		2.670959564632369e-10],
		"rotation":[-0.2039431929588318,
		-0.09211990982294083,
		0.1699417233467102,
		0.9597087502479553],
		"scale":[1.0,
		1.0,
		1.0],
		"children":[11]
	},
	{
		"name":"mixamorig:LeftForeArm",
		"translation":[5.7735760616850484e-12,
		0.02186681516468525,
		-5.995965945970738e-10],
		"rotation":[-0.019123828038573266,
		-0.003699141088873148,
		-0.7958951592445374,
		-0.6051210761070252],
		"scale":[1.0,
		1.0,
		1.0],
		"children":[12]
	},
	{
		"name":"mixamorig:LeftHand",
		"translation":[2.760685569036525e-10,
		0.026690036058425905,
		2.6473032099794127e-10],
		"rotation":[0.06365671008825302,
		0.19828537106513978,
		0.3006202280521393,
		-0.9307299256324768],
		"scale":[1.0,
		1.0,
		1.0],
		"children":[13,
		17,
		21,
		25,
		29]
	},
	{
		"name":"mixamorig:LeftHandThumb1",
		"translation":[-0.004235927946865559,
		0.007551456801593304,
		-0.002359054982662201],
		"rotation":[-0.22935377061367036,
		-0.2977314889431,
		0.03718607500195503,
		0.9259427785873413],
		"scale":[1.0,
		1.0,
		1.0],
		"children":[14]
	},
	{
		"name":"mixamorig:LeftHandThumb2",
		"translation":[-0.0007273320807144046,
		0.007142257411032915,
		8.887945934787922e-11],
		"rotation":[-0.15229745209217072,
		0.12320028990507126,
		-0.45172160863876345,
		0.8703877329826355],
		"scale":[1.0,
		1.0,
		1.0],
		"children":[15]
	},
	{
		"name":"mixamorig:LeftHandThumb3",
		"translation":[0.00018106744391843677,
		0.004667101427912712,
		1.2105323687894299e-10],
		"rotation":[-0.04363352805376053,
		0.09383254498243332,
		-0.16789022088050843,
		0.9803593158721924],
		"scale":[1.0,
		1.0,
		1.0],
		"children":[16]
	},
	{
		"name":"mixamorig:LeftHandThumb4",
		"translation":[0.0005462650442495942,
		0.0030946466140449049,
		1.2186848752371305e-11],
		"rotation":[2.0898278663139537e-8,
		0.0,
		0.0,
		-1.0],
		"scale":[1.0,
		1.0,
		1.0]
	},
	{
		"name":"mixamorig:LeftHandIndex1",
		"translation":[-0.005279685370624065,
		0.019741827622056009,
		0.00014741513587068766],
		"rotation":[-0.7374864220619202,
		-0.02252165786921978,
		-0.0778280571103096,
		0.6704844236373901],
		"scale":[1.0,
		1.0,
		1.0],
		"children":[18]
	},
	{
		"name":"mixamorig:LeftHandIndex2",
		"translation":[-0.0000031184390536509456,
		0.0033073709346354009,
		-4.790929805653654e-11],
		"rotation":[-0.7523484230041504,
		-1.685082509084168e-7,
		-0.11040524393320084,
		0.6494479179382324],
		"scale":[1.0,
		1.0,
		1.0],
		"children":[19]
	},
	{
		"name":"mixamorig:LeftHandIndex3",
		"translation":[-0.000005666971901518991,
		0.0034674762282520534,
		4.0313585802920215e-12],
		"rotation":[-0.41422349214553835,
		1.980259511924487e-8,
		-0.06078639253973961,
		0.9081431031227112],
		"scale":[1.0,
		1.0,
		1.0],
		"children":[20]
	},
	{
		"name":"mixamorig:LeftHandIndex4",
		"translation":[0.000008785457794147078,
		0.00255684950388968,
		-2.1324678134426733e-12],
		"rotation":[-1.4341637211146008e-8,
		0.0,
		0.0,
		-1.0],
		"scale":[1.0,
		1.0,
		1.0]
	},
	{
		"name":"mixamorig:LeftHandMiddle1",
		"translation":[-0.0015718970680609346,
		0.02039572410285473,
		0.0006715792114846408],
		"rotation":[-0.7374341487884522,
		-0.022866148501634599,
		-0.07742774486541748,
		0.6705766320228577],
		"scale":[1.0,
		1.0,
		1.0],
		"children":[22]
	},
	{
		"name":"mixamorig:LeftHandMiddle2",
		"translation":[-5.881979063815379e-7,
		0.0035790158435702326,
		7.879162600143985e-11],
		"rotation":[-0.7525525689125061,
		-6.941916552705152e-8,
		-0.10963670909404755,
		0.6493415236473084],
		"scale":[1.0,
		1.0,
		1.0],
		"children":[23]
	},
	{
		"name":"mixamorig:LeftHandMiddle3",
		"translation":[-0.0000034904071526398185,
		0.00369215733371675,
		1.9323015409966616e-11],
		"rotation":[-0.4142863154411316,
		-2.0766510289149666e-8,
		-0.06035584956407547,
		0.908143162727356],
		"scale":[1.0,
		1.0,
		1.0],
		"children":[24]
	},
	{
		"name":"mixamorig:LeftHandMiddle4",
		"translation":[0.000004078608981217258,
		0.0028773543890565635,
		7.974601534677106e-11],
		"rotation":[-2.2936351484759144e-8,
		0.0,
		0.0,
		-1.0],
		"scale":[1.0,
		1.0,
		1.0]
	},
	{
		"name":"mixamorig:LeftHandRing1",
		"translation":[0.001935306703671813,
		0.020244620740413667,
		0.0001620006951270625],
		"rotation":[-0.7374054789543152,
		-0.021832123398780824,
		-0.0785866305232048,
		0.6705077290534973],
		"scale":[1.0,
		1.0,
		1.0],
		"children":[26]
	},
	{
		"name":"mixamorig:LeftHandRing2",
		"translation":[-0.000011879103112732992,
		0.003430891316384077,
		-3.039889173717114e-11],
		"rotation":[-0.7521198391914368,
		-2.1345897494029487e-7,
		-0.11195283383131027,
		0.6494477391242981],
		"scale":[1.0,
		1.0,
		1.0],
		"children":[27]
	},
	{
		"name":"mixamorig:LeftHandRing3",
		"translation":[0.000005282205620460445,
		0.003176871221512556,
		8.192062306289216e-11],
		"rotation":[-0.41409721970558169,
		4.8301522781457609e-8,
		-0.06163845211267471,
		0.9081432819366455],
		"scale":[1.0,
		1.0,
		1.0],
		"children":[28]
	},
	{
		"name":"mixamorig:LeftHandRing4",
		"translation":[0.000006596903858735459,
		0.0025377871934324505,
		2.2897399254429019e-11],
		"rotation":[-3.2165292651598067e-10,
		0.0,
		0.0,
		-1.0],
		"scale":[1.0,
		1.0,
		1.0]
	},
	{
		"name":"mixamorig:LeftHandPinky1",
		"translation":[0.0049162753857672218,
		0.017983902245759965,
		0.0003813825605902821],
		"rotation":[-0.7296555042266846,
		-0.03091559372842312,
		-0.12088428437709809,
		0.6723347902297974],
		"scale":[1.0,
		1.0,
		1.0],
		"children":[30]
	},
	{
		"name":"mixamorig:LeftHandPinky2",
		"translation":[0.000009255810255126562,
		0.0033164978958666326,
		6.683896491832542e-11],
		"rotation":[-0.7495798468589783,
		-0.0271099004894495,
		-0.12778015434741975,
		0.6488969922065735],
		"scale":[1.0,
		1.0,
		1.0],
		"children":[31]
	},
	{
		"name":"mixamorig:LeftHandPinky3",
		"translation":[0.000004974984676664462,
		0.0029420165810734035,
		-2.0592277882869326e-11],
		"rotation":[-0.4103728234767914,
		-1.1190311788311647e-8,
		-0.08288784325122833,
		0.9081430435180664],
		"scale":[1.0,
		1.0,
		1.0],
		"children":[32]
	},
	{
		"name":"mixamorig:LeftHandPinky4",
		"translation":[-0.000014230729902919848,
		0.0023229955695569517,
		1.0801868427501305e-10],
		"rotation":[1.0963077556880308e-8,
		0.0,
		0.0,
		-1.0],
		"scale":[1.0,
		1.0,
		1.0]
	},
	{
		"name":"mixamorig:RightShoulder",
		"translation":[-0.0071279313415288929,
		0.015717480331659318,
		0.00045636005233973265],
		"rotation":[-0.5559437274932861,
		0.43852365016937258,
		0.545507550239563,
		0.4483805298805237],
		"scale":[1.0,
		1.0,
		1.0],
		"children":[34]
	},
	{
		"name":"mixamorig:RightArm",
		"translation":[4.213756427118298e-11,
		0.01586170680820942,
		2.6684973675195069e-10],
		"rotation":[-0.21887671947479249,
		0.15161940455436707,
		-0.5808135867118836,
		0.7692594528198242],
		"scale":[1.0,
		1.0,
		1.0],
		"children":[35]
	},
	{
		"name":"mixamorig:RightForeArm",
		"translation":[-3.695203865117236e-12,
		0.02186354249715805,
		-1.321349557548146e-10],
		"rotation":[-0.007624319288879633,
		0.004321524407714605,
		0.5728344917297363,
		-0.8196241855621338],
		"scale":[1.0,
		1.0,
		1.0],
		"children":[36]
	},
	{
		"name":"mixamorig:RightHand",
		"translation":[1.5756412841128054e-10,
		0.026615863665938379,
		8.086153413522368e-10],
		"rotation":[-0.00836474634706974,
		-0.305992066860199,
		-0.1465812772512436,
		-0.9406449198722839],
		"scale":[1.0,
		1.0,
		1.0],
		"children":[37,
		41,
		45,
		49,
		53]
	},
	{
		"name":"mixamorig:RightHandThumb1",
		"translation":[0.004215624649077654,
		0.0074172066524624828,
		-0.002295274054631591],
		"rotation":[-0.2886451780796051,
		0.39300909638404848,
		-0.15262183547019959,
		0.8596129417419434],
		"scale":[1.0,
		1.0,
		1.0],
		"children":[38]
	},
	{
		"name":"mixamorig:RightHandThumb2",
		"translation":[0.0006874763057567179,
		0.00703437440097332,
		-1.707057967204051e-10],
		"rotation":[0.24756713211536408,
		-0.24397152662277223,
		-0.35597413778305056,
		-0.8674507737159729],
		"scale":[1.0,
		1.0,
		1.0],
		"children":[39]
	},
	{
		"name":"mixamorig:RightHandThumb3",
		"translation":[-0.00022772059310227633,
		0.004803568124771118,
		-1.276054956145245e-10],
		"rotation":[0.1321696639060974,
		-0.08739530295133591,
		-0.1594645231962204,
		-0.9744045734405518],
		"scale":[1.0,
		1.0,
		1.0],
		"children":[40]
	},
	{
		"name":"mixamorig:RightHandThumb4",
		"translation":[-0.0004597553052008152,
		0.003279072232544422,
		1.6954183890138808e-10],
		"rotation":[-6.0310747507230648e-9,
		7.385936529603908e-25,
		1.2246468525851679e-16,
		1.0],
		"scale":[1.0,
		1.0,
		1.0]
	},
	{
		"name":"mixamorig:RightHandIndex1",
		"translation":[0.00528552383184433,
		0.019876915961503984,
		-0.000014477911463472993],
		"rotation":[-0.7631597518920898,
		0.027764953672885896,
		0.07248733192682266,
		0.6415308713912964],
		"scale":[1.0,
		1.0,
		1.0],
		"children":[42]
	},
	{
		"name":"mixamorig:RightHandIndex2",
		"translation":[0.00000115231432573637,
		0.0035823783837258817,
		-1.499553259343145e-11],
		"rotation":[-0.7753670811653137,
		6.964418020061203e-8,
		0.10621605813503266,
		0.6225143074989319],
		"scale":[1.0,
		1.0,
		1.0],
		"children":[43]
	},
	{
		"name":"mixamorig:RightHandIndex3",
		"translation":[0.000003015606353073963,
		0.0032513083424419166,
		7.89385778965368e-11],
		"rotation":[-0.4304255545139313,
		-2.316166458626867e-8,
		0.05896323174238205,
		0.900698184967041],
		"scale":[1.0,
		1.0,
		1.0],
		"children":[44]
	},
	{
		"name":"mixamorig:RightHandIndex4",
		"translation":[-0.000004167825863987673,
		0.0023503582924604418,
		5.608660758049666e-11],
		"rotation":[2.4706339196711726e-9,
		0.0,
		0.0,
		-1.0],
		"scale":[1.0,
		1.0,
		1.0]
	},
	{
		"name":"mixamorig:RightHandMiddle1",
		"translation":[0.0017843267414718867,
		0.020297441631555558,
		0.0007840719190426171],
		"rotation":[-0.7630063891410828,
		0.026424691081047059,
		0.0740814059972763,
		0.6415877938270569],
		"scale":[1.0,
		1.0,
		1.0],
		"children":[46]
	},
	{
		"name":"mixamorig:RightHandMiddle2",
		"translation":[6.448075140497167e-8,
		0.00388991623185575,
		-9.783066023949516e-11],
		"rotation":[-0.7749162912368774,
		-4.182590629397964e-8,
		0.10945488512516022,
		0.622514545917511],
		"scale":[1.0,
		1.0,
		1.0],
		"children":[47]
	},
	{
		"name":"mixamorig:RightHandMiddle3",
		"translation":[-4.1623835045356829e-7,
		0.003670294536277652,
		1.5079132387185724e-11],
		"rotation":[-0.43017536401748659,
		1.0479588752332348e-8,
		0.060761045664548877,
		0.900698184967041],
		"scale":[1.0,
		1.0,
		1.0],
		"children":[48]
	},
	{
		"name":"mixamorig:RightHandMiddle4",
		"translation":[3.519305948884721e-7,
		0.003045164281502366,
		1.3527959308312632e-10],
		"rotation":[-1.1109491104832614e-9,
		0.0,
		0.0,
		-1.0],
		"scale":[1.0,
		1.0,
		1.0]
	},
	{
		"name":"mixamorig:RightHandRing1",
		"translation":[-0.0019123518140986562,
		0.01929001323878765,
		0.0006076667341403663],
		"rotation":[-0.7625353932380676,
		0.022470748052001,
		0.07878174632787705,
		0.6417384743690491],
		"scale":[1.0,
		1.0,
		1.0],
		"children":[50]
	},
	{
		"name":"mixamorig:RightHandRing2",
		"translation":[-0.000004083454314240953,
		0.003659480484202504,
		5.727346374939657e-11],
		"rotation":[-0.7735087275505066,
		-4.6202689674146316e-8,
		0.11899705231189728,
		0.6225142478942871],
		"scale":[1.0,
		1.0,
		1.0],
		"children":[51]
	},
	{
		"name":"mixamorig:RightHandRing3",
		"translation":[-0.000011411346349632368,
		0.0035678998101502659,
		-1.1942771771522588e-10],
		"rotation":[-0.42939403653144839,
		1.0234587222157643e-7,
		0.06605815887451172,
		0.9006981253623962],
		"scale":[1.0,
		1.0,
		1.0],
		"children":[52]
	},
	{
		"name":"mixamorig:RightHandRing4",
		"translation":[0.00001549477565276902,
		0.0028737650718539955,
		-1.2733882004400955e-10],
		"rotation":[-7.796439049911896e-10,
		0.0,
		0.0,
		-1.0],
		"scale":[1.0,
		1.0,
		1.0]
	},
	{
		"name":"mixamorig:RightHandPinky1",
		"translation":[-0.0051574972458183769,
		0.018433421850204469,
		0.0000016211740785365692],
		"rotation":[-0.7616872191429138,
		0.015884364023804666,
		0.08660230785608292,
		0.6419348120689392],
		"scale":[1.0,
		1.0,
		1.0],
		"children":[54]
	},
	{
		"name":"mixamorig:RightHandPinky2",
		"translation":[-0.000005760175099567277,
		0.0031147755216807129,
		1.1457353121802072e-10],
		"rotation":[-0.7709035873413086,
		6.852835809922908e-8,
		0.1348462551832199,
		0.6225143671035767],
		"scale":[1.0,
		1.0,
		1.0],
		"children":[55]
	},
	{
		"name":"mixamorig:RightHandPinky3",
		"translation":[-0.00003096781074418686,
		0.0028032639529556038,
		-2.1309731756957718e-11],
		"rotation":[-0.4279479682445526,
		1.127612208051687e-7,
		0.07485641539096832,
		0.9006980657577515],
		"scale":[1.0,
		1.0,
		1.0],
		"children":[56]
	},
	{
		"name":"mixamorig:RightHandPinky4",
		"translation":[0.000036727982660522687,
		0.0018425056478008628,
		-4.2646441933413828e-11],
		"rotation":[2.4729210679197423e-8,
		0.0,
		0.0,
		-1.0],
		"scale":[1.0,
		1.0,
		1.0]
	},
	{
		"name":"mixamorig:LeftUpLeg",
		"translation":[0.010837603360414505,
		-0.007000267505645752,
		0.0009834794327616692],
		"rotation":[-0.12148226797580719,
		-0.04201696068048477,
		0.9862797260284424,
		-0.10358032584190369],
		"scale":[1.0,
		1.0,
		1.0],
		"children":[58]
	},
	{
		"name":"mixamorig:LeftLeg",
		"translation":[1.254477771661655e-10,
		0.04783671349287033,
		-1.7304142840846027e-10],
		"rotation":[-0.2653479278087616,
		0.054914526641368869,
		0.03844098374247551,
		-0.9618197083473206],
		"scale":[1.0,
		1.0,
		1.0],
		"children":[59]
	},
	{
		"name":"mixamorig:LeftFoot",
		"translation":[-3.728319042384243e-11,
		0.034916430711746219,
		1.2414555494721925e-10],
		"rotation":[-0.33907055854797366,
		0.04729027673602104,
		-0.08447965979576111,
		0.9357659816741943],
		"scale":[1.0,
		1.0,
		1.0],
		"children":[60]
	},
	{
		"name":"mixamorig:LeftToeBase",
		"translation":[-4.1097916736454468e-11,
		0.019142411649227144,
		4.967856126469883e-10],
		"rotation":[-0.480233371257782,
		0.024489421397447587,
		0.007978744804859162,
		0.8767625093460083],
		"scale":[1.0,
		1.0,
		1.0],
		"children":[61]
	},
	{
		"name":"mixamorig:LeftToe_End",
		"translation":[3.03691585767929e-11,
		0.007989155128598214,
		-6.4706647158463415e-12],
		"rotation":[-4.796549823993246e-10,
		0.0,
		0.0,
		-1.0],
		"scale":[1.0,
		1.0,
		1.0]
	},
	{
		"name":"mixamorig:RightUpLeg",
		"translation":[-0.010837603360414505,
		-0.007000267505645752,
		0.0007266215980052948],
		"rotation":[-0.1282915472984314,
		-0.028299594298005105,
		-0.9732578992843628,
		-0.18843971192836762],
		"scale":[1.0,
		1.0,
		1.0],
		"children":[63]
	},
	{
		"name":"mixamorig:RightLeg",
		"translation":[-2.4568992673668079e-11,
		0.04785608872771263,
		-6.944628899718808e-11],
		"rotation":[0.4331216812133789,
		0.046156544238328937,
		-0.03754705935716629,
		0.899369478225708],
		"scale":[1.0,
		1.0,
		1.0],
		"children":[64]
	},
	{
		"name":"mixamorig:RightFoot",
		"translation":[-2.292219539179463e-11,
		0.03491368889808655,
		-5.0879127300174079e-11],
		"rotation":[-0.6956201195716858,
		-0.059246208518743518,
		0.044699352234601977,
		0.7145659923553467],
		"scale":[1.0,
		1.0,
		1.0],
		"children":[65]
	},
	{
		"name":"mixamorig:RightToeBase",
		"translation":[-4.323207764000969e-11,
		0.019180843606591226,
		-4.3862338761080368e-10],
		"rotation":[-0.3260933458805084,
		-0.015059148892760277,
		-0.005195340141654015,
		0.9452033638954163],
		"scale":[1.0,
		1.0,
		1.0],
		"children":[66]
	},
	{
		"name":"mixamorig:RightToe_End",
		"translation":[4.476485154780718e-12,
		0.00801798701286316,
		-1.0508869816017175e-11],
		"rotation":[-6.229212701214237e-10,
		0.0,
		0.0,
		-1.0],
		"scale":[1.0,
		1.0,
		1.0]
	}],
	"meshes":[{
		"name":"Object001",
		"primitives":[{
			"attributes":{
				"POSITION":1,
				"JOINTS_0":2,
				"WEIGHTS_0":3
			},
			"indices":0,
			"material":0
		}]
	}],
	"skins":[{
		"inverseBindMatrices":4,
		"joints":[7,
		6,
		33,
		34,
		35,
		5,
		3,
		2,
		4,
		62,
		63,
		64,
		65,
		57,
		58,
		59,
		60,
		36,
		37,
		38,
		39,
		41,
		45,
		42,
		49,
		53,
		50,
		46,
		51,
		54,
		55,
		43,
		47,
		17,
		18,
		19,
		12,
		21,
		25,
		13,
		14,
		15,
		11,
		29,
		30,
		22,
		26,
		31,
		9,
		10,
		23,
		27]
	}],
	"images":[{
		"uri":"data:image/jpeg;base64,"
	}],
	"accessors":[{
		"bufferView":0,
		"type":"SCALAR",
		"componentType":5123,
		"count":38787,
		"byteOffset":0,
		"min":[0],
		"max":[6745]
	},
	{
		"bufferView":1,
		"type":"VEC3",
		"componentType":5126,
		"count":6746,
		"byteOffset":0,
		"min":[-0.05608700215816498,
		0.0003618766204454005,
		-0.04370192438364029],
		"max":[0.04886721819639206,
		0.18516208231449128,
		0.022855330258607866]
	},
	{
		"bufferView":2,
		"type":"VEC4",
		"componentType":5123,
		"count":6746,
		"byteOffset":0,
		"min":[0,
		0,
		0,
		0],
		"max":[51,
		51,
		51,
		50]
	},
	{
		"bufferView":3,
		"type":"VEC4",
		"componentType":5126,
		"count":6746,
		"byteOffset":0,
		"min":[0.29173722863197329,
		0.0,
		0.0,
		0.0],
		"max":[1.0,
		0.49964141845703127,
		0.287296861410141,
		0.20405890047550202]
	},
	{
		"bufferView":4,
		"type":"MAT4",
		"componentType":5126,
		"count":52,
		"byteOffset":0,
		"min":[-0.9996793270111084,
		-0.9214098453521729,
		-0.9869995713233948,
		0.0,
		-0.9714873433113098,
		-0.9864394068717957,
		-0.9882237911224365,
		0.0,
		-0.9948554635047913,
		-0.9026323556900024,
		-0.9241187572479248,
		0.0,
		-0.09580504894256592,
		-0.16133970022201539,
		-0.1429058015346527,
		1.0],
		"max":[0.9601964950561523,
		0.9902398586273193,
		0.8065893650054932,
		0.0,
		0.7343782186508179,
		0.979998767375946,
		0.9994865655899048,
		0.0,
		0.9172030687332153,
		0.9996046423912048,
		0.9716834425926209,
		0.0,
		0.13735216856002809,
		0.14755494892597199,
		0.1548481434583664,
		1.0]
	}],
	"bufferViews":[{
		"buffer":0,
		"byteOffset":0,
		"target":34963,
		"byteLength":77574
	},
	{
		"buffer":0,
		"byteOffset":77576,
		"target":34962,
		"byteLength":80952
	},
	{
		"buffer":0,
		"byteOffset":158528,
		"target":34962,
		"byteLength":53968
	},
	{
		"buffer":0,
		"byteOffset":212496,
		"target":34962,
		"byteLength":107936
	},
	{
		"buffer":1,
		"byteOffset":0,
		"byteLength":3328
	}],
	"buffers":[{
		"uri":"data:application/octet-stream;base64,",
		"byteLength":320432
	},
	{
		"uri":"data:application/octet-stream;base64,",
		"byteLength":3328
	}],
	"samplers":[{
		"magFilter":9729,
		"minFilter":9729,
		"wrapS":10497,
		"wrapT":10497
	}],
	"textures":[{
		"sampler":0,
		"source":0
	}],
	"materials":[{
		"pbrMetallicRoughness":{
			"baseColorTexture":{
				"index":0
			},
			"baseColorFactor":[0.8,
			0.8,
			0.8,
			1.0],
			"metallicFactor":1.0,
			"roughnessFactor":1.0
		},
		"emissiveFactor":[0.0,
		0.0,
		0.0],
		"alphaMode":"OPAQUE",
		"doubleSided":false,
		"name":"Object001Matmat"
	}]
}