{
	"asset":{
		"version":"2.0",
		"generator":"Created using the official Cinema 4D glTF Exporter 1.000x284978"
	},
	"scenes":[{
		"nodes":[0]
	}],
	"nodes":[{
		"name":"Null",
		"children":[1,
		2]
	},
	{
		"name":"Null-M_MED_Deli_Sandwich_Head",
		"mesh":0
	},
	{
		"name":"Null-M_MED_Deli_Sandwich_Body",
		"mesh":1
	}],
	"meshes":[{
		"primitives":[{
			"attributes":{
				"POSITION":1,
				"TEXCOORD_0":2
			},
			"indices":0,
			"material":0
		}],
		"name":"Null-M_MED_Deli_Sandwich_Head"
	},
	{
		"primitives":[{
			"attributes":{
				"POSITION":4,
				"TEXCOORD_0":5
			},
			"indices":3,
			"material":1
		}],
		"name":"Null-M_MED_Deli_Sandwich_Body"
	}],
	"accessors":[{
		"bufferView":0,
		"type":"SCALAR",
		"componentType":5123,
		"count":3774,
		"byteOffset":0,
		"min":[0],
		"max":[939]
	},
	{
		"bufferView":1,
		"type":"VEC3",
		"componentType":5126,
		"count":940,
		"byteOffset":0,
		"min":[-744.3818969726563,
		14601.4931640625,
		-997.4514770507813],
		"max":[744.3818969726563,
		16656.783203125,
		868.3267211914063]
	},
	{
		"bufferView":1,
		"type":"VEC2",
		"componentType":5126,
		"count":940,
		"byteOffset":12,
		"min":[0.0125579833984375,
		0.02880859375],
		"max":[0.99169921875,
		0.9923095703125]
	},
	{
		"bufferView":2,
		"type":"SCALAR",
		"componentType":5123,
		"count":12513,
		"byteOffset":0,
		"min":[0],
		"max":[3369]
	},
	{
		"bufferView":3,
		"type":"VEC3",
		"componentType":5126,
		"count":3370,
		"byteOffset":0,
		"min":[-5961.86328125,
		5.68961238861084,
		-1633.741455078125],
		"max":[5977.08447265625,
		15511.79296875,
		1548.594482421875]
	},
	{
		"bufferView":3,
		"type":"VEC2",
		"componentType":5126,
		"count":3370,
		"byteOffset":12,
		"min":[0.0036773681640625,
		0.00146484375],
		"max":[0.9970703125,
		0.9957962036132813]
	}],
	"bufferViews":[{
		"buffer":0,
		"byteOffset":0,
		"byteLength":7548,
		"target":34963
	},
	{
		"buffer":0,
		"byteOffset":7548,
		"byteLength":18800,
		"target":34962,
		"byteStride":20
	},
	{
		"buffer":1,
		"byteOffset":0,
		"byteLength":25026,
		"target":34963
	},
	{
		"buffer":1,
		"byteOffset":25028,
		"byteLength":67400,
		"target":34962,
		"byteStride":20
	}],
	"buffers":[{
		"uri":"data:application/octet-stream;base64,",
		"byteLength":26348
	},
	{
		"uri":"data:application/octet-stream;base64,",
		"byteLength":92428
	}],
	"images":[{
		"uri":"data:image/jpeg;base64,"
	},
	{
		"uri":"data:image/jpeg;base64,"
	},
	{
		"uri":"data:image/jpeg;base64,"
	}],
	"samplers":[{
		"magFilter":9729,
		"minFilter":9729,
		"wrapS":10497,
		"wrapT":10497
	},
	{
		"magFilter":9729,
		"minFilter":9729,
		"wrapS":10497,
		"wrapT":10497
	},
	{
		"magFilter":9729,
		"minFilter":9729,
		"wrapS":10497,
		"wrapT":10497
	}],
	"materials":[{
		"pbrMetallicRoughness":{
			"baseColorTexture":{
				"index":0
			},
			"baseColorFactor":[1.0,
			1.0,
			1.0,
			1.0],
			"metallicFactor":1.0,
			"roughnessFactor":0.5424701492285794
		},
		"emissiveTexture":{
			"index":1
		},
		"emissiveFactor":[1.0,
		1.0,
		1.0],
		"alphaMode":"OPAQUE",
		"doubleSided":false,
		"name":"M_MED_Deli_Sandwich_Head"
	},
	{
		"pbrMetallicRoughness":{
			"baseColorTexture":{
				"index":2
			},
			"baseColorFactor":[1.0,
			1.0,
			1.0,
			1.0],
			"metallicFactor":1.0,
			"roughnessFactor":0.4085589688623932
		},
		"emissiveFactor":[0.0,
		0.0,
		0.0],
		"alphaMode":"OPAQUE",
		"doubleSided":false,
		"name":"M_MED_Deli_Sandwich_Body"
	}],
	"textures":[{
		"sampler":0,
		"source":0
	},
	{
		"sampler":1,
		"source":1
	},
	{
		"sampler":2,
		"source":2
	}]
}