{
	"asset":{
		"version":"2.0",
		"generator":"Created using the official Cinema 4D glTF Exporter 1.000x284978"
	},
	"scenes":[{
		"nodes":[0,
		1]
	}],
	"nodes":[{
		"name":"M_MED_Deli_Sandwich.mo_M_MED_Deli_Sandwich_Head_0",
		"mesh":0
	},
	{
		"name":"M_MED_Deli_Sandwich.mo_M_MED_Deli_Sandwich_Body_0",
		"mesh":1
	}],
	"meshes":[{
		"primitives":[{
			"attributes":{
				"POSITION":1,
				"NORMAL":2,
				"TEXCOORD_0":3
			},
			"indices":0,
			"material":0
		}],
		"name":"M_MED_Deli_Sandwich.mo_M_MED_Deli_Sandwich_Head_0"
	},
	{
		"primitives":[{
			"attributes":{
				"POSITION":5,
				"NORMAL":6,
				"TEXCOORD_0":7
			},
			"indices":4,
			"material":1
		}],
		"name":"M_MED_Deli_Sandwich.mo_M_MED_Deli_Sandwich_Body_0"
	}],
	"accessors":[{
		"bufferView":0,
		"type":"SCALAR",
		"componentType":5123,
		"count":20988,
		"byteOffset":0,
		"min":[0],
		"max":[3924]
	},
	{
		"bufferView":1,
		"type":"VEC3",
		"componentType":5126,
		"count":3925,
		"byteOffset":0,
		"min":[-745.8350830078125,
		14601.4931640625,
		-997.4514770507813],
		"max":[745.8350830078125,
		16663.896484375,
		872.9158325195313]
	},
	{
		"bufferView":1,
		"type":"VEC3",
		"componentType":5126,
		"count":3925,
		"byteOffset":12,
		"min":[-0.9994062781333923,
		-1.0000313520431519,
		-1.0],
		"max":[0.99937504529953,
		0.9998437762260437,
		0.9999688267707825]
	},
	{
		"bufferView":1,
		"type":"VEC2",
		"componentType":5126,
		"count":3925,
		"byteOffset":24,
		"min":[0.0125579833984375,
		0.02880859375],
		"max":[0.99169921875,
		0.9929351806640625]
	},
	{
		"bufferView":2,
		"type":"SCALAR",
		"componentType":5123,
		"count":76890,
		"byteOffset":0,
		"min":[0],
		"max":[14846]
	},
	{
		"bufferView":3,
		"type":"VEC3",
		"componentType":5126,
		"count":14847,
		"byteOffset":0,
		"min":[-5979.89892578125,
		-4.963146209716797,
		-1648.8798828125],
		"max":[5977.68798828125,
		15511.79296875,
		1554.860107421875]
	},
	{
		"bufferView":3,
		"type":"VEC3",
		"componentType":5126,
		"count":14847,
		"byteOffset":12,
		"min":[-0.999750018119812,
		-1.0,
		-1.0],
		"max":[0.9998437762260437,
		0.9999063014984131,
		0.9999688267707825]
	},
	{
		"bufferView":3,
		"type":"VEC2",
		"componentType":5126,
		"count":14847,
		"byteOffset":24,
		"min":[0.002094268798828125,
		0.00146484375],
		"max":[0.99853515625,
		0.9957962036132813]
	}],
	"bufferViews":[{
		"buffer":0,
		"byteOffset":0,
		"byteLength":41976,
		"target":34963
	},
	{
		"buffer":0,
		"byteOffset":41976,
		"byteLength":125600,
		"target":34962,
		"byteStride":32
	},
	{
		"buffer":1,
		"byteOffset":0,
		"byteLength":153780,
		"target":34963
	},
	{
		"buffer":1,
		"byteOffset":153780,
		"byteLength":475104,
		"target":34962,
		"byteStride":32
	}],
	"buffers":[{
		"uri":"data:application/octet-stream;base64,",
		"byteLength":167576
	},
	{
		"uri":"data:application/octet-stream;base64,",
		"byteLength":628884
	}],
	"images":[{
		"uri":"data:image/jpeg;base64,"
	},
	{
		"uri":"data:image/jpeg;base64,"
	},
	{
		"uri":"data:image/jpeg;base64,"
	}],
	"samplers":[{
		"magFilter":9729,
		"minFilter":9729,
		"wrapS":10497,
		"wrapT":10497
	},
	{
		"magFilter":9729,
		"minFilter":9729,
		"wrapS":10497,
		"wrapT":10497
	},
	{
		"magFilter":9729,
		"minFilter":9729,
		"wrapS":10497,
		"wrapT":10497
	}],
	"materials":[{
		"pbrMetallicRoughness":{
			"baseColorTexture":{
				"index":0
			},
			"baseColorFactor":[1.0,
			1.0,
			1.0,
			1.0],
			"metallicFactor":1.0,
			"roughnessFactor":0.5424701492285794
		},
		"emissiveTexture":{
			"index":1
		},
		"emissiveFactor":[1.0,
		1.0,
		1.0],
		"alphaMode":"OPAQUE",
		"doubleSided":false,
		"name":"M_MED_Deli_Sandwich_Head"
	},
	{
		"pbrMetallicRoughness":{
			"baseColorTexture":{
				"index":2
			},
			"baseColorFactor":[1.0,
			1.0,
			1.0,
			1.0],
			"metallicFactor":1.0,
			"roughnessFactor":0.4085589688623932
		},
		"emissiveFactor":[0.0,
		0.0,
		0.0],
		"alphaMode":"OPAQUE",
		"doubleSided":false,
		"name":"M_MED_Deli_Sandwich_Body"
	}],
	"textures":[{
		"sampler":0,
		"source":0
	},
	{
		"sampler":1,
		"source":1
	},
	{
		"sampler":2,
		"source":2
	}]
}