{
	"asset":{
		"version":"2.0",
		"generator":"Created using the official Cinema 4D glTF Exporter 1.000x284978"
	},
	"scenes":[{
		"nodes":[0]
	}],
	"nodes":[{
		"name":"Null",
		"mesh":0
	}],
	"meshes":[{
		"primitives":[{
			"attributes":{
				"POSITION":1
			},
			"indices":0,
			"material":0
		}],
		"name":"Null"
	}],
	"accessors":[{
		"bufferView":0,
		"type":"SCALAR",
		"componentType":5123,
		"count":16287,
		"byteOffset":0,
		"min":[0],
		"max":[3037]
	},
	{
		"bufferView":1,
		"type":"VEC3",
		"componentType":5126,
		"count":3038,
		"byteOffset":0,
		"min":[-11923.7265625,
		11.37922477722168,
		-3267.48291015625],
		"max":[11954.1689453125,
		33313.56640625,
		3097.188720703125]
	}],
	"bufferViews":[{
		"buffer":0,
		"byteOffset":0,
		"byteLength":32574,
		"target":34963
	},
	{
		"buffer":0,
		"byteOffset":32576,
		"byteLength":36456,
		"target":34962
	}],
	"buffers":[{
		"uri":"data:application/octet-stream;base64,",
		"byteLength":69032
	}],
	"materials":[{
		"pbrMetallicRoughness":{
			"baseColorFactor":[0.5700000000000001,
			0.0,
			0.0,
			1.0],
			"metallicFactor":0.0,
			"roughnessFactor":0.5
		},
		"emissiveFactor":[0.0,
		0.0,
		0.0],
		"alphaMode":"OPAQUE",
		"doubleSided":false,
		"name":"Mat"
	}]
}