{
	"asset":{
		"version":"2.0",
		"generator":"Created using the official Cinema 4D glTF Exporter 1.000x284978"
	},
	"scenes":[{
		"nodes":[0]
	}],
	"nodes":[{
		"name":"Object_0",
		"translation":[0.0,
		0.0,
		0.0],
		"rotation":[-0.7071067690849304,
		0.0,
		0.0,
		-0.7071067690849304],
		"scale":[1.0,
		1.0,
		1.0],
		"mesh":0
	}],
	"meshes":[{
		"name":"Object_0",
		"primitives":[{
			"material":0,
			"attributes":{
				"POSITION":1,
				"NORMAL":2,
				"TEXCOORD_0":3
			},
			"indices":0
		}]
	}],
	"accessors":[{
		"bufferView":0,
		"type":"SCALAR",
		"componentType":5123,
		"count":28644,
		"byteOffset":0,
		"min":[0],
		"max":[7427]
	},
	{
		"bufferView":1,
		"type":"VEC3",
		"componentType":5126,
		"count":7428,
		"byteOffset":0,
		"min":[-0.5683190226554871,
		-0.33618301153182986,
		-2.123228073120117],
		"max":[0.5683190226554871,
		0.2089879959821701,
		0.0]
	},
	{
		"bufferView":1,
		"type":"VEC3",
		"componentType":5126,
		"count":7428,
		"byteOffset":12,
		"min":[-1.0,
		-1.0,
		-1.0],
		"max":[1.0,
		0.9999999403953552,
		1.0]
	},
	{
		"bufferView":1,
		"type":"VEC2",
		"componentType":5126,
		"count":7428,
		"byteOffset":24,
		"min":[0.009665999561548233,
		0.007812999188899994],
		"max":[0.979981005191803,
		0.9892579317092896]
	}],
	"bufferViews":[{
		"buffer":0,
		"byteOffset":0,
		"byteLength":57288,
		"target":34963
	},
	{
		"buffer":0,
		"byteStride":32,
		"byteOffset":57288,
		"byteLength":237696,
		"target":34962
	}],
	"textures":[{
		"sampler":0,
		"source":0
	}],
	"samplers":[{
		"magFilter":9729,
		"minFilter":9729,
		"wrapS":10497,
		"wrapT":10497
	}],
	"buffers":[{
		"uri":"data:application/octet-stream;base64,",
		"byteLength":294984
	}],
	"images":[{
		"uri":"data:image/jpeg;base64,"
	}],
	"materials":[{
		"alphaMode":"OPAQUE",
		"pbrMetallicRoughness":{
			"baseColorTexture":{
				"index":0
			},
			"baseColorFactor":[1.0,
			1.0,
			1.0,
			1.0],
			"metallicFactor":1.0,
			"roughnessFactor":0.9921745770996335
		},
		"emissiveFactor":[0.0,
		0.0,
		0.0],
		"doubleSided":false,
		"name":"DI2_PC_MAR_IMA_CLA_B"
	}]
}