{
	"asset":{
		"version":"2.0",
		"generator":"Created using the official Cinema 4D glTF Exporter 1.000x284978"
	},
	"scenes":[{
		"nodes":[0]
	}],
	"nodes":[{
		"name":"Link",
		"children":[1,
		2,
		3,
		4,
		5,
		6,
		7,
		8,
		9,
		10]
	},
	{
		"name":"Link-mat4",
		"mesh":0
	},
	{
		"name":"Link-mat5",
		"mesh":1
	},
	{
		"name":"Link-mat6",
		"mesh":2
	},
	{
		"name":"Link-mat8",
		"mesh":3
	},
	{
		"name":"Link-mat1",
		"mesh":4
	},
	{
		"name":"Link-mat10",
		"mesh":5
	},
	{
		"name":"Link-mat3",
		"mesh":6
	},
	{
		"name":"Link-mat2",
		"mesh":7
	},
	{
		"name":"Link-mat7",
		"mesh":8
	},
	{
		"name":"Link-mat9",
		"mesh":9
	}],
	"meshes":[{
		"primitives":[{
			"attributes":{
				"POSITION":1,
				"TEXCOORD_0":2
			},
			"indices":0,
			"material":0
		}],
		"name":"Link-mat4"
	},
	{
		"primitives":[{
			"attributes":{
				"POSITION":4,
				"TEXCOORD_0":5
			},
			"indices":3,
			"material":1
		}],
		"name":"Link-mat5"
	},
	{
		"primitives":[{
			"attributes":{
				"POSITION":7,
				"TEXCOORD_0":8
			},
			"indices":6,
			"material":2
		}],
		"name":"Link-mat6"
	},
	{
		"primitives":[{
			"attributes":{
				"POSITION":10,
				"TEXCOORD_0":11
			},
			"indices":9,
			"material":3
		}],
		"name":"Link-mat8"
	},
	{
		"primitives":[{
			"attributes":{
				"POSITION":13,
				"TEXCOORD_0":14
			},
			"indices":12,
			"material":4
		}],
		"name":"Link-mat1"
	},
	{
		"primitives":[{
			"attributes":{
				"POSITION":16,
				"TEXCOORD_0":17
			},
			"indices":15,
			"material":5
		}],
		"name":"Link-mat10"
	},
	{
		"primitives":[{
			"attributes":{
				"POSITION":19,
				"TEXCOORD_0":20
			},
			"indices":18,
			"material":6
		}],
		"name":"Link-mat3"
	},
	{
		"primitives":[{
			"attributes":{
				"POSITION":22,
				"TEXCOORD_0":23
			},
			"indices":21,
			"material":7
		}],
		"name":"Link-mat2"
	},
	{
		"primitives":[{
			"attributes":{
				"POSITION":25,
				"TEXCOORD_0":26
			},
			"indices":24,
			"material":8
		}],
		"name":"Link-mat7"
	},
	{
		"primitives":[{
			"attributes":{
				"POSITION":28,
				"TEXCOORD_0":29
			},
			"indices":27,
			"material":9
		}],
		"name":"Link-mat9"
	}],
	"accessors":[{
		"bufferView":0,
		"type":"SCALAR",
		"componentType":5123,
		"count":705,
		"byteOffset":0,
		"min":[0],
		"max":[130]
	},
	{
		"bufferView":1,
		"type":"VEC3",
		"componentType":5126,
		"count":131,
		"byteOffset":0,
		"min":[-0.1747719943523407,
		0.6171199083328247,
		-0.06125232204794884],
		"max":[0.052006933838129047,
		0.7603651285171509,
		0.09817995131015778]
	},
	{
		"bufferView":1,
		"type":"VEC2",
		"componentType":5126,
		"count":131,
		"byteOffset":12,
		"min":[0.002783999778330326,
		0.024480000138282777],
		"max":[0.9989919662475586,
		0.9933619499206543]
	},
	{
		"bufferView":2,
		"type":"SCALAR",
		"componentType":5123,
		"count":66,
		"byteOffset":0,
		"min":[0],
		"max":[17]
	},
	{
		"bufferView":3,
		"type":"VEC3",
		"componentType":5126,
		"count":18,
		"byteOffset":0,
		"min":[0.005808256100863218,
		0.6635656952857971,
		-0.060476697981357577],
		"max":[0.02798658050596714,
		0.6786141395568848,
		-0.048862967640161517]
	},
	{
		"bufferView":3,
		"type":"VEC2",
		"componentType":5126,
		"count":18,
		"byteOffset":12,
		"min":[0.07497699558734894,
		0.2141599953174591],
		"max":[1.0042338371276856,
		0.7326120138168335]
	},
	{
		"bufferView":4,
		"type":"SCALAR",
		"componentType":5123,
		"count":66,
		"byteOffset":0,
		"min":[0],
		"max":[17]
	},
	{
		"bufferView":5,
		"type":"VEC3",
		"componentType":5126,
		"count":18,
		"byteOffset":0,
		"min":[-0.03314034640789032,
		0.6636996865272522,
		-0.060495272278785709],
		"max":[-0.010963935405015946,
		0.6787499785423279,
		-0.0488818883895874]
	},
	{
		"bufferView":5,
		"type":"VEC2",
		"componentType":5126,
		"count":18,
		"byteOffset":12,
		"min":[-0.073076993227005,
		0.2141599953174591],
		"max":[0.8561810255050659,
		0.7326120138168335]
	},
	{
		"bufferView":6,
		"type":"SCALAR",
		"componentType":5123,
		"count":1272,
		"byteOffset":0,
		"min":[0],
		"max":[663]
	},
	{
		"bufferView":7,
		"type":"VEC3",
		"componentType":5126,
		"count":664,
		"byteOffset":0,
		"min":[0.08107144385576248,
		0.23799444735050202,
		0.051173195242881778],
		"max":[0.17398576438426972,
		0.38126564025878909,
		0.19321301579475404]
	},
	{
		"bufferView":7,
		"type":"VEC2",
		"componentType":5126,
		"count":664,
		"byteOffset":12,
		"min":[1.0095438957214356,
		0.005235999822616577],
		"max":[1.9916739463806153,
		0.9894030094146729]
	},
	{
		"bufferView":8,
		"type":"SCALAR",
		"componentType":5123,
		"count":492,
		"byteOffset":0,
		"min":[0],
		"max":[197]
	},
	{
		"bufferView":9,
		"type":"VEC3",
		"componentType":5126,
		"count":198,
		"byteOffset":0,
		"min":[0.14221462607383729,
		0.08685346692800522,
		-0.16782766580581666],
		"max":[0.3298564851284027,
		0.31045833230018618,
		0.1054379791021347]
	},
	{
		"bufferView":9,
		"type":"VEC2",
		"componentType":5126,
		"count":198,
		"byteOffset":12,
		"min":[-0.09875999391078949,
		0.007874999195337296],
		"max":[1.0210719108581544,
		0.9992070198059082]
	},
	{
		"bufferView":10,
		"type":"SCALAR",
		"componentType":5123,
		"count":1800,
		"byteOffset":0,
		"min":[0],
		"max":[764]
	},
	{
		"bufferView":11,
		"type":"VEC3",
		"componentType":5126,
		"count":765,
		"byteOffset":0,
		"min":[-0.1442127376794815,
		0.2719130218029022,
		0.002375776646658778],
		"max":[0.05383161082863808,
		0.6379234790802002,
		0.09769383072853089]
	},
	{
		"bufferView":11,
		"type":"VEC2",
		"componentType":5126,
		"count":765,
		"byteOffset":12,
		"min":[2.0054197311401369,
		0.006771000102162361],
		"max":[2.9959206581115724,
		0.9960429668426514]
	},
	{
		"bufferView":12,
		"type":"SCALAR",
		"componentType":5123,
		"count":9015,
		"byteOffset":0,
		"min":[0],
		"max":[3226]
	},
	{
		"bufferView":13,
		"type":"VEC3",
		"componentType":5126,
		"count":3227,
		"byteOffset":0,
		"min":[-0.1959284543991089,
		0.000004741114025819115,
		-0.1840033382177353],
		"max":[0.169463649392128,
		0.7322081923484802,
		0.16958913207054139]
	},
	{
		"bufferView":13,
		"type":"VEC2",
		"componentType":5126,
		"count":3227,
		"byteOffset":12,
		"min":[0.001695999875664711,
		0.0011620000004768372],
		"max":[7.302626609802246,
		0.995576024055481]
	},
	{
		"bufferView":14,
		"type":"SCALAR",
		"componentType":5123,
		"count":4884,
		"byteOffset":0,
		"min":[0],
		"max":[1185]
	},
	{
		"bufferView":15,
		"type":"VEC3",
		"componentType":5126,
		"count":1186,
		"byteOffset":0,
		"min":[-0.18185795843601228,
		0.18860282003879548,
		-0.09085266292095185],
		"max":[0.1198635846376419,
		0.6361478567123413,
		0.12744618952274323]
	},
	{
		"bufferView":15,
		"type":"VEC2",
		"componentType":5126,
		"count":1186,
		"byteOffset":12,
		"min":[-0.98807692527771,
		0.011713000014424324],
		"max":[0.9999109506607056,
		0.9976109266281128]
	},
	{
		"bufferView":16,
		"type":"SCALAR",
		"componentType":5123,
		"count":2970,
		"byteOffset":0,
		"min":[0],
		"max":[693]
	},
	{
		"bufferView":17,
		"type":"VEC3",
		"componentType":5126,
		"count":694,
		"byteOffset":0,
		"min":[-0.06757653504610062,
		0.6019861698150635,
		-0.07473953068256378],
		"max":[0.062318552285432819,
		0.7064069509506226,
		0.021670937538146974]
	},
	{
		"bufferView":17,
		"type":"VEC2",
		"componentType":5126,
		"count":694,
		"byteOffset":12,
		"min":[0.0021279999054968359,
		-0.9637079238891602],
		"max":[0.9762909412384033,
		0.9902489185333252]
	},
	{
		"bufferView":18,
		"type":"SCALAR",
		"componentType":5123,
		"count":444,
		"byteOffset":0,
		"min":[0],
		"max":[193]
	},
	{
		"bufferView":19,
		"type":"VEC3",
		"componentType":5126,
		"count":194,
		"byteOffset":0,
		"min":[-0.16990655660629273,
		0.30654376745224,
		-0.08409279584884644],
		"max":[0.11215005815029144,
		0.5535188317298889,
		0.11542747169733048]
	},
	{
		"bufferView":19,
		"type":"VEC2",
		"componentType":5126,
		"count":194,
		"byteOffset":12,
		"min":[0.0,
		-0.9426360130310059],
		"max":[10.617103576660157,
		5.866147041320801]
	}],
	"bufferViews":[{
		"buffer":0,
		"byteOffset":0,
		"byteLength":1410,
		"target":34963
	},
	{
		"buffer":0,
		"byteOffset":1412,
		"byteLength":2620,
		"target":34962,
		"byteStride":20
	},
	{
		"buffer":1,
		"byteOffset":0,
		"byteLength":132,
		"target":34963
	},
	{
		"buffer":1,
		"byteOffset":132,
		"byteLength":360,
		"target":34962,
		"byteStride":20
	},
	{
		"buffer":2,
		"byteOffset":0,
		"byteLength":132,
		"target":34963
	},
	{
		"buffer":2,
		"byteOffset":132,
		"byteLength":360,
		"target":34962,
		"byteStride":20
	},
	{
		"buffer":3,
		"byteOffset":0,
		"byteLength":2544,
		"target":34963
	},
	{
		"buffer":3,
		"byteOffset":2544,
		"byteLength":13280,
		"target":34962,
		"byteStride":20
	},
	{
		"buffer":4,
		"byteOffset":0,
		"byteLength":984,
		"target":34963
	},
	{
		"buffer":4,
		"byteOffset":984,
		"byteLength":3960,
		"target":34962,
		"byteStride":20
	},
	{
		"buffer":5,
		"byteOffset":0,
		"byteLength":3600,
		"target":34963
	},
	{
		"buffer":5,
		"byteOffset":3600,
		"byteLength":15300,
		"target":34962,
		"byteStride":20
	},
	{
		"buffer":6,
		"byteOffset":0,
		"byteLength":18030,
		"target":34963
	},
	{
		"buffer":6,
		"byteOffset":18032,
		"byteLength":64540,
		"target":34962,
		"byteStride":20
	},
	{
		"buffer":7,
		"byteOffset":0,
		"byteLength":9768,
		"target":34963
	},
	{
		"buffer":7,
		"byteOffset":9768,
		"byteLength":23720,
		"target":34962,
		"byteStride":20
	},
	{
		"buffer":8,
		"byteOffset":0,
		"byteLength":5940,
		"target":34963
	},
	{
		"buffer":8,
		"byteOffset":5940,
		"byteLength":13880,
		"target":34962,
		"byteStride":20
	},
	{
		"buffer":9,
		"byteOffset":0,
		"byteLength":888,
		"target":34963
	},
	{
		"buffer":9,
		"byteOffset":888,
		"byteLength":3880,
		"target":34962,
		"byteStride":20
	}],
	"buffers":[{
		"uri":"data:application/octet-stream;base64,",
		"byteLength":4032
	},
	{
		"uri":"data:application/octet-stream;base64,",
		"byteLength":492
	},
	{
		"uri":"data:application/octet-stream;base64,",
		"byteLength":492
	},
	{
		"uri":"data:application/octet-stream;base64,",
		"byteLength":15824
	},
	{
		"uri":"data:application/octet-stream;base64,",
		"byteLength":4944
	},
	{
		"uri":"data:application/octet-stream;base64,",
		"byteLength":18900
	},
	{
		"uri":"data:application/octet-stream;base64,",
		"byteLength":82572
	},
	{
		"uri":"data:application/octet-stream;base64,",
		"byteLength":33488
	},
	{
		"uri":"data:application/octet-stream;base64,",
		"byteLength":19820
	},
	{
		"uri":"data:application/octet-stream;base64,",
		"byteLength":4768
	}],
	"images":[{
		"uri":"data:image/jpeg;base64,"
	},
	{
		"uri":"data:image/jpeg;base64,"
	},
	{
		"uri":"data:image/jpeg;base64,"
	},
	{
		"uri":"data:image/jpeg;base64,"
	},
	{
		"uri":"data:image/jpeg;base64,"
	},
	{
		"uri":"data:image/jpeg;base64,"
	},
	{
		"uri":"data:image/jpeg;base64,"
	},
	{
		"uri":"data:image/jpeg;base64,"
	},
	{
		"uri":"data:image/jpeg;base64,"
	}],
	"samplers":[{
		"magFilter":9729,
		"minFilter":9729,
		"wrapS":10497,
		"wrapT":10497
	},
	{
		"magFilter":9729,
		"minFilter":9729,
		"wrapS":10497,
		"wrapT":10497
	},
	{
		"magFilter":9729,
		"minFilter":9729,
		"wrapS":10497,
		"wrapT":10497
	},
	{
		"magFilter":9729,
		"minFilter":9729,
		"wrapS":10497,
		"wrapT":10497
	},
	{
		"magFilter":9729,
		"minFilter":9729,
		"wrapS":10497,
		"wrapT":10497
	},
	{
		"magFilter":9729,
		"minFilter":9729,
		"wrapS":10497,
		"wrapT":10497
	},
	{
		"magFilter":9729,
		"minFilter":9729,
		"wrapS":10497,
		"wrapT":10497
	},
	{
		"magFilter":9729,
		"minFilter":9729,
		"wrapS":10497,
		"wrapT":10497
	},
	{
		"magFilter":9729,
		"minFilter":9729,
		"wrapS":10497,
		"wrapT":10497
	},
	{
		"magFilter":9729,
		"minFilter":9729,
		"wrapS":10497,
		"wrapT":10497
	}],
	"materials":[{
		"pbrMetallicRoughness":{
			"baseColorTexture":{
				"index":0
			},
			"baseColorFactor":[1.0,
			1.0,
			1.0,
			1.0],
			"metallicFactor":1.0,
			"roughnessFactor":1.0
		},
		"emissiveFactor":[0.0,
		0.0,
		0.0],
		"alphaMode":"OPAQUE",
		"doubleSided":false,
		"name":"mat4"
	},
	{
		"pbrMetallicRoughness":{
			"baseColorTexture":{
				"index":1
			},
			"baseColorFactor":[1.0,
			1.0,
			1.0,
			1.0],
			"metallicFactor":1.0,
			"roughnessFactor":1.0
		},
		"emissiveFactor":[0.0,
		0.0,
		0.0],
		"alphaMode":"OPAQUE",
		"doubleSided":false,
		"name":"mat5"
	},
	{
		"pbrMetallicRoughness":{
			"baseColorTexture":{
				"index":2
			},
			"baseColorFactor":[1.0,
			1.0,
			1.0,
			1.0],
			"metallicFactor":1.0,
			"roughnessFactor":1.0
		},
		"emissiveFactor":[0.0,
		0.0,
		0.0],
		"alphaMode":"OPAQUE",
		"doubleSided":false,
		"name":"mat6"
	},
	{
		"pbrMetallicRoughness":{
			"baseColorTexture":{
				"index":3
			},
			"baseColorFactor":[1.0,
			1.0,
			1.0,
			1.0],
			"metallicFactor":1.0,
			"roughnessFactor":1.0
		},
		"emissiveFactor":[0.0,
		0.0,
		0.0],
		"alphaMode":"OPAQUE",
		"doubleSided":false,
		"name":"mat8"
	},
	{
		"pbrMetallicRoughness":{
			"baseColorTexture":{
				"index":4
			},
			"baseColorFactor":[1.0,
			1.0,
			1.0,
			1.0],
			"metallicFactor":1.0,
			"roughnessFactor":1.0
		},
		"emissiveFactor":[0.0,
		0.0,
		0.0],
		"alphaMode":"OPAQUE",
		"doubleSided":false,
		"name":"mat1"
	},
	{
		"pbrMetallicRoughness":{
			"baseColorTexture":{
				"index":5
			},
			"baseColorFactor":[1.0,
			1.0,
			1.0,
			1.0],
			"metallicFactor":1.0,
			"roughnessFactor":1.0
		},
		"emissiveFactor":[0.0,
		0.0,
		0.0],
		"alphaMode":"OPAQUE",
		"doubleSided":false,
		"name":"mat10"
	},
	{
		"pbrMetallicRoughness":{
			"baseColorTexture":{
				"index":6
			},
			"baseColorFactor":[1.0,
			1.0,
			1.0,
			1.0],
			"metallicFactor":1.0,
			"roughnessFactor":1.0
		},
		"emissiveFactor":[0.0,
		0.0,
		0.0],
		"alphaMode":"OPAQUE",
		"doubleSided":false,
		"name":"mat3"
	},
	{
		"pbrMetallicRoughness":{
			"baseColorTexture":{
				"index":7
			},
			"baseColorFactor":[1.0,
			1.0,
			1.0,
			1.0],
			"metallicFactor":1.0,
			"roughnessFactor":1.0
		},
		"emissiveFactor":[0.0,
		0.0,
		0.0],
		"alphaMode":"OPAQUE",
		"doubleSided":false,
		"name":"mat2"
	},
	{
		"pbrMetallicRoughness":{
			"baseColorTexture":{
				"index":8
			},
			"baseColorFactor":[1.0,
			1.0,
			1.0,
			1.0],
			"metallicFactor":1.0,
			"roughnessFactor":1.0
		},
		"emissiveFactor":[0.0,
		0.0,
		0.0],
		"alphaMode":"OPAQUE",
		"doubleSided":false,
		"name":"mat7"
	},
	{
		"pbrMetallicRoughness":{
			"baseColorTexture":{
				"index":9
			},
			"baseColorFactor":[1.0,
			1.0,
			1.0,
			1.0],
			"metallicFactor":1.0,
			"roughnessFactor":1.0
		},
		"emissiveFactor":[0.0,
		0.0,
		0.0],
		"alphaMode":"OPAQUE",
		"doubleSided":false,
		"name":"mat9"
	}],
	"textures":[{
		"sampler":0,
		"source":0
	},
	{
		"sampler":1,
		"source":1
	},
	{
		"sampler":2,
		"source":1
	},
	{
		"sampler":3,
		"source":2
	},
	{
		"sampler":4,
		"source":3
	},
	{
		"sampler":5,
		"source":4
	},
	{
		"sampler":6,
		"source":5
	},
	{
		"sampler":7,
		"source":6
	},
	{
		"sampler":8,
		"source":7
	},
	{
		"sampler":9,
		"source":8
	}]
}