{
	"asset":{
		"version":"2.0",
		"generator":"Created using the official Cinema 4D glTF Exporter 1.000x284978"
	},
	"scenes":[{
		"nodes":[0]
	}],
	"nodes":[{
		"name":"Sentinel",
		"rotation":[-0.7071067690849304,
		0.0,
		0.0,
		-0.7071067690849304],
		"translation":[0.0,
		0.0,
		0.0],
		"scale":[1.0,
		1.0,
		1.0],
		"mesh":0
	}],
	"meshes":[{
		"primitives":[{
			"attributes":{
				"POSITION":1,
				"TEXCOORD_0":2
			},
			"indices":0,
			"material":0
		}],
		"name":"Sentinel"
	}],
	"accessors":[{
		"bufferView":0,
		"type":"SCALAR",
		"componentType":5123,
		"count":4614,
		"byteOffset":0,
		"min":[0],
		"max":[1242]
	},
	{
		"bufferView":1,
		"type":"VEC3",
		"componentType":5126,
		"count":1243,
		"byteOffset":0,
		"min":[-6.039822101593018,
		-1.2014700174331666,
		-11.749114036560059],
		"max":[6.040500164031982,
		1.0305579900741578,
		0.009968000464141369]
	},
	{
		"bufferView":1,
		"type":"VEC2",
		"componentType":5126,
		"count":1243,
		"byteOffset":12,
		"min":[0.013454999774694443,
		0.008431999012827874],
		"max":[0.9895679950714111,
		0.9893219470977783]
	}],
	"bufferViews":[{
		"buffer":0,
		"byteOffset":0,
		"byteLength":9228,
		"target":34963
	},
	{
		"buffer":0,
		"byteOffset":9228,
		"byteLength":24860,
		"target":34962,
		"byteStride":20
	}],
	"buffers":[{
		"uri":"data:application/octet-stream;base64,",
		"byteLength":34088
	}],
	"images":[{
		"uri":"data:image/jpeg;base64,"
	}],
	"samplers":[{
		"magFilter":9729,
		"minFilter":9729,
		"wrapS":10497,
		"wrapT":10497
	}],
	"materials":[{
		"pbrMetallicRoughness":{
			"baseColorTexture":{
				"index":0
			},
			"baseColorFactor":[1.0,
			1.0,
			1.0,
			1.0],
			"metallicFactor":1.0,
			"roughnessFactor":1.0
		},
		"emissiveFactor":[0.0,
		0.0,
		0.0],
		"alphaMode":"OPAQUE",
		"doubleSided":false,
		"name":"None"
	}],
	"textures":[{
		"sampler":0,
		"source":0
	}]
}