<?xml version="1.0" encoding="utf-8"?>
<!-- Generator: Adobe Illustrator 23.0.6, SVG Export Plug-In . SVG Version: 6.00 Build 0)  -->
<svg version="1.1" xmlns="http://www.w3.org/2000/svg" xmlns:xlink="http://www.w3.org/1999/xlink" x="0px" y="0px"
	 viewBox="0 0 2530 792" style="enable-background:new 0 0 2530 792;" xml:space="preserve">
<style type="text/css">
	.st0{fill:#FFC221;stroke:#000000;stroke-width:0.9846;stroke-miterlimit:10;}
	.st1{fill:#FFFFFF;}
	.st2{fill:#65E2E0;}
	.st3{fill:#FFFEC4;}
	.st4{fill:#BEEDB4;}
	.st5{fill:none;stroke:#817F47;stroke-width:4;stroke-miterlimit:10;}
	.st6{fill:#817F47;}
	.st7{fill:#8C7552;}
	.st8{fill:#767068;}
	.st9{fill:#020000;}
	.st10{fill:#AA1E2E;stroke:#000000;stroke-miterlimit:10;}
	.st11{fill:#FCC618;}
	.st12{fill:#AA1E2E;}
	.st13{stroke:#000000;stroke-miterlimit:10;}
	.st14{stroke:#000000;stroke-width:2.6191;stroke-miterlimit:10;}
	.st15{fill:#C0094E;}
	.st16{fill:#F7EFE9;}
	.st17{fill:none;stroke:#000000;stroke-width:4.9944;stroke-miterlimit:10;}
	.st18{fill:#65E2E0;stroke:#000000;stroke-width:2;stroke-miterlimit:10;}
	.st19{fill:#F2EEDD;}
	.st20{fill:#ADA59B;}
	.st21{fill:#E6E723;stroke:#000000;stroke-width:2;stroke-miterlimit:10;}
	.st22{stroke:#000000;stroke-width:3;stroke-miterlimit:10;}
</style>
<g id="Layer_5">
	<rect class="st0" width="2530" height="792"/>
</g>
<g id="Layer_4">
	<g>
		<g id="mickey_x5F_back">
			<g>
				<path d="M1252.11,367.27c57.58-26.63,115.84-51.76,174.72-75.36c3.21,4.12,5.95,8.6,8.16,13.33
					c-12.67,2.93-24.84,7.66-36.96,12.39c-10.45,4.07-20.9,8.14-31.36,12.22c-16.46,6.41-32.93,12.83-49.24,19.62
					c-20.48,8.53-40.71,17.67-60.65,27.39c-2.84-2.97-5.98-5.65-9.36-7.98c2.69-1.07,5.38-2.14,8.07-3.2"/>
				<g>
					<path d="M1252.87,368.57c22.41-10.36,44.92-20.5,67.53-30.41c22.64-9.92,45.39-19.61,68.23-29.07
						c12.84-5.32,25.71-10.56,38.61-15.73c-0.49-0.13-0.97-0.26-1.46-0.39c3.12,4.03,5.76,8.42,7.92,13.02
						c0.3-0.73,0.6-1.47,0.9-2.2c-11.91,2.77-23.36,7.1-34.74,11.52c-11.81,4.59-23.61,9.2-35.42,13.8
						c-23.52,9.16-46.98,18.43-70.07,28.64c-12.89,5.7-25.66,11.64-38.33,17.81c0.61,0.08,1.21,0.16,1.82,0.23
						c-2.94-3.06-6.18-5.8-9.67-8.22c-0.12,0.91-0.24,1.83-0.36,2.74c2.69-1.07,5.38-2.14,8.07-3.2c1.77-0.7,1-3.61-0.8-2.89
						c-2.69,1.07-5.38,2.14-8.07,3.2c-1.22,0.49-1.47,1.97-0.36,2.74c3.28,2.28,6.29,4.87,9.06,7.75c0.49,0.51,1.22,0.52,1.82,0.23
						c22.43-10.92,45.21-21.11,68.31-30.54c23.45-9.58,47.13-18.62,70.74-27.82c12.72-4.96,25.47-10,38.8-13.1
						c1.01-0.24,1.29-1.37,0.9-2.2c-2.29-4.86-5.11-9.39-8.39-13.63c-0.29-0.38-1.02-0.56-1.46-0.39
						c-23.03,9.24-45.97,18.71-68.82,28.4c-22.8,9.68-45.5,19.59-68.1,29.73c-12.75,5.72-25.47,11.52-38.16,17.38
						C1249.61,366.79,1251.13,369.37,1252.87,368.57L1252.87,368.57z"/>
				</g>
			</g>
			<g>
				<g>
					<g>
						<path d="M1228.1,462.38c-1.46,1.54-2.93,2.09-4.25,2.67c-1.33,0.54-2.6,0.94-3.66,1.38c-0.29,0.12-0.45,0.19-0.77,0.35
							l-0.91,0.45c-0.61,0.3-1.23,0.58-1.86,0.86c-1.26,0.55-2.55,1.07-3.89,1.5c-2.68,0.86-5.45,1.46-8.43,1.44
							c-2.93-0.01-5.72-0.72-8.34-1.6c-2.61-0.91-5.05-2.06-7.44-3.21l-3.54-1.7l-3.59-1.63c-4.82-2.24-9.43-4.69-14.32-6.18
							c-2.43-0.74-4.93-1.22-7.43-1.22c-2.49-0.01-4.96,0.5-7.28,1.5c-2.32,0.99-4.48,2.4-6.44,4.05c-1.97,1.65-3.66,3.6-5.36,5.62
							c-1.7,2.01-3.46,4.07-5.64,5.68c-2.18,1.6-4.6,2.79-7.16,3.55c-1.28,0.37-2.59,0.64-3.92,0.76c-1.32,0.14-2.68,0.13-3.99-0.17
							c-2.62-0.56-4.91-1.96-7.51-2.48c2.61,0.41,5,1.73,7.57,2.17c1.28,0.23,2.58,0.19,3.87,0.01c1.29-0.17,2.56-0.48,3.79-0.89
							c2.45-0.84,4.77-2.1,6.78-3.7c2.01-1.61,3.63-3.65,5.24-5.72c1.6-2.08,3.29-4.19,5.29-6.01c1.99-1.82,4.22-3.41,6.71-4.59
							c2.47-1.18,5.23-1.88,8.01-1.98c2.77-0.11,5.52,0.32,8.15,1c5.27,1.38,10.1,3.73,14.9,5.72l3.66,1.49l3.64,1.58
							c2.4,1.04,4.78,2.03,7.17,2.77c2.39,0.7,4.81,1.19,7.15,1.1c2.29-0.07,4.72-0.66,7.01-1.51c1.15-0.43,2.29-0.93,3.42-1.48
							c0.56-0.28,1.13-0.56,1.69-0.86l0.84-0.45c0.26-0.14,0.69-0.37,1-0.51c1.35-0.62,2.58-1.06,3.67-1.56
							c1.07-0.47,2.06-1.07,2.38-1.51L1228.1,462.38z"/>
					</g>
					<g>
						<path d="M1144.69,234.58c5.61-5.48,8.94-13.24,9.03-21.08s-3.05-15.68-8.54-21.28c-7.66-7.83-19.35-10.91-30.22-9.61
							c-10.87,1.3-20.97,6.57-29.55,13.37c-5.85,4.63-11.18,10.1-14.68,16.69c-3.5,6.59-5.05,14.41-3.23,21.64
							c1.67,6.62,6.08,12.38,11.68,16.27s12.34,5.98,19.13,6.62c20.19,1.89,40.96-9.93,49.64-28.26"/>
						<g>
							<path d="M1145.75,235.64c6.34-6.27,9.95-15.23,9.42-24.17c-0.53-8.86-4.81-17.37-11.79-22.88c-6.7-5.3-15.29-7.81-23.78-7.77
								c-9.16,0.04-18.09,3.14-25.95,7.7c-15.33,8.9-31.44,25.16-27.96,44.51c1.55,8.59,7.51,15.91,14.93,20.25
								c7.75,4.53,17.14,6.21,26.03,5.44c15.98-1.39,31.12-10.4,39.78-23.94c1.05-1.63,1.98-3.33,2.82-5.08
								c0.83-1.73-1.76-3.26-2.59-1.51c-6.42,13.41-19.18,23.17-33.61,26.51c-15.34,3.55-34.54-0.73-42.22-15.75
								c-3.99-7.8-3.05-17.09,0.79-24.76c3.88-7.73,10.33-13.95,17.26-18.98c13.3-9.66,31.15-15.49,46.83-7.9
								c7.37,3.57,12.97,9.91,15.31,17.79c2.39,8.03,1.03,16.71-3.53,23.72c-1.11,1.71-2.42,3.27-3.87,4.7
								C1142.25,234.88,1144.38,237,1145.75,235.64L1145.75,235.64z"/>
						</g>
					</g>
					<g>
						<path d="M1109.45,331.95c0.77,15.89-3.36,25.02-6.94,31.24c-3.58,6.22-10.53,9.53-17.58,10.85
							c-8.68,1.63-17.28-2.98-24.31-8.32c-9.51-7.23-17.85-16.29-22.88-27.12c-5.04-10.83-6.55-23.55-2.75-34.87
							s13.32-20.9,25-23.43c14.39-3.11,29.66,4.97,37.87,17.18s10.27,20.15,10.61,32.64"/>
						<g>
							<path d="M1107.95,331.95c0.37,8.03-0.42,16.11-3.38,23.64c-0.97,2.47-2.17,4.9-3.55,7.17c-2.14,3.52-5.54,6.02-9.26,7.67
								c-3.86,1.71-8.25,2.75-12.48,2.35c-4.63-0.45-9.02-2.49-12.93-4.91c-7.67-4.74-14.65-11.17-20.16-18.29
								c-11-14.24-16.4-34.73-7.18-51.28c3.85-6.9,10.02-12.72,17.51-15.44c7.58-2.75,15.97-2.03,23.26,1.27
								c7.86,3.56,13.88,9.46,18.45,16.69c4.48,7.1,7.53,14.63,8.35,23.02c0.2,2.09,0.31,4.18,0.37,6.28c0.06,1.93,3.06,1.93,3,0
								c-0.13-4.39-0.47-8.79-1.41-13.08c-0.92-4.18-2.46-8.19-4.42-12c-4.26-8.3-9.92-15.8-17.88-20.84
								c-7.35-4.65-16.18-7-24.84-5.69c-8.53,1.29-16.22,6.34-21.51,13.07c-12.36,15.75-10.17,37.79-0.05,54.09
								c5.07,8.18,11.91,15.11,19.51,20.96c7.82,6.01,17.16,10.84,27.26,8.58c4.27-0.95,8.45-2.65,11.92-5.34
								c3-2.32,5.03-5.31,6.74-8.65c3.46-6.75,5.24-14.11,5.66-21.67c0.14-2.53,0.12-5.07,0.01-7.61
								C1110.86,330.03,1107.86,330.02,1107.95,331.95L1107.95,331.95z"/>
						</g>
					</g>
					<g>
						<path class="st1" d="M1266.49,270.38c-2.68-8.92-7.73-18.33-16.67-20.94c-6.06-1.76-12.42,0.25-17.48,4.17
							c-1.66-1.63-3.39-3.2-5.2-4.67c-23.48-19.05-58.41-22.63-85.28-8.76c-18.25,9.43-32.54,26.41-38.3,46.13
							c-5.75,19.72-2.76,41.91,8.38,59.17c11.14,17.26,30.32,29.2,50.77,31.14c24.7,2.34,45.03-12.45,65.48-26.5
							c12.95-8.9,25.17-14.86,32-29C1267.54,305.92,1271.35,286.55,1266.49,270.38z"/>
						<g>
							<path d="M1252.87,330.45c3.22-12.39,3.08-25.53,0.01-37.87c-3.05-12.34-8.95-23.99-17.3-33.48c-2.09-2.37-4.31-4.62-6.68-6.7
								c-2.37-2.08-4.89-3.98-7.5-5.73c-5.24-3.49-10.94-6.26-16.88-8.35c-11.89-4.11-24.73-5.4-37.13-3.67
								c-6.2,0.84-12.29,2.42-18.05,4.78c-2.88,1.18-5.7,2.49-8.38,4.08c-1.38,0.73-2.66,1.61-3.98,2.43
								c-1.29,0.87-2.57,1.76-3.81,2.69c-4.95,3.77-9.48,8.09-13.37,12.93c-3.87,4.85-7.21,10.13-9.75,15.77
								c-2.52,5.64-4.38,11.57-5.32,17.66c-0.96,6.08-1.11,12.3-0.46,18.42c0.65,6.12,2.09,12.15,4.31,17.86
								c1.11,2.86,2.4,5.64,3.89,8.3c0.73,1.34,1.54,2.63,2.36,3.92c0.84,1.25,1.7,2.47,2.64,3.63c3.72,4.69,8.38,8.62,13.54,11.75
								c5.17,3.13,10.85,5.46,16.75,7.1c5.89,1.64,12.06,2.59,18.15,2.94c6.05,0.31,12.08-0.26,17.96-1.64
								c11.8-2.74,22.81-8.68,33.39-15.49c2.66-1.7,5.29-3.46,7.92-5.26c2.7-1.85,5.45-3.65,8.14-5.37
								c5.38-3.47,10.55-6.87,14.79-10.94c2.13-2.02,4.03-4.21,5.65-6.59c0.81-1.19,1.55-2.43,2.22-3.72
								c0.67-1.28,1.35-2.72,1.96-4.1c2.49-5.6,4.35-11.49,5.59-17.48c1.22-5.99,1.73-12.12,1.24-18.14
								c-0.25-3.01-0.77-5.97-1.54-8.85c-0.8-2.93-1.82-5.79-3.14-8.44c-1.32-2.64-2.93-5.1-4.93-7.06
								c-1.99-1.96-4.37-3.39-6.98-4.07c-2.61-0.68-5.46-0.54-8.19,0.29c-2.74,0.83-5.35,2.31-7.65,4.2
								c-2.3,1.89-4.31,4.18-5.81,6.81c-1.55,2.64-2.73,5.52-3.63,8.52c-1.8,6.02-2.5,12.43-3.16,18.83l-0.9-0.05
								c0.02-6.44,0.11-12.95,1.5-19.43c0.67-3.24,1.71-6.44,3.21-9.47c1.48-3.08,3.58-5.88,6.09-8.26
								c2.51-2.38,5.49-4.32,8.85-5.58c3.34-1.24,7.13-1.73,10.83-1.01c3.68,0.69,7.1,2.54,9.81,4.97c2.73,2.43,4.83,5.34,6.53,8.37
								c1.7,3.04,3,6.21,4.06,9.44c1.07,3.28,1.76,6.67,2.19,10.06c0.83,6.8,0.51,13.64-0.58,20.3c-1.09,6.67-3.02,13.15-5.58,19.39
								c-0.65,1.57-1.3,3.07-2.08,4.66c-0.78,1.59-1.65,3.14-2.6,4.64c-1.92,2.99-4.19,5.75-6.67,8.22
								c-4.99,4.93-10.62,8.69-15.98,12.27c-2.69,1.8-5.34,3.51-7.94,5.31c-2.68,1.84-5.39,3.66-8.15,5.44
								c-5.52,3.54-11.27,6.87-17.34,9.72c-6.08,2.81-12.5,5.15-19.2,6.54c-6.69,1.39-13.6,1.86-20.4,1.33
								c-6.75-0.56-13.33-1.77-19.81-3.69c-6.46-1.94-12.74-4.65-18.52-8.31c-5.76-3.65-11.01-8.27-15.19-13.74
								c-1.06-1.35-2.03-2.78-2.96-4.22c-0.89-1.44-1.76-2.89-2.55-4.39c-1.6-2.98-2.98-6.07-4.14-9.24
								c-2.33-6.33-3.79-12.95-4.38-19.64c-0.6-6.69-0.32-13.45,0.84-20.05c1.14-6.62,3.28-13.04,6.11-19.09
								c2.85-6.05,6.54-11.67,10.78-16.8c4.26-5.12,9.19-9.66,14.55-13.59c1.35-0.97,2.73-1.9,4.13-2.8
								c1.43-0.85,2.82-1.76,4.3-2.52c2.89-1.64,5.94-3,9.03-4.21c6.2-2.4,12.69-3.98,19.26-4.74c13.14-1.53,26.57,0.13,38.91,4.7
								c6.16,2.32,12.05,5.35,17.44,9.11c2.68,1.9,5.27,3.93,7.69,6.16c2.42,2.22,4.67,4.61,6.78,7.12
								c8.44,10.04,14.22,22.15,17.06,34.84c2.82,12.7,2.6,26.08-0.99,38.54L1252.87,330.45z"/>
						</g>
						<g>
							<path class="st1" d="M1232.74,256.03c-3,3-1.67,6.07-2.05,9.6c-1.31,11.97,1.73,23.21,0.43,35.19
								c-0.89,8.12-1.77,16.24-2.66,24.35c-0.22,2.01-0.35,4.3,1.03,5.77c1.36,1.44,3.63,1.49,5.58,1.18
								c6.72-1.06,13.04-2.61,17.61-7.49c3.44-3.67,5.82-10.02,7-15c2.75-11.6-0.71-25.61-3.72-37.14
								c-1.03-3.96-2.21-7.99-4.66-11.26C1248.86,257.95,1239.76,248.78,1232.74,256.03"/>
						</g>
					</g>
					<g>
						<path d="M1245.23,306.6c-4.74,3.74-10.44,6.33-16.42,7.76c-5.98,1.46-12.29,1.72-18.43,0.77c-6.14-0.96-12.07-3.12-17.32-6.33
							c-5.26-3.18-9.9-7.38-13.28-12.39c4.61,3.88,9.53,7.13,14.77,9.64c5.25,2.48,10.78,4.24,16.45,5.13
							c5.67,0.89,11.48,0.89,17.23,0.12C1233.99,310.5,1239.66,308.9,1245.23,306.6z"/>
					</g>
					<g>
						<g>
							<path class="st2" d="M1143.46,270.07c10.18,10.07,20.71,21.29,28.36,34.86c7.66,13.57,11.91,29.64,8.74,44.9
								c-1.29,6.25-3.93,12.42-8.62,16.75c-6.12,5.65-15.14,7.47-23.34,6.02c-8.2-1.45-15.64-5.84-21.98-11.23
								c-15.4-13.08-25.12-32.62-26.27-52.79c-1.15-20.17,6.29-40.69,20.11-55.44c13.81-14.74,27.3-20.3,54.01-23.68
								C1161.48,236.24,1142.82,257.36,1143.46,270.07z"/>
							<g>
								<path d="M1142.86,268.93c0.85-4.25,2.46-8.32,4.37-12.22c1.96-3.88,4.32-7.57,7.01-11.01c2.69-3.44,5.73-6.62,9.03-9.5
									c3.3-2.88,6.84-5.49,10.57-7.81l0.79,2.31c-7.05,1.03-14.05,2.34-20.8,4.39c-3.38,1-6.67,2.26-9.88,3.64
									c-3.21,1.4-6.26,3.1-9.19,4.97c-5.84,3.78-10.98,8.59-15.41,13.95c-2.2,2.7-4.19,5.55-6.01,8.52
									c-1.75,3-3.39,6.08-4.72,9.29c-5.39,12.81-7.28,27.11-4.9,40.76c0.59,3.42,1.46,6.77,2.5,10.08
									c1.12,3.28,2.38,6.51,3.9,9.63c1.54,3.1,3.2,6.16,5.17,9.01c0.46,0.73,0.96,1.44,1.49,2.13c0.52,0.69,1.01,1.41,1.55,2.09
									c1.1,1.34,2.16,2.71,3.35,3.97c4.62,5.15,10.01,9.7,15.97,13c5.94,3.3,12.64,5.23,19.28,4.56c3.3-0.3,6.54-1.21,9.42-2.75
									c2.89-1.52,5.35-3.71,7.27-6.4c3.87-5.4,5.6-12.36,6.11-19.22c0.47-6.91-0.4-13.93-2.31-20.69
									c-1.92-6.76-4.85-13.24-8.43-19.35c-7.2-12.26-16.93-22.93-26.7-33.39c5.22,4.91,10.39,9.89,15.24,15.21
									c4.87,5.29,9.4,10.93,13.33,17.03c3.94,6.08,7.17,12.68,9.4,19.64c2.21,6.96,3.42,14.34,3.07,21.75
									c-0.18,3.7-0.69,7.39-1.68,11.01c-0.99,3.61-2.48,7.16-4.66,10.36c-2.15,3.2-5.15,5.97-8.58,7.83
									c-3.42,1.89-7.2,3-11.03,3.4c-3.82,0.43-7.73,0.15-11.44-0.74c-3.72-0.86-7.26-2.3-10.57-4.07
									c-6.61-3.6-12.33-8.44-17.31-13.91c-9.96-10.94-16.78-24.74-19.19-39.37c-2.48-14.63-0.41-29.91,5.56-43.4
									c5.9-13.52,15.73-25.37,28.32-33.14c3.15-1.91,6.43-3.62,9.82-5.01c3.4-1.38,6.86-2.57,10.39-3.48
									c7.04-1.88,14.21-2.97,21.37-3.78l6.08-0.69l-5.29,3c-3.71,2.1-7.25,4.49-10.57,7.16c-3.33,2.66-6.39,5.67-9.21,8.89
									c-2.8,3.23-5.3,6.74-7.42,10.48C1145.79,260.8,1143.96,264.74,1142.86,268.93z"/>
							</g>
						</g>
						<g>
							<path class="st3" d="M1177.93,229.69c12.81-5.13,27.47-1.28,39.91,4.66c6.87,3.28,14.43,8.67,18.55,15.08
								c-4.52,3.97-15.4,15.44-15.13,24.69c-4.59-0.75-8.76-3.34-11.84-6.84c-0.17-0.19-0.47-0.01-0.37,0.23
								c4.68,11.67,1.55,26.14-7.69,34.7c-9.63,8.92-25.14,10.74-36.57,4.3c-6.12-3.45-10.87-8.83-15.5-14.1
								c-2.71-3.09-6.75-10.21-6.75-10.21s-0.79-8.92,0.32-13.27c4-15.65,14.97-29.38,29.36-36.73c14.38-7.36,17.94-6.2,28.29-2.73"
								/>
							<path class="st4" d="M1145.94,272.59c1.13,1.41,20.46,23,23.67,28.13c1.82,2.91,3.76,5.94,5.25,8.98
								c-12.63,0-29.55-21.52-31.28-24.9c-0.55-1.08-1.59-3.03-1.69-4.18"/>
							<path class="st5" d="M1232.12,253.4c-4.82-5.94-15.12-10.63-22.05-13.72c-7.49-3.34-15.62-6.02-23.72-7.22
								c-4.48-0.66-14.98-0.31-14.98-0.31"/>
							<g>
								<path d="M1177.86,229.5c5.14-2.12,10.8-2.82,16.33-2.45c5.55,0.37,10.99,1.71,16.21,3.56c5.21,1.88,10.3,4.17,15.01,7.16
									c2.36,1.49,4.63,3.12,6.73,4.98c2.11,1.84,4.05,3.92,5.65,6.3l0.47,0.69l-0.72,0.48c-4.09,2.77-7.65,6.35-10.46,10.4
									c-2.79,4.04-4.84,8.67-5.29,13.48l-0.12,1.21l-1.2-0.21c-2.21-0.38-4.16-1.2-6.04-2.09c-0.94-0.45-1.86-0.94-2.76-1.44
									c-0.91-0.51-1.78-1.03-2.68-1.61l1.92-1.18c0.52,4.63,0.49,9.18-0.01,13.77c-0.53,4.56-1.55,9.15-3.56,13.41
									c-1,2.13-2.25,4.17-3.78,6.01c-1.54,1.84-3.34,3.43-5.31,4.77c-3.95,2.69-8.55,4.26-13.22,4.88
									c-4.68,0.63-9.46,0.29-14.02-0.88c-2.28-0.59-4.52-1.4-6.65-2.43c-2.2-1.04-4.18-2.43-6-3.9c-3.63-2.99-6.76-6.4-9.64-9.96
									c-2.87-3.59-5.51-7.27-7.96-11.21l-0.29-0.46l-0.01-0.55c-0.03-2.51,0.2-4.8,0.55-7.16c0.36-2.34,0.85-4.65,1.51-6.93
									c0.65-2.28,1.46-4.52,2.46-6.69c0.98-2.13,1.96-4.15,3-6.21c2.08-4.1,4.33-8.23,7.28-11.98c1.49-1.86,3.13-3.61,4.93-5.18
									c1.82-1.53,3.73-2.95,5.73-4.18c7.91-4.98,17.08-7.92,26.31-8.67c4.62-0.38,9.28-0.16,13.83,0.59
									c4.55,0.74,9,2.02,13.19,3.86l-0.15,0.37c-4.3-1.47-8.74-2.44-13.22-2.89c-4.48-0.44-8.99-0.37-13.43,0.17
									c-4.44,0.57-8.8,1.65-12.95,3.22c-2.09,0.76-4.1,1.71-6.07,2.72c-0.99,0.49-1.95,1.07-2.93,1.6
									c-0.94,0.58-1.91,1.14-2.81,1.76c-1.85,1.21-3.56,2.58-5.18,4.03c-1.58,1.49-3.03,3.1-4.35,4.82
									c-2.62,3.48-4.67,7.43-6.62,11.49c-0.95,2.03-1.97,4.11-2.87,6.13c-0.9,1.97-1.62,4.04-2.2,6.14
									c-0.58,2.1-1.03,4.25-1.34,6.42c-0.16,1.08-0.28,2.17-0.36,3.26c-0.09,1.07-0.16,2.21-0.15,3.19l-0.29-1.01
									c2.26,3.71,4.82,7.39,7.54,10.84c2.73,3.45,5.65,6.76,8.92,9.54c1.65,1.37,3.35,2.62,5.21,3.53c1.89,0.96,3.9,1.72,5.95,2.3
									c4.11,1.13,8.46,1.53,12.71,1.03c4.24-0.48,8.39-1.84,11.92-4.18c1.76-1.16,3.38-2.56,4.75-4.14
									c1.37-1.6,2.51-3.4,3.45-5.33c1.89-3.85,2.93-8.15,3.5-12.49c0.54-4.34,0.63-8.83,0.21-13.14l-0.26-2.66l2.18,1.47
									c0.79,0.54,1.65,1.07,2.5,1.56c0.85,0.5,1.72,0.98,2.6,1.41c1.75,0.87,3.57,1.64,5.36,1.98l-1.31,1.01
									c0.6-5.31,2.89-10.2,5.9-14.41c3.04-4.21,6.83-7.85,11.18-10.67l-0.25,1.18c-1.44-2.23-3.24-4.25-5.25-6.06
									c-2-1.83-4.18-3.46-6.45-4.96c-4.55-3-9.52-5.36-14.63-7.33c-5.11-1.94-10.45-3.36-15.9-3.84
									c-5.44-0.47-11.01,0.09-16.13,2.09L1177.86,229.5z"/>
							</g>
							<g>
								<path d="M1173.62,311.02c-1.44-3.65-3.34-7.17-5.41-10.59c-2.08-3.42-4.37-6.73-6.78-9.95c-2.41-3.23-4.94-6.37-7.56-9.44
									c-1.31-1.53-2.65-3.05-4.02-4.53c-0.68-0.74-1.37-1.48-2.08-2.2c-0.72-0.7-1.39-1.49-2.2-2.06
									c0.85,0.53,1.57,1.27,2.33,1.93c0.75,0.68,1.48,1.38,2.22,2.08c1.46,1.4,2.89,2.83,4.3,4.29c2.82,2.91,5.56,5.91,8.18,9.01
									c2.62,3.1,5.14,6.3,7.49,9.66c2.34,3.36,4.51,6.85,6.28,10.63L1173.62,311.02z"/>
							</g>
							<g>
								<path class="st6" d="M1201.25,247.46c2.41,2.05,4.82,3.74,7.38,5.05c1.28,0.65,2.58,1.22,3.91,1.68
									c0.67,0.22,1.33,0.44,2.01,0.61c0.7,0.18,1.32,0.35,1.78,0.35c0.22,0.01,0.4-0.01,0.47-0.03c0.07-0.03,0.05-0.01,0.05,0
									c0.01,0,0.01,0.06,0.03-0.01c0.02-0.06,0.03-0.22,0-0.44c-0.05-0.44-0.28-1-0.56-1.57c-0.35-0.64-0.7-1.28-1.07-1.92
									c-1.47-2.55-3.16-5-5-7.58c2.9,1.29,5.43,3.33,7.54,5.73c0.53,0.6,1.03,1.23,1.5,1.88c0.53,0.73,0.99,1.55,1.28,2.61
									c0.14,0.53,0.22,1.14,0.13,1.84c-0.08,0.69-0.4,1.47-0.9,2.05c-0.49,0.6-1.21,1-1.86,1.2c-0.66,0.2-1.26,0.23-1.8,0.22
									c-1.08-0.06-1.94-0.33-2.71-0.56c-0.79-0.26-1.57-0.55-2.32-0.89c-1.51-0.69-2.92-1.55-4.2-2.57
									C1204.36,253.1,1202.29,250.46,1201.25,247.46z"/>
							</g>
							<g>
								<path class="st6" d="M1172.41,257.37c4.71,2.75,9.26,5.46,13.93,7.9c2.33,1.23,4.67,2.4,7.03,3.53
									c1.12,0.52,2.21,0.97,3.2,1.17c1,0.22,1.79,0.16,2.27-0.1c0.49-0.23,0.92-0.72,1.18-1.52c0.28-0.77,0.28-1.69,0.11-2.77
									c-0.16-1.06-0.57-2.26-0.97-3.47c-0.42-1.2-0.87-2.39-1.38-3.57c-2.02-4.71-4.8-9.15-8.18-13.43
									c4.76,2.7,8.74,6.82,11.66,11.61c0.73,1.2,1.39,2.45,1.98,3.73c0.58,1.27,1.14,2.59,1.52,4.15
									c0.19,0.77,0.31,1.61,0.32,2.48c0.02,0.88-0.09,1.81-0.35,2.7c-0.27,0.89-0.68,1.77-1.3,2.58c-0.6,0.81-1.47,1.53-2.4,1.99
									c-0.95,0.47-1.99,0.68-2.94,0.71c-0.96,0.03-1.84-0.09-2.65-0.29c-1.61-0.42-3-1.06-4.26-1.76
									c-2.39-1.34-4.72-2.8-6.94-4.41C1179.83,265.39,1175.76,261.68,1172.41,257.37z"/>
							</g>
							<rect x="1170.74" y="229.6" width="3.21" height="2.05"/>
						</g>
					</g>
				</g>
				<g>
					<path d="M1246.1,255.38c2.33-6,4.96-12.87,4.51-19.29c-0.45-6.42-2.84-12.8-7.29-17.45c-2.05-2.14-4.58-3.92-7.47-4.54
						s-6.16,0.06-8.19,2.21c-2.98,3.15-2.44,8.38-0.23,12.11c2.21,3.73,5.73,6.46,8.72,9.61
						C1240.78,242.91,1244.23,248.92,1246.1,255.38"/>
					<g>
						<path d="M1247.55,255.78c2.79-7.2,5.4-14.5,4.27-22.33c-1-6.93-4.32-13.85-10-18.13c-2.72-2.05-6.07-3.28-9.5-2.84
							c-3.24,0.42-6.12,2.32-7.42,5.37c-2.81,6.6,1.76,12.97,6.27,17.39c2.93,2.88,5.83,5.68,8.13,9.12
							c2.36,3.52,4.14,7.35,5.34,11.41c0.54,1.85,3.44,1.06,2.89-0.8c-1.86-6.32-5.09-12.17-9.49-17.08
							c-3.99-4.46-10.23-8.4-10.91-14.86c-0.28-2.66,0.56-5.4,3-6.77c2.67-1.5,5.93-0.95,8.48,0.52c5.52,3.18,8.76,9.58,9.98,15.63
							c1.6,7.89-1.14,15.3-3.96,22.56C1243.96,256.78,1246.86,257.57,1247.55,255.78L1247.55,255.78z"/>
					</g>
				</g>
			</g>
			<g>
				<path d="M1276.73,304.43c-23.08,19.46-46.15,38.92-69.23,58.39c-1.91,1.61-3.94,3.43-4.35,5.88c-0.71,4.23,3.53,7.44,7.02,9.94
					c20.91,14.96,31.76,42.76,26.51,67.94c18.98-12.37,38.89-23.32,59.5-32.72c-11.29-26.8-34.77-48.19-62.52-56.93
					c19.35-12.64,38.21-26.03,56.51-40.15c-4.85-4.86-9.7-9.73-14.55-14.59"/>
				<g>
					<path d="M1275.67,303.37c-22.19,18.71-44.38,37.43-66.57,56.14c-2.27,1.91-4.97,3.77-6.49,6.38c-1.36,2.35-1.32,5.1-0.03,7.47
						c1.29,2.38,3.51,4.13,5.64,5.71c2.17,1.61,4.32,3.2,6.33,5.01c7.97,7.19,14.06,16.4,17.75,26.47
						c4.16,11.34,5.36,23.75,2.92,35.62c-0.25,1.2,1.03,2.46,2.2,1.69c14.8-9.64,30.15-18.42,45.96-26.27
						c4.48-2.22,8.99-4.37,13.54-6.45c0.8-0.37,0.83-1.37,0.54-2.05c-8.95-21.14-25.35-38.93-45.46-49.94
						c-5.72-3.13-11.74-5.7-17.95-7.67c0.12,0.91,0.24,1.83,0.36,2.74c15.05-9.83,29.8-20.12,44.22-30.85
						c4.12-3.07,8.21-6.17,12.28-9.3c0.75-0.58,1.06-1.6,0.3-2.36c-4.85-4.86-9.7-9.73-14.55-14.59c-1.36-1.37-3.49,0.75-2.12,2.12
						c4.85,4.86,9.7,9.73,14.55,14.59c0.1-0.79,0.2-1.57,0.3-2.36c-14.24,10.98-28.8,21.52-43.68,31.61
						c-4.25,2.88-8.53,5.73-12.83,8.54c-1.09,0.71-0.9,2.34,0.36,2.74c21.39,6.78,40.21,21.11,52.7,39.73
						c3.49,5.2,6.48,10.73,8.92,16.5c0.18-0.68,0.36-1.37,0.54-2.05c-16.06,7.34-31.7,15.59-46.8,24.74
						c-4.28,2.59-8.51,5.25-12.7,7.98c0.73,0.56,1.47,1.13,2.2,1.69c4.33-21.08-2.09-43.69-16.28-59.78
						c-3.52-3.99-7.52-7.35-11.81-10.49c-2-1.47-4.44-3.27-5.25-5.73c-0.91-2.78,1.27-4.94,3.19-6.61
						c10.71-9.29,21.69-18.3,32.53-27.44c12.43-10.48,24.85-20.96,37.28-31.44C1279.27,304.24,1277.14,302.13,1275.67,303.37
						L1275.67,303.37z"/>
				</g>
			</g>
			<g>
				<path class="st7" d="M1474.11,279.55c2.89-0.83,5.85-1.4,8.83-1.71c0.37-0.04,0.76-0.07,1.09,0.11c0.36,0.2,0.55,0.6,0.71,0.98
					c2.57,6.21,2.78,12.09-0.93,17.69c-2.23-0.92-5.49-0.04-7.86-0.5c0.23-6,0.35-12.43-2.89-17.48"/>
				<g>
					<path d="M1474.51,281c2.41-0.68,4.87-1.22,7.36-1.53c0.4-0.05,1.13-0.29,1.51-0.16c-0.28-0.09-0.06,0.05,0.01,0.25
						c0.09,0.25,0.2,0.49,0.29,0.74c0.41,1.08,0.75,2.19,1.01,3.32c0.99,4.32,0.25,8.54-2.17,12.26c0.56-0.23,1.13-0.46,1.69-0.69
						c-2.56-0.97-5.25-0.05-7.86-0.5c0.37,0.48,0.73,0.96,1.1,1.45c0.23-6.19,0.31-12.8-3.09-18.24c-1.02-1.63-3.62-0.13-2.59,1.51
						c3.11,4.98,2.9,11.08,2.68,16.73c-0.02,0.6,0.48,1.34,1.1,1.45c2.57,0.44,5.4-0.44,7.86,0.5c0.64,0.24,1.35-0.17,1.69-0.69
						c3.04-4.68,3.7-10.16,2.23-15.51c-0.36-1.32-0.78-2.71-1.41-3.93c-0.66-1.28-1.79-1.72-3.17-1.58
						c-3.06,0.31-6.09,0.91-9.05,1.74C1471.86,278.63,1472.65,281.53,1474.51,281L1474.51,281z"/>
				</g>
			</g>
			<g>
				<g>
					<path class="st1" d="M1420.85,301.15c-4.67-9.47-0.86-21.79,7.42-28.35s19.96-7.8,30.11-4.87c6.28,1.81,12.35,5.31,15.77,10.88
						c5.04,8.2,3.03,19.58-3.45,26.7s-16.56,10.27-26.18,9.82c-6.49-0.3-13.09-2.2-18.05-6.4c-4.95-4.21-7.98-10.97-6.71-17.34"/>
				</g>
				<g>
					<path class="st1" d="M1423.33,308.25c1.23,6.76,6.89,12.49,13.64,13.81c6.75,1.31,14.15-1.88,17.82-7.69
						c-10.95,3.15-23.46,0.1-31.73-7.74"/>
				</g>
			</g>
			<g>
				<g>
					<g>
						<path d="M1422.14,300.39c-4.51-9.37-0.22-21.27,7.97-27.12c9.28-6.62,22.4-6.88,32.58-2.17c4.9,2.27,9.41,5.89,11.46,11.02
							c1.99,4.96,1.63,10.61-0.31,15.53c-4.19,10.64-15.74,15.96-26.63,16.21c-6.63,0.16-13.71-1.32-19.05-5.47
							c-4.88-3.8-8.13-10.16-6.96-16.4c0.35-1.89-2.54-2.7-2.89-0.8c-1.17,6.27,1.12,12.61,5.43,17.21
							c4.62,4.93,11.28,7.39,17.87,8.19c12.26,1.48,26.29-2.88,33.01-13.84c3.14-5.12,4.48-11.33,3.54-17.27
							c-0.96-6.04-4.63-11.06-9.6-14.5c-10.32-7.13-25.34-8.12-36.49-2.42c-11.76,6.01-18.48,20.98-12.53,33.33
							C1420.39,303.64,1422.98,302.12,1422.14,300.39L1422.14,300.39z"/>
					</g>
				</g>
				<g>
					<g>
						<path d="M1421.88,308.65c1.4,7.23,7.41,13.44,14.69,14.85c7.49,1.46,15.37-2,19.52-8.38c0.72-1.11-0.47-2.55-1.69-2.2
							c-10.52,2.95-22.28,0.12-30.27-7.35c-1.41-1.32-3.54,0.8-2.12,2.12c8.77,8.2,21.63,11.37,33.19,8.12
							c-0.56-0.73-1.13-1.47-1.69-2.2c-3.44,5.29-10.26,8.29-16.48,6.93c-6.19-1.36-11.05-6.51-12.25-12.69
							C1424.41,305.96,1421.52,306.76,1421.88,308.65L1421.88,308.65z"/>
					</g>
				</g>
			</g>
			<g>
				<path d="M1441.47,315.19c2.99-2.96,5.71-6.19,7.64-9.81c0.98-1.8,1.79-3.67,2.31-5.6c0.56-1.92,0.86-3.88,0.85-5.84
					c0.01-0.98-0.11-1.95-0.24-2.91c-0.18-0.95-0.39-1.89-0.71-2.78c-0.59-1.8-1.38-3.48-2.35-5.05c-0.95-1.57-2.25-2.99-3.73-4.37
					c-1.48-1.38-3.15-2.7-4.73-4.21l0.19-0.35c2.12,0.51,4.17,1.21,6.15,2.26c1.96,1.04,3.89,2.44,5.36,4.34
					c1.48,1.87,2.48,4.09,2.93,6.38c0.45,2.29,0.54,4.6,0.31,6.85c-0.19,2.25-0.72,4.47-1.53,6.55c-0.81,2.07-1.9,4-3.13,5.8
					c-2.53,3.56-5.66,6.56-9.08,9.06L1441.47,315.19z"/>
			</g>
			<g>
				<path d="M1461.4,311.11c1.98-3.11,3.67-6.36,4.91-9.77c0.64-1.69,1.19-3.42,1.59-5.14c0.41-1.72,0.66-3.44,0.62-5.1
					c-0.05-3.36-1.85-6.12-3.54-9.16c-0.88-1.51-1.81-3.1-2.73-4.56c-0.95-1.46-1.97-2.82-3.45-4l0.14-0.37
					c1.99,0.13,3.89,1.22,5.39,2.49c1.54,1.29,2.78,2.69,3.98,4.24c1.17,1.55,2.17,3.33,2.76,5.32c0.59,1.98,0.79,4.13,0.64,6.15
					c-0.31,4.08-1.87,7.64-3.57,10.98c-1.78,3.33-3.9,6.45-6.42,9.2L1461.4,311.11z"/>
			</g>
			<g>
				<path class="st7" d="M1428.93,310c3.85,0.04,7.47-2.44,9.31-5.82c1.84-3.38,2.03-7.5,1.07-11.22s-3-7.1-5.39-10.11
					c-1.99-2.5-4.33-4.86-7.28-6.1c-0.7-0.29-1.45-0.53-2.2-0.43c-0.78,0.1-1.48,0.55-2.1,1.04c-3.79,2.98-5.87,7.81-6.12,12.63
					c-0.25,4.82,1.18,9.61,3.4,13.89c1.16,2.23,2.58,4.41,4.65,5.84c2.07,1.43,4.89,1.97,7.13,0.82"/>
				<g>
					<path d="M1428.93,311.5c6.84-0.07,11.68-5.93,12.36-12.39c0.74-7.06-3.04-13.76-7.6-18.86c-2.08-2.32-5.1-5.06-8.35-5.4
						c-3.17-0.33-5.84,2.8-7.43,5.18c-3.97,5.93-3.9,13.58-1.55,20.11c2.25,6.26,7.79,15.48,15.8,11.71
						c1.75-0.82,0.22-3.41-1.51-2.59c-2.39,1.13-5.1-0.13-6.82-1.86c-1.95-1.96-3.26-4.66-4.26-7.2c-2.04-5.16-2.72-11.07-0.4-16.26
						c0.96-2.14,2.69-4.92,4.92-5.93c1.23-0.55,2.71,0.42,3.73,1.07c1.19,0.75,2.24,1.7,3.2,2.72c3.67,3.86,6.95,9,7.32,14.44
						c0.39,5.75-2.98,12.22-9.41,12.28C1427,308.52,1426.99,311.52,1428.93,311.5L1428.93,311.5z"/>
				</g>
			</g>
			<g>
				<path class="st8" d="M1263.45,482.69c-5.77,1.19-11.67,2.39-17.5,1.57c-5.83-0.83-11.67-4.09-13.94-9.52
					c-2.29-5.5-0.4-12.1,3.49-16.61c3.89-4.51,9.45-7.25,15.09-9.19c18.97-6.53,39.6-5.19,59.66-4.56
					c10.05,0.32,21.26,0.91,28.2,8.19c4.07,4.27,5.96,10.51,4.95,16.32c-1.01,5.81-3.24,7.4-8.52,10.03
					c-6.65,3.32-15.95,2.26-23.36,2.96c-19.8,1.88-39.16-0.39-58.66,0.03"/>
				<g>
					<path d="M1263.05,481.25c-8.43,1.74-18.48,3.7-25.83-2.16c-3.08-2.46-4.83-6.01-4.69-9.97c0.14-4.05,2.08-7.94,4.85-10.83
						c6.03-6.27,15.33-8.91,23.59-10.63c9.38-1.96,19-2.38,28.56-2.33c9.09,0.05,18.26,0.21,27.33,0.86
						c7.41,0.53,15.54,1.98,20.79,7.73c2.73,2.99,4.33,7.02,4.5,11.06c0.12,3-0.35,6.75-2.47,9.06c-2.07,2.25-5.47,3.82-8.35,4.66
						c-3.99,1.17-8.21,1.25-12.34,1.36c-4.48,0.11-8.92,0.52-13.39,0.78c-5.07,0.29-10.14,0.35-15.22,0.29
						c-9.99-0.11-19.98-0.67-29.97-0.75c-2.52-0.02-5.03-0.01-7.55,0.04c-1.93,0.04-1.93,3.04,0,3c10.88-0.22,21.76,0.37,32.63,0.62
						c5.39,0.12,10.78,0.16,16.16-0.03c5.04-0.18,10.06-0.76,15.1-0.9c4.5-0.12,9.06-0.12,13.49-1.05c3.66-0.77,7.39-2.45,10.33-4.8
						c6.03-4.8,5.44-14.73,2.3-20.96c-3.94-7.82-12.25-11.32-20.5-12.52c-4.18-0.61-8.39-0.78-12.61-0.91
						c-5.19-0.17-10.39-0.37-15.58-0.48c-10.23-0.2-20.52,0.01-30.64,1.74c-9.19,1.57-19.28,4.22-26.54,10.39
						c-6.48,5.51-10.25,15.56-5.1,23.22c5.3,7.89,15.49,9.02,24.14,7.83c2.61-0.36,5.2-0.89,7.78-1.42
						C1265.74,483.75,1264.94,480.85,1263.05,481.25L1263.05,481.25z"/>
				</g>
			</g>
			<g>
				<path d="M1423.54,284.59c1.91,0.71,3.6,2.01,4.94,3.61c1.34,1.6,2.35,3.51,2.88,5.56c0.53,2.05,0.57,4.21,0.17,6.26
					c-0.4,2.04-1.26,4-2.59,5.54c0.59-1.94,0.95-3.84,1.04-5.74c0.09-1.9-0.1-3.77-0.56-5.57c-0.47-1.8-1.21-3.53-2.2-5.15
					C1426.23,287.49,1425,286,1423.54,284.59z"/>
			</g>
			<g>
				<path d="M1410.15,289.71c-4.48,0.77-8.95,1.54-13.43,2.3c2.18,6.74,1.54,14.14-0.52,20.91c-2.07,6.77-5.5,13.04-8.93,19.23
					c3.67-0.87,7.35-1.74,11.02-2.61c0.78-0.18,1.6-0.39,2.17-0.95c0.41-0.4,0.64-0.94,0.86-1.46c5.26-12.33,9.71-25.01,13.31-37.92
					c-4.87,0.63-9.73,1.26-14.6,1.9"/>
				<g>
					<path d="M1409.75,288.26c-4.48,0.77-8.95,1.54-13.43,2.3c-0.78,0.13-1.27,1.13-1.05,1.85c4.32,13.73-2.8,27.27-9.3,38.99
						c-0.65,1.17,0.42,2.51,1.69,2.2c2.56-0.61,5.11-1.21,7.67-1.82c1.96-0.47,4.68-0.64,6.19-2.14c0.62-0.62,0.95-1.41,1.29-2.21
						c0.49-1.15,0.97-2.3,1.44-3.45c0.91-2.21,1.8-4.44,2.66-6.67c3.5-9.09,6.55-18.34,9.17-27.72c0.23-0.84-0.46-2.03-1.45-1.9
						c-4.87,0.63-9.73,1.26-14.6,1.9c-0.81,0.11-1.49,0.61-1.5,1.5c-0.01,0.73,0.7,1.6,1.5,1.5c4.87-0.63,9.73-1.26,14.6-1.9
						c-0.48-0.63-0.96-1.27-1.45-1.9c-2.45,8.76-5.27,17.42-8.49,25.93c-0.79,2.09-1.6,4.17-2.44,6.24c-0.8,1.99-1.5,4.13-2.52,6.02
						c-0.49,0.9-1.42,1-2.34,1.21c-1.12,0.27-2.24,0.53-3.35,0.8c-2.4,0.57-4.79,1.14-7.19,1.71c0.56,0.73,1.13,1.47,1.69,2.2
						c6.9-12.44,14.18-26.76,9.61-41.3c-0.35,0.62-0.7,1.23-1.05,1.85c4.48-0.77,8.95-1.54,13.43-2.3
						C1412.45,290.83,1411.64,287.94,1409.75,288.26L1409.75,288.26z"/>
				</g>
			</g>
			<g>
				<path class="st2" d="M1415.08,295.05c-4.74,12.26-8.1,25.05-9.99,38.06c-7.83,2.68-15.73,5.15-23.69,7.4
					c-5.23-8.62-10.46-17.25-15.68-25.87c-0.69-1.15-1.4-2.33-1.58-3.66c-0.14-1.08,0.08-2.18,0.3-3.25
					c0.5-2.41,1.01-4.82,1.51-7.23c3.4,0.1,6.82-0.29,10.12-1.16c0.46,4.19,1.35,8.34,2.66,12.35c1.89,5.79,5.26,11.83,11.09,13.6
					c1.33,0.4,2.76,0.56,4.12,0.24c3.45-0.81,5.5-4.31,6.84-7.58c3.5-8.55,4.95-17.92,4.21-27.13c6.52-1.36,13.05-2.72,19.57-4.08
					c0.5-0.1,1.04-0.2,1.49,0.04c0.36,0.2,0.58,0.57,0.78,0.94c2.45,4.62,3.62,8.72,3.21,13.93c-6.86-0.85-10.89-0.78-17.1-0.77"/>
				<path d="M1415.08,295.05c-2.12,6.23-3.93,12.54-5.4,18.92c-1.49,6.38-2.62,12.83-3.43,19.31l-0.09,0.68l-0.69,0.25
					c-3.9,1.42-7.81,2.81-11.75,4.1c-3.94,1.3-7.9,2.54-11.88,3.73l-1.14,0.34l-0.66-1.05c-4-6.34-7.91-12.73-11.86-19.09
					l-2.96-4.78l-1.49-2.41c-0.51-0.85-1.06-1.84-1.36-3.07c-0.33-1.27-0.21-2.56-0.04-3.57c0.19-1.03,0.38-1.88,0.57-2.82l1.13-5.5
					l0.33-1.6l1.64,0.04c3.22,0.09,6.45-0.29,9.55-1.12l2.22-0.59l0.26,2.3c0.34,2.94,0.88,5.85,1.62,8.72
					c0.76,2.87,1.66,5.67,2.98,8.19c1.3,2.51,3.01,4.78,5.19,6.21c1.07,0.71,2.3,1.22,3.5,1.44c1.21,0.22,2.28,0.11,3.26-0.39
					c0.99-0.49,1.89-1.39,2.65-2.49c0.77-1.09,1.39-2.37,1.95-3.71c1.13-2.74,2.07-5.56,2.76-8.45c1.42-5.76,1.97-11.76,1.59-17.71
					l-0.08-1.29l1.23-0.24c6.1-1.19,12.21-2.3,18.31-3.45l1.15-0.21c0.37-0.06,0.82-0.18,1.44-0.14c0.31,0.03,0.67,0.11,0.99,0.3
					c0.32,0.19,0.56,0.44,0.73,0.67c0.34,0.48,0.46,0.82,0.64,1.17c0.69,1.43,1.31,2.91,1.79,4.45c0.98,3.07,1.26,6.35,0.91,9.51
					l-0.07,0.65l-0.61-0.1c-2.81-0.44-5.63-0.78-8.47-0.97c-2.84-0.21-5.7-0.29-8.55-0.4c2.85-0.11,5.71-0.26,8.58-0.26
					c2.87,0.01,5.74,0.16,8.6,0.42l-0.68,0.56c0.16-3.04-0.26-6.05-1.33-8.86c-0.52-1.41-1.17-2.77-1.91-4.1
					c-0.18-0.33-0.38-0.7-0.5-0.85c-0.16-0.16-0.09-0.1-0.25-0.13c-0.16-0.01-0.47,0.06-0.86,0.15l-1.14,0.26
					c-6.06,1.39-12.1,2.81-18.17,4.15l1.15-1.54c0.57,6.24,0.23,12.58-1.15,18.72c-0.68,3.07-1.62,6.09-2.77,9.02
					c-0.59,1.49-1.28,3-2.24,4.43c-0.95,1.42-2.21,2.83-3.95,3.75c-0.86,0.45-1.82,0.78-2.8,0.91c-0.98,0.13-1.94,0.09-2.85-0.07
					c-1.82-0.32-3.46-1.02-4.95-1.98c-2.97-1.95-5.02-4.76-6.55-7.63c-1.53-2.9-2.53-5.96-3.35-8.99c-0.82-3.05-1.4-6.16-1.73-9.3
					l2.48,1.7c-3.48,0.91-7.09,1.31-10.68,1.19l1.97-1.55l-1.17,5.5c-0.19,0.9-0.41,1.88-0.56,2.69c-0.14,0.82-0.18,1.44-0.03,2
					c0.14,0.6,0.48,1.28,0.92,2.04l1.42,2.4l2.87,4.83c3.82,6.45,7.67,12.87,11.44,19.34l-1.79-0.71c3.98-1.06,7.95-2.18,11.91-3.35
					c3.95-1.18,7.91-2.36,11.84-3.62l-0.77,0.93c1.07-6.53,2.57-12.98,4.42-19.32C1410.22,307.29,1412.46,301.08,1415.08,295.05z"/>
			</g>
			<g>
				<path class="st7" d="M1357.38,277.74c3.17,0.29,5.9,2.47,7.77,5.05c2.84,3.93,4.06,8.81,4.62,13.63
					c0.36,3.12,0.46,6.32-0.38,9.34c-1.14,4.07-4.04,7.61-7.8,9.52c-3.76,1.91-8.33,2.17-12.29,0.69
					c8.26-10.89,10.84-25.86,6.7-38.88"/>
				<g>
					<path d="M1357.38,279.24c3.35,0.39,5.91,3.16,7.52,5.91c1.81,3.1,2.72,6.65,3.23,10.18c0.54,3.77,0.79,7.84-0.66,11.45
						c-1.15,2.86-3.31,5.32-5.98,6.86c-3.6,2.07-7.92,2.28-11.79,0.9c0.3,0.73,0.6,1.47,0.9,2.2c8.47-11.28,11.06-26.58,6.85-40.04
						c-0.57-1.84-3.47-1.05-2.89,0.8c3.99,12.78,1.48,27.03-6.55,37.73c-0.63,0.83,0.08,1.91,0.9,2.2
						c7.87,2.81,16.89-0.66,20.7-8.13c2.04-4,2.17-8.49,1.67-12.87c-0.5-4.3-1.45-8.6-3.57-12.41c-2.2-3.95-5.69-7.23-10.32-7.77
						C1355.47,276.02,1355.48,279.02,1357.38,279.24L1357.38,279.24z"/>
				</g>
			</g>
			<g>
				<g>
					<g>
						<path d="M1348.36,294.02c1.93,0,1.93-3,0-3C1346.43,291.02,1346.42,294.02,1348.36,294.02L1348.36,294.02z"/>
					</g>
				</g>
				<g>
					<g>
						<path class="st1" d="M1288.93,283.47c-1.87,12.94,2.99,26.74,12.79,35.39c9.8,8.65,24.32,11.72,36.67,7.44
							c12.35-4.28,21.94-15.88,23.45-28.86c1.46-12.48-4.58-25.45-14.84-32.71c-10.26-7.26-24.26-8.69-35.93-4.04
							s-20.76,15.11-24.15,27.21"/>
						<g>
							<path class="st1" d="M1324.17,328.03c-1.06,3.68,1.09,7.83,4.48,9.61s7.64,1.41,11.02-0.38s5.94-4.87,7.76-8.23
								s2.97-7.04,4.1-10.7c-6.77,6.79-16.5,10.52-26.07,9.98"/>
						</g>
						<g>
							<path class="st1" d="M1289.1,286.54c-3.9,0.09-7.48,2.57-9.6,5.85c-2.11,3.28-2.91,7.25-3.04,11.15
								c-0.17,5.29,1,10.91,4.63,14.76s10.17,5.22,14.34,1.96c3.2-2.5,4.26-6.86,4.54-10.91c0.31-4.56-0.12-9.24-1.87-13.46
								s-4.9-7.97-9.06-9.87"/>
						</g>
					</g>
					<g>
						<g>
							<path d="M1289.18,283.2c-0.41,9.51,2.39,18.83,7.71,26.1c1.33,1.81,2.75,3.54,4.38,5.05c1.6,1.53,3.32,2.91,5.17,4.08
								c3.7,2.34,7.8,4.04,12.05,4.9c4.25,0.86,8.62,0.95,12.81,0.29c4.2-0.68,8.15-2.21,11.66-4.52c7.05-4.53,12.39-11.95,14-20.03
								c1.79-8-0.3-16.85-5.09-23.78c-2.36-3.5-5.39-6.53-8.95-8.79c-3.58-2.25-7.62-3.86-11.87-4.74c-2.13-0.44-4.3-0.64-6.49-0.71
								c-2.19-0.06-4.37,0.17-6.55,0.46c-4.34,0.66-8.58,2.16-12.48,4.41c-7.83,4.38-14.28,11.75-17.03,20.88l-0.49-0.09
								c0.92-4.72,2.88-9.23,5.69-13.14c1.38-1.97,2.97-3.79,4.72-5.44c1.74-1.65,3.62-3.18,5.65-4.47
								c4.02-2.63,8.54-4.52,13.26-5.5c4.72-0.98,9.6-1.07,14.36-0.31c2.37,0.41,4.72,0.99,6.99,1.8c2.26,0.84,4.45,1.87,6.52,3.1
								c4.14,2.49,7.72,5.88,10.51,9.82c5.59,7.84,8.15,18,6.13,27.53c-2.03,9.5-8.2,17.91-16.41,22.99
								c-4.1,2.55-8.75,4.22-13.54,4.86c-4.78,0.66-9.68,0.35-14.35-0.8c-4.67-1.16-9.14-3.17-13.06-5.97
								c-1.97-1.39-3.77-3.01-5.42-4.76c-1.67-1.73-3.11-3.68-4.41-5.7c-5.15-8.12-7.36-18.07-5.98-27.59L1289.18,283.2z"/>
						</g>
						<g>
							<g>
								<path d="M1321.72,327.32c-0.97,3.7,0.5,7.67,3.42,10.11c3.26,2.72,7.89,3.16,11.84,1.85c9-2.98,12.44-12.65,14.99-20.86
									c0.45-1.46-1.47-2.49-2.51-1.46c-6.59,6.54-15.75,10.01-25.01,9.54c-1.93-0.1-1.92,2.9,0,3
									c10.02,0.5,20.01-3.36,27.13-10.42c-0.84-0.49-1.67-0.97-2.51-1.46c-2.1,6.76-4.58,14.65-11.35,18.12
									c-3.02,1.55-6.98,1.83-9.92-0.06c-2.46-1.59-3.94-4.68-3.19-7.57C1325.1,326.25,1322.21,325.45,1321.72,327.32
									L1321.72,327.32z"/>
							</g>
						</g>
						<g>
							<g>
								<path d="M1288.1,284.73c-4.52,0.2-8.46,2.85-10.89,6.59c-2.58,3.98-3.37,8.99-3.25,13.66c0.12,4.41,1.16,9.01,3.85,12.59
									c2.52,3.37,6.38,5.54,10.62,5.7c5.07,0.19,8.86-2.96,10.71-7.5c0.73-1.79-2.17-2.57-2.89-0.8c-1.3,3.19-3.97,5.32-7.48,5.3
									c-3.26-0.02-6.37-1.68-8.37-4.22c-2.23-2.84-3.18-6.55-3.4-10.1c-0.23-3.78,0.15-7.84,1.78-11.3
									c1.73-3.67,5.11-6.74,9.31-6.92C1290.02,287.64,1290.03,284.64,1288.1,284.73L1288.1,284.73z"/>
							</g>
						</g>
					</g>
				</g>
				<g>
					<path class="st7" d="M1301.74,285.53c-4.3-1.52-8.6-3.04-12.9-4.56c-0.63-0.22-1.27-0.45-1.94-0.45
						c-0.75-0.01-1.47,0.26-2.14,0.58c-5.12,2.49-7.74,8.65-7.31,14.33c0.42,5.68,3.37,10.89,6.94,15.33
						c4.51-0.76,9.01-1.52,13.52-2.28c0.79-0.13,1.61-0.27,2.3-0.68c0.7-0.41,1.23-1.07,1.71-1.72c1.41-1.88,2.68-3.9,3.41-6.13
						c1.65-5,0.3-10.86-3.37-14.64"/>
					<g>
						<path d="M1302.14,284.08c-4.15-1.47-8.29-2.94-12.44-4.4c-1.95-0.69-3.56-0.87-5.49,0.02c-1.42,0.66-2.73,1.63-3.81,2.76
							c-4.67,4.88-5.42,12.21-3.36,18.42c1.35,4.04,3.65,7.63,6.29,10.93c0.35,0.43,0.97,0.47,1.46,0.39
							c4.34-0.73,8.69-1.46,13.03-2.19c1.84-0.31,3.39-0.77,4.65-2.22c1.21-1.4,2.28-3.02,3.12-4.66c3.2-6.21,2.25-13.77-2.57-18.88
							c-1.33-1.41-3.45,0.72-2.12,2.12c4.15,4.39,4.63,10.86,1.68,16.02c-0.74,1.29-1.62,2.91-2.79,3.87
							c-1.18,0.96-3.26,0.94-4.7,1.18c-3.7,0.62-7.4,1.25-11.1,1.87c0.49,0.13,0.97,0.26,1.46,0.39c-4.71-5.89-8.58-13.9-5.35-21.4
							c0.68-1.57,1.65-3.02,2.9-4.19c1.21-1.14,2.95-2.39,4.67-1.94c2.28,0.59,4.53,1.59,6.75,2.37c2.3,0.81,4.61,1.63,6.91,2.44
							C1303.17,287.62,1303.95,284.72,1302.14,284.08L1302.14,284.08z"/>
					</g>
				</g>
				<g>
					<path d="M1295.03,280.79c3.62-0.46,7.48,1.01,10.38,3.53c2.92,2.53,5.02,6.21,5.48,10.26c0.48,4.05-0.73,8.12-3,11.24
						c-2.25,3.12-5.68,5.43-9.31,5.8c2.77-2.3,4.68-4.95,5.92-7.79c1.23-2.83,1.75-5.84,1.42-8.68c-0.33-2.84-1.51-5.66-3.36-8.14
						C1300.71,284.54,1298.25,282.4,1295.03,280.79z"/>
				</g>
				<g>
					<path d="M1308.35,321.99c4.43-2.73,8.09-6.48,10.58-10.84c1.27-2.15,2.27-4.45,2.96-6.81c0.72-2.35,1.13-4.77,1.21-7.17
						c0.08-2.4-0.28-4.8-0.89-7.1c-0.6-2.3-1.32-4.54-2.13-6.77c-1.63-4.5-4-8.73-7.15-13.14l0.36-0.48
						c5.29,1.82,9.59,6.11,12.27,11.15c1.34,2.54,2.2,5.34,2.51,8.2c0.3,2.86,0.2,5.74-0.17,8.56c-0.38,2.82-1.15,5.55-2.24,8.12
						c-1.12,2.56-2.55,4.95-4.23,7.13c-3.42,4.29-7.82,7.76-12.79,9.68L1308.35,321.99z"/>
				</g>
				<g>
					<path d="M1332.44,324.69c3.91-3.6,7.05-7.91,9.12-12.65c1.06-2.35,1.88-4.79,2.42-7.27c0.57-2.47,0.88-4.99,0.9-7.49
						c0.03-2.5-0.33-4.99-0.91-7.39c-0.57-2.41-1.22-4.76-1.92-7.13c-1.41-4.77-3.47-9.33-6.05-14.23l0.42-0.43
						c5.03,2.63,8.85,7.3,11.23,12.53c1.19,2.63,1.93,5.47,2.18,8.35c0.24,2.88,0.14,5.77-0.17,8.61c-0.32,2.84-0.95,5.62-1.86,8.29
						c-0.94,2.66-2.16,5.2-3.61,7.57c-2.96,4.7-6.82,8.8-11.4,11.71L1332.44,324.69z"/>
				</g>
				<g>
					<path class="st9" d="M1286.15,281.17c4.32,1.86,6.92,6.57,7.3,11.26s-1.15,9.33-3.18,13.57c-0.98,2.03-2.62,4.31-4.85,4.04
						c-1.09-0.13-2-0.87-2.74-1.67c-1.91-2.07-3.05-4.73-3.85-7.43c-1.11-3.75-1.6-7.8-0.55-11.57c1.05-3.77,3.87-7.19,7.64-8.2"/>
				</g>
			</g>
			<g>
				<g>
					<path class="st10" d="M1221.61,441.4c-6.11,7.25-2.14,24.46,5.27,33c7.41,8.55,18.78,13.05,30.08,13.65
						c11.3,0.6,22.54-2.41,32.91-6.93c14.03-6.13,27.19-15.5,34.74-28.82c7.55-13.32,8.86-34.77-1.53-46.22
						c-23.32-5.65-54.43,14.57-54.43,14.57S1235.55,446.58,1221.61,441.4z"/>
				</g>
				<g>
					<g>
						<path d="M1333.48,410.68c-4.75-2.53-9.88-4.15-15.13-4.55c-5.23-0.5-10.5-0.05-15.62,1.04c-10.3,2.09-19.75,6.93-28.78,12.52
							c-4.55,2.74-9.01,5.71-13.55,8.61c-4.57,2.85-9.15,5.74-13.99,8.22c-4.79,2.54-9.94,4.73-15.38,5.72
							c-2.72,0.46-5.51,0.65-8.25,0.3c-2.73-0.34-5.4-1.22-7.67-2.68c5,2.14,10.48,1.89,15.48,0.47c2.52-0.69,4.97-1.64,7.34-2.78
							c2.37-1.13,4.67-2.39,6.95-3.76c4.55-2.74,9.01-5.65,13.44-8.67c4.45-2.98,8.92-5.99,13.53-8.85
							c4.65-2.79,9.41-5.47,14.48-7.62c5.08-2.12,10.37-3.77,15.84-4.55c2.72-0.44,5.48-0.64,8.23-0.66
							c1.38,0.06,2.75,0.03,4.13,0.2c0.69,0.07,1.37,0.12,2.05,0.21l2.04,0.34C1324.03,405.17,1329.21,407.41,1333.48,410.68z"/>
					</g>
					<g>
						<path d="M1221.8,441.48c-0.76,1.85-1.36,3.76-1.7,5.73c-0.3,1.97-0.48,3.96-0.36,5.95c0.11,1.98,0.36,3.96,0.86,5.88
							c0.2,0.97,0.55,1.91,0.84,2.85c0.36,0.92,0.68,1.86,1.12,2.75c3.25,7.26,9.37,12.91,16.45,16.3
							c7.09,3.46,15.07,4.88,22.92,4.5c7.88-0.36,15.64-2.38,23-5.29c7.36-2.95,14.43-6.69,20.73-11.38
							c3.17-2.31,6.15-4.88,8.87-7.67c2.73-2.78,5.21-5.79,7.32-9.05c4.27-6.44,6.86-14,7.49-21.78c0.59-7.75-0.85-15.84-5.05-22.72
							l0.33-0.23c2.6,3.14,4.48,6.88,5.76,10.8c1.24,3.95,1.82,8.11,1.78,12.27c-0.06,8.33-2.52,16.65-6.92,23.8
							c-2.19,3.57-4.8,6.86-7.73,9.82c-2.93,2.96-6.15,5.6-9.53,7.97c-6.81,4.69-14.23,8.32-21.9,11.15
							c-7.68,2.82-15.79,4.73-24.05,4.89c-8.23,0.2-16.58-1.5-23.91-5.31c-1.83-0.96-3.57-2.07-5.24-3.28
							c-1.64-1.25-3.22-2.58-4.65-4.07c-2.86-2.97-5.2-6.46-6.75-10.25c-0.43-0.93-0.72-1.92-1.07-2.88
							c-0.26-0.99-0.59-1.96-0.77-2.97c-0.46-2-0.65-4.04-0.69-6.08c-0.06-2.04,0.19-4.08,0.57-6.08c0.41-2,1.09-3.93,1.92-5.78
							L1221.8,441.48z"/>
					</g>
				</g>
				<g>
					<path class="st11" d="M1291.42,424.07c0.61-0.93,1.99-1.08,3-0.6c1,0.48,1.69,1.43,2.26,2.38c2.54,4.25,3.52,9.33,3.32,14.28
						s-1.54,9.8-3.36,14.41c-0.9,2.28-2.05,4.67-4.18,5.89c-2.92,1.67-6.86,0.48-9.11-2.02c-2.25-2.5-3.1-5.97-3.32-9.33
						c-0.37-5.56,0.77-11.18,3.07-16.25c1.95-4.29,4.98-8.41,9.39-10.08c0.33-0.12,0.88-0.08,0.83,0.27"/>
					<path d="M1291.21,423.93c0.63-1.01,1.97-1.26,3.03-0.95c1.11,0.34,1.91,1.18,2.52,2.01c1.19,1.69,2.11,3.54,2.8,5.48
						c1.38,3.89,1.8,8.1,1.49,12.21c-0.34,4.12-1.37,8.15-2.73,12c-0.68,1.91-1.45,4.01-3.11,5.86c-0.83,0.91-1.93,1.7-3.19,2.15
						c-1.25,0.46-2.57,0.55-3.83,0.42c-2.51-0.27-4.8-1.45-6.56-3.28c-1.69-1.78-2.77-3.98-3.41-6.15c-0.64-2.2-0.86-4.39-0.88-6.54
						c-0.01-2.16,0.23-4.31,0.67-6.41c0.95-4.19,2.56-8.14,5.04-11.64c1.23-1.75,2.73-3.34,4.48-4.6c0.88-0.62,1.81-1.16,2.81-1.55
						c0.5-0.19,0.99-0.37,1.51-0.49l0.38-0.09c0.1-0.03,0.34-0.07,0.49-0.06c0.17,0.01,0.33,0.04,0.52,0.13
						c0.18,0.06,0.4,0.39,0.32,0.61l-0.5-0.07c-0.04-0.03,0,0.06-0.06,0.04c-0.05,0-0.14,0.02-0.22,0.04
						c-0.1,0.04-0.11,0.05-0.23,0.13l-0.31,0.2c-0.41,0.25-0.8,0.54-1.17,0.83c-0.74,0.59-1.42,1.25-2.02,1.97
						c-1.22,1.41-2.18,3.02-2.99,4.7c-0.78,1.69-1.46,3.45-1.96,5.27c-0.53,1.8-0.95,3.62-1.17,5.46c-0.27,1.83-0.38,3.67-0.39,5.5
						c0.01,1.84,0.11,3.65,0.47,5.32c0.34,1.68,0.96,3.22,1.93,4.44c0.91,1.12,2.33,2.01,3.78,2.26c1.47,0.26,2.78-0.07,3.88-1.13
						c1.11-1.06,1.94-2.72,2.69-4.51c1.52-3.58,2.72-7.29,3.28-11.11c0.59-3.8,0.53-7.73-0.47-11.47c-0.49-1.86-1.23-3.69-2.21-5.35
						c-0.48-0.8-1.09-1.54-1.89-1.87c-0.79-0.32-1.84-0.21-2.36,0.48L1291.21,423.93z"/>
				</g>
				<g>
					<path class="st11" d="M1318.09,420.26c0.55-0.83,1.79-0.97,2.69-0.54s1.52,1.28,2.03,2.14c2.28,3.82,3.16,8.38,2.98,12.82
						c-0.18,4.45-1.39,8.8-3.02,12.94c-0.81,2.05-1.84,4.19-3.76,5.29c-2.62,1.5-6.16,0.43-8.19-1.81s-2.78-5.37-2.98-8.38
						c-0.33-4.99,0.69-10.04,2.76-14.6c1.75-3.86,4.48-7.56,8.44-9.05c0.3-0.11,0.79-0.07,0.74,0.24"/>
					<path d="M1317.9,420.13c0.57-0.91,1.77-1.14,2.72-0.85c1,0.3,1.71,1.06,2.27,1.81c1.07,1.52,1.89,3.18,2.51,4.92
						c1.24,3.49,1.61,7.27,1.33,10.97c-0.3,3.7-1.23,7.32-2.45,10.78c-0.61,1.71-1.3,3.6-2.8,5.27c-0.75,0.82-1.74,1.53-2.86,1.93
						c-1.12,0.41-2.31,0.5-3.44,0.38c-2.26-0.25-4.31-1.3-5.89-2.95c-1.52-1.6-2.49-3.57-3.06-5.52c-0.58-1.97-0.77-3.94-0.79-5.87
						c-0.01-1.94,0.2-3.87,0.6-5.75c0.85-3.76,2.3-7.31,4.53-10.46c1.1-1.57,2.45-3,4.02-4.13c0.79-0.55,1.63-1.04,2.52-1.39
						c0.45-0.17,0.89-0.33,1.35-0.44l0.34-0.08c0.09-0.03,0.31-0.07,0.44-0.05c0.15,0.01,0.3,0.03,0.46,0.12
						c0.16,0.05,0.36,0.35,0.28,0.55l-0.44-0.06c-0.04-0.02,0,0.05-0.05,0.04c-0.04,0-0.13,0.01-0.2,0.04
						c-0.11,0.04-0.29,0.18-0.48,0.3c-0.37,0.22-0.72,0.48-1.05,0.75c-0.67,0.53-1.28,1.12-1.81,1.77c-1.1,1.27-1.96,2.71-2.68,4.22
						c-0.7,1.52-1.31,3.1-1.76,4.73c-0.48,1.61-0.85,3.25-1.05,4.9c-0.25,1.64-0.34,3.3-0.35,4.94c0.01,1.65,0.1,3.28,0.42,4.78
						c0.3,1.51,0.86,2.89,1.73,3.98c0.82,1.01,2.09,1.8,3.39,2.03c1.32,0.23,2.5-0.07,3.48-1.02c1-0.95,1.74-2.45,2.41-4.05
						c1.36-3.22,2.44-6.55,2.94-9.98c0.53-3.41,0.48-6.94-0.42-10.3c-0.44-1.67-1.11-3.31-1.98-4.8c-0.43-0.72-0.98-1.38-1.7-1.68
						c-0.71-0.29-1.66-0.19-2.12,0.43L1317.9,420.13z"/>
				</g>
			</g>
			<g>
				<path class="st12" d="M1330.05,436.76c4.98-1.81,10.03-3.39,15.15-4.76c-2.45,2.96-3.57,6.8-4.25,10.58
					c-1.43,7.92-1.24,16.12,0.56,23.96c-8.44-1.69-16.93-3.12-25.46-4.28c1.81-0.96,2.62-3.04,3.97-4.57
					c6.31-7.16,7.79-14.36,10.34-22.01"/>
				<g>
					<path d="M1330.45,438.21c4.98-1.8,10.03-3.39,15.15-4.76c-0.49-0.84-0.97-1.67-1.46-2.51c-3.75,4.66-4.81,10.76-5.36,16.56
						c-0.62,6.5-0.14,13.07,1.29,19.44c0.62-0.62,1.23-1.23,1.85-1.85c-8.44-1.68-16.93-3.11-25.46-4.28
						c0.12,0.91,0.24,1.83,0.36,2.74c2.16-1.26,3.32-3.66,4.89-5.53c1.84-2.2,3.43-4.58,4.72-7.14c2.38-4.72,3.73-9.83,5.39-14.82
						c0.61-1.84-2.29-2.62-2.89-0.8c-1.53,4.61-2.76,9.36-4.91,13.74c-1.14,2.32-2.51,4.53-4.14,6.53c-0.8,0.99-1.62,1.93-2.34,2.98
						c-0.64,0.93-1.24,1.85-2.24,2.43c-1.01,0.59-0.98,2.56,0.36,2.74c8.53,1.17,17.02,2.6,25.46,4.28
						c1.14,0.23,2.11-0.68,1.85-1.85c-1.31-5.81-1.74-11.77-1.27-17.7c0.41-5.18,1.2-11.2,4.57-15.39c0.89-1.11,0.1-2.92-1.46-2.51
						c-5.12,1.37-10.17,2.96-15.15,4.76C1327.85,435.97,1328.62,438.87,1330.45,438.21L1330.45,438.21z"/>
				</g>
			</g>
			<g>
				<path d="M1244.05,459.46c2.96-1.06,5.87-2.22,8.69-3.57c2.83-1.31,5.58-2.77,8.24-4.38c2.67-1.6,5.08-3.55,7.73-5.14
					c2.65-1.61,5.27-3.26,8.16-4.73l0.2,0.22c-1.81,2.71-4.13,4.96-6.64,6.96c-2.5,2.02-5.45,3.38-8.31,4.79
					c-2.87,1.39-5.82,2.61-8.82,3.66c-3.02,1-6.07,1.87-9.17,2.47L1244.05,459.46z"/>
			</g>
			<g>
				<path class="st12" d="M1276.72,441.51c-6.28,4.96-9.34,13.08-10.22,21.04c-0.36,3.33-0.39,6.75,0.53,9.97s2.87,6.24,5.76,7.93
					c3.17-1.17,5.32-4.13,6.85-7.15c2.6-5.13,3.96-10.93,3.56-16.66c-0.41-5.73-2.64-11.38-6.53-15.61"/>
				<g>
					<path d="M1275.66,440.45c-4.65,3.75-7.63,9.13-9.26,14.81c-1.72,5.98-2.63,13.2-0.31,19.13c1.08,2.77,2.83,5.25,5.31,6.95
						c0.75,0.51,1.27,0.73,2.15,0.43c0.58-0.2,1.15-0.51,1.67-0.84c1.27-0.8,2.36-1.85,3.29-3.02c3.97-4.99,6.02-11.87,6.25-18.17
						c0.27-7.21-2.17-14.39-7.02-19.76c-1.3-1.43-3.42,0.69-2.12,2.12c4.75,5.25,6.7,12.42,6.03,19.4
						c-0.36,3.68-1.46,7.34-3.09,10.66c-1.35,2.74-3.18,5.68-6.15,6.86c0.39,0.05,0.77,0.1,1.16,0.15
						c-6.52-3.97-6.36-12.89-5.12-19.49c1.23-6.55,4.06-12.85,9.35-17.1C1279.28,441.36,1277.15,439.25,1275.66,440.45
						L1275.66,440.45z"/>
				</g>
			</g>
			<g>
				<polygon points="1263.9,452.82 1249.28,449.76 1264.21,449.83 				"/>
			</g>
			<g>
				<path class="st13" d="M1330.34,435.51c0.09-0.32,2.27-0.26,3.43-0.26c0.74,5.67-7.07,27.79-8.36,27.81
					c-2.58,0.03-6.04-1.72-8.55-1.15c2.38-0.96,4.43-4.77,5.7-6.72c1.78-2.75,3.31-5.56,4.57-8.57c0.99-2.36,2.14-4.69,3.02-7.09
					c0.33-0.89,1.51-3.31,1.11-4.15"/>
			</g>
			<g id="mickey_x5F_back_x5F_leg">
				<g>
					<path d="M1341.1,446.6c5.69-0.81,10.33-1.11,16.08-1.2c1.73-0.03,3.56,0,5.03,0.91c2.06,1.26,2.85,3.86,3.05,6.26
						c0.36,4.31-0.63,8.61-1.61,12.83c-2.1,9.01-4.2,18.02-6.31,27.03c-2.87-3.91-10.59-2.43-10.59-2.43s2.42-24.89,4.9-31.54
						c-3.89-0.04-7.13,0.56-11.02,0.51c-0.52-3.9-0.57-8.44-0.28-12.37"/>
					<g>
						<path d="M1341.5,448.05c4.25-0.6,8.52-0.94,12.81-1.08c1.94-0.06,4.16-0.35,6.06,0.17c1.69,0.47,2.59,1.85,3.04,3.47
							c1.14,4.1,0.09,8.7-0.82,12.74c-1.02,4.5-2.09,8.98-3.14,13.47c-1.18,5.07-2.37,10.14-3.55,15.21
							c0.84-0.22,1.67-0.44,2.51-0.66c-2.68-3.44-8.11-3.55-12.05-2.82c0.63,0.48,1.27,0.96,1.9,1.45
							c0.8-8.23,1.74-16.49,3.25-24.62c0.41-2.19,0.83-4.43,1.6-6.52c0.34-0.93-0.54-1.89-1.45-1.9c-3.68-0.02-7.34,0.53-11.02,0.51
							c0.5,0.5,1,1,1.5,1.5c-0.52-4.1-0.57-8.25-0.28-12.37c0.14-1.93-2.86-1.92-3,0c-0.29,4.12-0.25,8.27,0.28,12.37
							c0.1,0.81,0.6,1.5,1.5,1.5c3.68,0.02,7.34-0.53,11.02-0.51c-0.48-0.63-0.96-1.27-1.45-1.9c-1.58,4.29-2.09,9.08-2.74,13.58
							c-0.73,5.04-1.34,10.1-1.88,15.16c-0.11,1.07-0.23,2.14-0.33,3.21c-0.1,1.05,1.04,1.61,1.9,1.45c0.54-0.1,0.33-0.07,0.85-0.12
							c0.9-0.08,1.8-0.13,2.7-0.09c2.08,0.08,4.24,0.54,5.57,2.25c0.7,0.9,2.27,0.35,2.51-0.66c2.32-9.95,4.79-19.87,6.95-29.86
							c0.94-4.34,1.86-9.35,0.4-13.68c-0.6-1.78-1.67-3.44-3.34-4.38c-1.86-1.04-4.03-1.04-6.11-1.01
							c-5.36,0.1-10.68,0.5-15.99,1.25C1338.8,445.42,1339.61,448.32,1341.5,448.05L1341.5,448.05z"/>
					</g>
				</g>
				<g>
					<g>
						<g>
							<path class="st11" d="M1359.3,500.32c0.7-5.27,2.05-10.97,4.43-15.78c6.08-12.25,14.77-26.07,29.87-27.01
								c7.3-0.45,12.76,5.94,13.09,12.73"/>
							<g>
								<path class="st11" d="M1368.88,485.94c7.09-9.66,19.29-17.15,31.53-17.15c2.82,0,6.32,0.01,8.62,1.84
									c2.75,2.19,4.54,6.02,5.34,9.36c2.7,11.21-9.13,18.97-16.72,24.82c-3.74,2.89-8.14,4.87-12.41,6.84
									c-2.93,1.35-6.48,3.6-9.76,3.93c-3.63,0.36-7.99-0.56-11.57-1.2c-2.78-0.49-6.65-0.76-9.15-1.69
									c2.35-2.08,4.54-3.79,6.53-6.26c2.7-3.35,5.07-6.72,7.49-10.24c4.72-6.86,10.17-13.92,17.72-17.81
									c8.23-4.24,28.88-7.81,27,7.06c-0.19,1.5-0.62,3.2-1.18,4.57c-0.4,0.98-2.6,3.98-2.51,4.23"/>
							</g>
							<g>
								<path class="st11" d="M1362.62,486.12c-5.19-1.75-12.53,1.76-17.16,4.06c-5.03,2.5-11.17,5.99-12.67,11.94
									c-0.84,3.31,0.88,5.65,3.09,7.97"/>
							</g>
							<path class="st11" d="M1353.21,500.32c-6.39,1.49-12.89,5.79-17.61,10.42c-1.95,1.91-4.11,4.68-3.43,7.56
								c0.71,3.01,3.56,4.15,5.37,5.26"/>
							<path class="st11" d="M1344.18,514.33c-2.57,2.06-4.38,5.12-5.51,8.2c-1.41,3.83-1.38,6.84,3.11,7.94
								c15.74,3.87,32.56-3.01,32.56-7.32"/>
							<g>
								<path class="st11" d="M1352.07,521.14c-4.65,0.78-6.01,1.56-7.65,2.42c-2.32,1.21-4.69,2.47-6.03,4.77"/>
							</g>
						</g>
						<g>
							<path class="st11" d="M1380.98,495.62c-2.78-2.02-4.89-6.57-7.35-9.16c-0.97-1.03-2.48-3.19-4.02-3.32
								c-1.11-0.1-3.92,1.49-5.06,1.89c-7.37,2.57-15.39,5.57-21.29,10.83c-4.08,3.64-6.12,10.36-6.07,15.74
								c0.07,6.94,6.06,11.3,12.33,13.39c8.39,2.8,14.39,0.58,22.15-3.21c-2.71-6.13-1.68-4.54-0.41-10.01
								c1.46-6.25,10.53-19.71,14.78-24.58c-5.09-2.53-12.46-2.1-18.05-2.87"/>
							<g>
								<path class="st11" d="M1381.64,494.49c-2.89-2.19-4.38-5.89-6.74-8.57c-1.1-1.24-2.17-2.71-3.63-3.55
									c-1.33-0.77-2.59-0.52-3.94,0.02c-1.44,0.58-2.81,1.27-4.28,1.79c-1.89,0.66-3.77,1.35-5.62,2.09
									c-3.78,1.51-7.51,3.22-10.92,5.48c-3.18,2.1-5.99,4.54-7.78,7.96c-1.64,3.14-2.56,6.65-2.8,10.17
									c-0.24,3.49,0.57,6.76,2.74,9.55c2.07,2.66,4.99,4.57,8.07,5.89c4.03,1.73,8.4,2.62,12.77,2.06
									c4.54-0.58,8.74-2.48,12.82-4.47c0.69-0.33,0.74-1.19,0.47-1.79c-0.85-1.93-1.86-3.67-1.24-5.64c0.66-2.12,1.12-4.31,2-6.36
									c2.22-5.2,5.4-10.07,8.62-14.69c1.51-2.16,3.06-4.31,4.79-6.3c0.51-0.59,0.55-1.67-0.27-2.06
									c-5.81-2.79-12.47-2.22-18.71-3.05c-1.67-0.22-1.65,2.4,0,2.62c5.72,0.76,12.06,0.13,17.39,2.69
									c-0.09-0.69-0.18-1.37-0.27-2.06c-3.67,4.24-6.83,9-9.72,13.79c-1.51,2.5-2.94,5.06-4.11,7.74
									c-0.98,2.27-1.52,4.64-2.26,6.99c-0.87,2.78,0.39,5.13,1.51,7.66c0.16-0.6,0.31-1.19,0.47-1.79
									c-3.31,1.61-6.7,3.17-10.33,3.91c-3.63,0.73-7.3,0.34-10.8-0.83c-5.55-1.85-11.34-5.86-11.37-12.3
									c-0.01-3.2,0.68-6.49,2-9.41c1.44-3.17,3.64-5.46,6.47-7.44c3.04-2.13,6.38-3.81,9.79-5.24c3.1-1.3,6.38-2.21,9.43-3.6
									c0.93-0.42,2.57-1.58,3.61-1.2c0.77,0.28,1.43,1.18,1.96,1.78c0.54,0.61,1.1,1.21,1.62,1.84c2.35,2.85,3.93,6.31,6.93,8.58
									C1381.66,497.77,1382.97,495.5,1381.64,494.49L1381.64,494.49z"/>
							</g>
						</g>
					</g>
					<g>
						<g>
							<path d="M1359.12,500.13c0.31-3.29,0.83-6.57,1.7-9.79c0.43-1.61,0.94-3.2,1.57-4.76c0.63-1.57,1.35-3.05,2.06-4.55
								c2.93-5.93,6.34-11.79,11.13-16.68c2.39-2.44,5.14-4.61,8.27-6.22c3.14-1.61,6.63-2.5,10.23-2.54
								c1.9,0.01,3.79,0.48,5.47,1.3c1.67,0.85,3.13,2.03,4.26,3.44c2.28,2.79,3.39,6.39,3.03,9.76l-0.35,0.02
								c-0.68-3.21-2.3-6.05-4.51-8.07c-2.22-2.02-5.05-3.1-7.84-2.93c-2.98,0.22-6.02,0.9-8.84,2.11c-2.84,1.19-5.46,2.99-7.8,5.13
								c-4.69,4.31-8.33,9.81-11.52,15.49c-0.8,1.42-1.62,2.86-2.32,4.31c-0.7,1.46-1.3,2.97-1.83,4.51
								c-1.05,3.09-1.81,6.29-2.38,9.52L1359.12,500.13z"/>
						</g>
						<g>
							<path d="M1414.72,485.52c-0.21,2.14-0.91,4.28-2,6.19c-1.07,1.92-2.42,3.67-3.87,5.29c-2.9,3.26-6.24,6.06-9.48,8.74
								c-1.62,1.42-3.51,2.78-5.38,3.92c-1.89,1.14-3.83,2.15-5.73,3.12c-1.86,0.96-3.92,1.95-5.86,2.8
								c-1.97,0.85-3.94,1.65-5.93,2.46l-0.65,0.26l-0.81-0.12c-3.15-0.47-6.29-0.96-9.43-1.47c-1.57-0.27-3.14-0.56-4.72-0.87
								l-2.39-0.49c-0.41-0.09-0.8-0.17-1.24-0.28l-0.65-0.16l-0.8-0.25l-3.81-1.18l2.33-3.43c1.14-1.68,2.26-3.16,3.4-4.67
								c1.14-1.5,2.27-2.98,3.44-4.43l3.42-4.36c0.55-0.72,1.11-1.45,1.6-2.14l1.64-2.3c2.22-3.09,4.65-6.13,7.46-8.9
								c2.8-2.76,5.96-5.32,9.61-7.13c1.85-0.94,3.76-1.6,5.66-2.14c1.91-0.53,3.83-0.94,5.79-1.2c1.95-0.27,3.94-0.36,5.95-0.26
								c2,0.11,4.04,0.4,6.03,1.15c1.98,0.71,3.93,2.07,5.1,4c1.19,1.93,1.44,4.15,1.27,6.13c-0.18,2-0.71,3.87-1.47,5.66
								c-0.1,0.23-0.19,0.44-0.31,0.67c-0.14,0.26-0.27,0.45-0.41,0.65c-0.28,0.4-0.57,0.77-0.86,1.14l-0.86,1.1l-0.42,0.55
								l-0.2,0.28l-0.09,0.14c-0.03,0.02-0.04,0.14-0.05,0.03l-0.33,0.11c-0.02-0.22,0.03-0.22,0.05-0.3l0.08-0.17l0.18-0.31
								l0.37-0.6l0.76-1.17c0.5-0.8,1.03-1.53,1.29-2.42c0.6-1.74,0.99-3.57,1.04-5.4c0.05-1.82-0.32-3.7-1.36-5.19
								c-1.03-1.5-2.66-2.49-4.39-3.05c-3.52-1.1-7.33-0.88-10.95-0.28c-3.63,0.65-7.24,1.7-10.49,3.44
								c-3.26,1.74-6.14,4.13-8.71,6.78c-2.58,2.66-4.84,5.61-6.99,8.64c-4.17,6.19-9.12,11.82-13.41,17.85l-0.16-0.49
								c1.45,0.45,3.04,0.76,4.57,1.08l4.66,0.91c3.11,0.58,6.23,1.14,9.35,1.68l-0.15,0.01c3.96-1.51,7.93-2.99,11.74-4.81
								c3.84-1.77,7.64-3.66,10.95-6.29c3.38-2.56,6.81-5.05,9.83-8.01c2.98-2.92,5.68-6.42,6.47-10.58L1414.72,485.52z"/>
						</g>
						<g>
							<path d="M1368.74,485.67c2.9-4.43,6.7-8.3,11.07-11.41c4.39-3.1,9.38-5.42,14.75-6.63c2.67-0.61,5.5-0.91,8.2-0.79
								c1.39,0.06,2.85,0.24,4.31,0.74c0.73,0.26,1.46,0.6,2.14,1.06c0.33,0.2,0.7,0.52,0.94,0.73c0.25,0.22,0.51,0.45,0.76,0.7
								c1.02,0.95,2.01,2.06,2.75,3.31c0.74,1.25,1.29,2.61,1.56,4.01c0.29,1.39,0.35,2.79,0.23,4.15
								c-0.08,1.36-0.39,2.69-0.74,3.97l-0.35-0.05c0.01-2.63-0.18-5.24-1.07-7.52c-0.86-2.3-2.37-4.11-4.33-5.58l-0.76-0.56
								c-0.28-0.19-0.42-0.29-0.67-0.41c-0.44-0.23-0.94-0.4-1.46-0.52c-1.06-0.25-2.24-0.35-3.47-0.4
								c-2.55-0.08-5.01-0.19-7.51,0.16c-4.99,0.67-9.86,2.54-14.28,5.18c-4.44,2.62-8.46,6.03-11.8,10.06L1368.74,485.67z"/>
						</g>
						<g>
							<g>
								<path d="M1362.96,484.69c-6.13-1.93-12.95,1.59-18.31,4.27c-5.25,2.62-11.03,6.05-12.94,11.97
									c-1.26,3.93,0.59,7.12,3.24,9.92c1.16,1.23,3.01-0.63,1.85-1.85c-1.25-1.32-2.62-2.84-2.89-4.72
									c-0.24-1.68,0.48-3.43,1.34-4.83c1.73-2.85,4.58-4.85,7.42-6.48c2.9-1.67,5.97-3.18,9.08-4.39
									c3.26-1.26,7.04-2.45,10.5-1.36C1363.88,487.73,1364.57,485.2,1362.96,484.69L1362.96,484.69z"/>
							</g>
						</g>
						<g>
							<path d="M1353.25,500.32c-2.93,0.98-5.65,2.39-8.16,4.1c-1.27,0.84-2.48,1.75-3.64,2.72c-1.17,0.95-2.3,1.96-3.36,3.02
								c-1.06,1.08-2.08,2.18-2.8,3.34c-0.74,1.14-1.32,2.26-1.49,3.26c-0.11,0.5-0.09,1,0.05,1.56c0.11,0.55,0.37,1.07,0.71,1.62
								c0.72,1.09,1.97,2.06,3.07,3.29l-0.18,0.3c-1.55-0.35-3.14-0.73-4.63-1.86c-0.74-0.55-1.38-1.33-1.84-2.22
								c-0.44-0.87-0.68-1.94-0.66-2.98c0.08-2.11,1.11-3.81,2.23-5.1c1.17-1.3,2.43-2.31,3.67-3.31c2.48-2.01,5.15-3.76,7.99-5.16
								c2.85-1.37,5.85-2.48,8.95-2.93L1353.25,500.32z"/>
						</g>
						<g>
							<path d="M1344.29,514.3c-1.69,1.54-2.95,3.47-3.9,5.51c-0.47,1.03-0.86,2.09-1.18,3.16c-0.31,1.07-0.53,2.16-0.48,3.14
								c0.04,0.99,0.41,1.75,1.13,2.25c0.73,0.52,1.69,0.77,2.8,0.97c2.2,0.41,4.44,0.62,6.68,0.65c2.24,0.02,4.47-0.16,6.67-0.51
								c2.2-0.34,4.38-0.72,6.55-1.18c2.17-0.45,4.32-1.04,6.4-1.78c1.03-0.39,2.05-0.81,2.99-1.35c0.47-0.26,0.92-0.56,1.32-0.91
								c0.39-0.35,0.75-0.74,0.88-1.26h0.35c0.12,0.65-0.11,1.33-0.42,1.89c-0.31,0.57-0.72,1.06-1.14,1.52
								c-0.87,0.9-1.86,1.65-2.89,2.29c-2.06,1.31-4.31,2.23-6.6,2.96c-4.61,1.47-9.51,1.53-14.25,1.14
								c-2.38-0.21-4.74-0.61-7.04-1.22c-1.13-0.3-2.46-0.69-3.56-1.62c-0.55-0.46-1.02-1.08-1.29-1.76
								c-0.27-0.69-0.36-1.4-0.34-2.07c0.06-1.34,0.46-2.51,0.89-3.62c0.45-1.11,0.97-2.17,1.56-3.2c1.19-2.04,2.73-3.91,4.65-5.28
								L1344.29,514.3z"/>
						</g>
						<g>
							<g>
								<path d="M1351.72,519.71c-2.54,0.43-5,1.03-7.31,2.21c-2.72,1.39-5.53,2.87-7.15,5.58c-0.87,1.45,1.39,2.77,2.26,1.32
									c1.38-2.31,3.99-3.51,6.31-4.69c0.86-0.44,1.22-0.59,2.18-0.9c1.44-0.45,2.92-0.74,4.4-1c0.7-0.12,1.09-0.98,0.91-1.61
									C1353.13,519.88,1352.42,519.59,1351.72,519.71L1351.72,519.71z"/>
							</g>
						</g>
					</g>
					<path class="st14" d="M1354.32,511.96c-1.74,2.92-2.73,5.64-3.3,9.01c4.07,0.54,17.23,2.67,22.04,1.83
						c-1.12-2.37-2.08-5.17-2.19-7.18c-5.64-0.75-11.24-1.2-16.78-3.05c-0.04-0.2,0.1-0.28,0.42-0.24"/>
				</g>
			</g>
		</g>
		<g>
			<g>
				<g>
					<path d="M1212.17,486.31c5.5,0.43,15.77,0.64,21.26,1.07"/>
					<path d="M1212.18,486.11l5.35-0.49c1.78-0.15,3.56-0.28,5.34-0.37c1.78-0.09,3.58-0.56,5.35-0.17
						c1.77,0.34,3.54,0.87,5.24,2.11l-0.03,0.4c-1.84,0.97-3.61,1.31-5.39,1.49c-1.78,0.22-3.52-0.39-5.29-0.63
						c-1.77-0.24-3.53-0.51-5.3-0.83c-1.76-0.35-3.53-0.65-5.28-1.11L1212.18,486.11z"/>
				</g>
				<g>
					<path class="st15" d="M1216.26,487.59c-0.88,7.88-1.61,14.5-2.49,22.39c0.52-0.14,8.16-1.68,12.31-1.83
						c1.12-6.99,2.25-13.99,3.37-20.98"/>
					<g>
						<path d="M1214.76,487.59c-0.83,7.46-1.66,14.93-2.49,22.39c-0.11,1.01,1.04,1.66,1.9,1.45c3.84-0.95,7.96-1.61,11.92-1.77
							c0.6-0.02,1.34-0.44,1.45-1.1c1.12-6.99,2.25-13.99,3.37-20.98c0.3-1.89-2.59-2.7-2.89-0.8c-1.12,6.99-2.25,13.99-3.37,20.98
							c0.48-0.37,0.96-0.73,1.45-1.1c-4.21,0.17-8.61,0.87-12.71,1.88c0.63,0.48,1.27,0.96,1.9,1.45
							c0.83-7.46,1.66-14.93,2.49-22.39C1217.97,485.68,1214.97,485.69,1214.76,487.59L1214.76,487.59z"/>
					</g>
				</g>
			</g>
			<g>
				<g>
					<path class="st9" d="M1260.27,550.99c-3.26,9.1-6.22,18.61-5.85,28.36c0.37,9.74,4.71,19.86,12.8,24.25
						c7.05,3.83,15.57,2.73,23.05,0.02c19.05-6.89,34.63-24.06,40.58-44.73c-23.41-3.11-46.82-6.21-70.23-9.32"/>
				</g>
				<g>
					<path class="st16" d="M1273.2,561.63c-2.9,3.65-4,8.86-2.87,13.5c1.13,4.64,4.47,8.59,8.66,10.24
						c6.07,2.39,13.12-0.17,17.87-4.89c4.75-4.73,7.56-11.28,9.66-17.86c-11.48-0.99-22.95-1.97-34.43-2.96"/>
				</g>
				<g>
					<path class="st8" d="M1279.53,564.22c-0.8,2.35-1.61,4.73-1.82,7.22c-0.21,2.49,0.25,5.15,1.75,7.06
						c1.86,2.39,5.14,3.21,7.93,2.36c2.79-0.85,5.06-3.19,6.38-5.97c1.32-2.78,1.76-5.97,1.69-9.09c-5.17-0.84-10.4-1.33-15.63-1.47
						"/>
				</g>
				<g>
					<path class="st9" d="M1266.22,553.33c-1.83,5.68-3.66,11.35-5.49,17.03c15.32,4.38,31.04,7.35,46.9,8.88
						c1.38,0.13,2.94,0.2,3.98-0.72c0.59-0.52,0.9-1.27,1.2-2c2.01-4.92,4.02-9.85,6.03-14.77c-18.32-4.96-37.34-7.28-56.31-6.88"/>
					<g>
						<path class="st9" d="M1264.77,552.93c-1.83,5.68-3.66,11.35-5.49,17.03c-0.25,0.78,0.29,1.63,1.05,1.85
							c9.29,2.64,18.72,4.79,28.24,6.4c4.73,0.8,9.49,1.47,14.26,2.02c2.18,0.25,4.53,0.73,6.73,0.56c2.09-0.16,3.54-1.25,4.39-3.15
							c2.27-5.08,4.23-10.33,6.33-15.49c0.31-0.75-0.34-1.65-1.05-1.85c-18.46-4.97-37.6-7.31-56.71-6.93c-1.93,0.04-1.93,3.04,0,3
							c18.86-0.38,37.7,1.91,55.91,6.82c-0.35-0.62-0.7-1.23-1.05-1.85c-1.73,4.23-3.45,8.46-5.18,12.69
							c-0.39,0.96-0.71,2.1-1.29,2.96c-0.54,0.8-1.43,0.83-2.33,0.8c-2.16-0.08-4.34-0.41-6.48-0.66
							c-8.82-1.04-17.58-2.54-26.24-4.48c-4.95-1.11-9.86-2.36-14.74-3.75c0.35,0.62,0.7,1.23,1.05,1.85
							c1.83-5.68,3.66-11.35,5.49-17.03C1268.26,551.88,1265.36,551.1,1264.77,552.93L1264.77,552.93z"/>
					</g>
				</g>
			</g>
			<g>
				<path class="st2" d="M1472.06,566.5c-1.38-39.1-2.77-78.4-10.34-116.79s-21.65-76.16-46.04-106.75
					c-5.03-6.31-11.31-12.72-19.36-13.3c-6.47-0.47-12.75,3.15-16.83,8.18c-4.09,5.04-6.28,11.35-7.81,17.65
					c-11.88,48.75,11.13,102.06-5.43,149.42c-2.81,8.04-7.2,16.19-14.77,20.1c-10.77,5.55-24.57,0.33-32.57-8.77
					c-7.99-9.11-11.54-21.18-14.87-32.83c-24.38,2.89-49.16,2.36-73.39-1.57c-7.3,25.67-4.7,56.02,7.05,79.98
					c34.26,2.06,68.38,5.74,102.65,6.88c44.02,1.48,88.2,0.24,132.26,1.49c-0.04-3.83-0.08-7.66-0.12-11.49"/>
			</g>
			<g>
				<g>
					<path class="st9" d="M1421.34,553.69c-2.6,9.27-5.24,18.76-5,28.51c0.24,9.75,3.93,19.97,11.23,24.66
						c7.12,4.58,16.04,3,23.56-0.61c19.92-9.59,34.23-33.46,35.16-58.66c-21.89,0.03-43.77,1.79-65.46,5.26"/>
				</g>
				<g>
					<path class="st16" d="M1436.16,558.61c-2.17,6.67-4.38,13.65-3.78,20.75s4.94,14.33,11.02,14.93
						c4.42,0.44,8.54-2.61,11.87-6.03c7.87-8.09,13.52-19.1,15.92-31.04c-11.89,1.9-23.99,2.06-35.91,0.46"/>
				</g>
				<g>
					<path class="st8" d="M1443.26,566.6c-1.69,3.61-2.57,7.74-2.54,11.86c0.01,1.98,0.32,4.16,1.61,5.44
						c1.29,1.29,3.21,1.3,4.85,0.76c3.33-1.08,6.04-4.03,7.91-7.44c1.86-3.41,2.99-7.3,4.1-11.13c-5.31-0.16-10.62-0.32-15.93-0.49"
						/>
				</g>
				<g>
					<path class="st9" d="M1427.09,554.65c-1.32,6.42-2.65,12.84-3.97,19.27c15.32,2.34,30.84,3.39,46.34,3.14
						c1.37-0.02,2.84-0.09,3.94-0.91c1.25-0.93,1.68-2.58,2.03-4.09c1.42-6.14,2.84-12.27,4.26-18.41
						c-17.93,0.22-35.85,1.16-53.7,2.8"/>
					<g>
						<path class="st9" d="M1425.65,554.25c-1.32,6.42-2.65,12.84-3.97,19.27c-0.15,0.72,0.2,1.72,1.05,1.85
							c10.22,1.55,20.51,2.57,30.84,3c5.14,0.21,10.28,0.28,15.42,0.21c2.02-0.03,4.21-0.11,5.77-1.58c1.51-1.43,1.92-3.56,2.37-5.5
							c1.34-5.81,2.69-11.63,4.03-17.44c0.22-0.93-0.44-1.91-1.45-1.9c-17.93,0.23-35.84,1.16-53.7,2.8c-1.91,0.17-1.93,3.18,0,3
							c17.86-1.64,35.77-2.57,53.7-2.8c-0.48-0.63-0.96-1.27-1.45-1.9c-1.1,4.76-2.2,9.53-3.31,14.29
							c-0.47,2.01-0.72,4.29-1.55,6.19c-0.88,2.01-3.02,1.82-4.9,1.84c-9.54,0.12-19.1-0.25-28.6-1.12
							c-5.47-0.5-10.93-1.16-16.36-1.99c0.35,0.62,0.7,1.23,1.05,1.85c1.32-6.42,2.65-12.84,3.97-19.27
							C1428.93,553.17,1426.04,552.36,1425.65,554.25L1425.65,554.25z"/>
					</g>
				</g>
			</g>
			<path class="st17" d="M1233.43,523.94c4.65-8.45,11.51-20.06,18.96-26.2c7.45-6.14,16.92-10.21,26.57-9.83
				c11,0.44,21.26,6.68,28.1,15.29c6.83,8.61,10.52,19.37,12.2,30.22s1.48,21.9,1.27,32.88"/>
			<path class="st18" d="M1223.2,560.04c0.57-14.61,3.48-29.53,11.42-41.81c7.94-12.28,21.61-21.5,36.23-21.28
				c7.12,0.11,14.38,2.56,19.35,7.65c4.06,4.15,6.34,9.72,7.98,15.28c4.43,15,4.89,31.15,1.32,46.37"/>
			<g>
				<path d="M1288.18,527.45c-16.86-1.01-34.11,1.26-50.48,6.76c15.62-7.36,32.85-11.77,50.48-12.76L1288.18,527.45z"/>
			</g>
			<g>
				<path class="st19" d="M1412.32,337.29c-4.94,3.51-5.54,13.84-1.57,20.42c-2.85-5.23-6.54-10.21-11.69-13.2
					s-11.98-3.61-16.95-0.33c-7.75,5.1-7.75,16.38-5.9,25.47c4.43,21.75,14.56,42.32,29.11,59.08c-6.6-4.32-16.04,0.8-19.08,8.08
					s-1.6,15.56-0.1,23.3c3.53,18.24,7.11,36.56,7.74,55.12c0.63,18.56-1.81,37.55-9.82,54.3c31.47,1.52,63.06,0.52,94.37-2.99
					c-3.97-28.21-7.95-56.42-11.92-84.63c-3.59-25.46-7.2-51.06-14.87-75.61C1443.97,381.74,1430.6,355.38,1412.32,337.29"/>
			</g>
			<g>
				<path d="M1287.69,539.59c-19.59-0.72-39.37,0.6-58.89,3.98c19.08-5.33,38.82-8.7,58.81-9.98L1287.69,539.59z"/>
			</g>
			<g>
				<path d="M1237.7,561.81c-2.91-6.23-5.42-12.67-7.34-19.3c-1.95-6.62-3.31-13.43-4.04-20.32c-1.5-13.77-0.44-27.89,3.36-41.32
					l0.33-1.18l1.26,0.17c5.89,0.81,11.8,1.43,17.72,1.88c5.92,0.47,11.85,0.75,17.78,0.85c11.86,0.21,23.72-0.34,35.5-1.52
					l1.98-0.2l0.64,1.94c3.36,10.12,8.57,19.6,15.24,27.87c1.66,2.07,3.44,4.05,5.27,5.96c1.85,1.93,3.72,3.73,5.72,5.3
					c3.97,3.15,8.53,5.29,12.92,4.89c4.4-0.34,8.49-3.2,11.7-6.99c1.61-1.9,3.05-4.01,4.3-6.24c1.23-2.26,2.42-4.64,3.43-7.06
					c4.13-9.68,6.28-20.2,7.13-30.84c0.84-10.67,0.45-21.48-0.46-32.29c-0.95-10.8-2.3-21.69-3.35-32.67
					c-1.03-10.98-1.77-22.11-1.24-33.32c0.24-5.6,0.78-11.22,1.84-16.77c0.13-0.69,0.23-1.39,0.38-2.08l0.46-2.07
					c0.32-1.38,0.59-2.75,0.99-4.15c0.76-2.78,1.7-5.54,2.9-8.22c1.21-2.68,2.68-5.31,4.56-7.72c1.88-2.4,4.19-4.61,6.96-6.23
					c2.74-1.62,5.91-2.64,9.07-2.89c1.58-0.14,3.16-0.12,4.7,0.07c1.55,0.17,3.06,0.47,4.53,0.9c1.47,0.42,2.9,0.95,4.27,1.59
					c1.38,0.63,2.7,1.36,3.97,2.19c2.52,1.65,4.76,3.58,6.79,5.67c4.06,4.18,7.25,8.88,10.26,13.51
					c6.07,9.25,11.57,18.91,16.35,28.91c2.4,4.99,4.56,10.1,6.56,15.26c2,5.16,3.84,10.38,5.46,15.67
					c1.64,5.28,3.12,10.6,4.41,15.97c1.33,5.36,2.46,10.76,3.46,16.18c1.98,10.84,3.45,21.76,4.49,32.71
					c2.05,21.9,2.5,43.88,2.04,65.81c-0.5-21.93-1.74-43.83-4.44-65.55c-2.73-21.69-6.99-43.21-13.89-63.85
					c-6.88-20.64-16.68-40.18-28.92-58.13c-3.04-4.51-6.17-8.84-9.84-12.46c-3.66-3.63-7.89-6.42-12.6-7.7
					c-1.17-0.33-2.35-0.55-3.53-0.66c-1.18-0.13-2.36-0.12-3.51-0.01c-2.31,0.21-4.48,0.95-6.44,2.14
					c-3.94,2.38-6.83,6.58-8.83,11.22c-1.01,2.33-1.82,4.79-2.47,7.31c-0.34,1.25-0.58,2.57-0.86,3.86l-0.41,1.95
					c-0.13,0.65-0.22,1.31-0.33,1.97c-0.47,2.62-0.76,5.27-1.09,7.91c-0.22,2.66-0.46,5.32-0.55,8
					c-0.46,10.71,0.29,21.53,1.36,32.36c0.54,5.42,1.17,10.85,1.78,16.31c0.62,5.45,1.22,10.93,1.66,16.46
					c0.88,11.04,1.25,22.22,0.32,33.42c-0.96,11.17-3.24,22.44-7.83,32.92c-1.14,2.63-2.43,5.14-3.86,7.67
					c-1.47,2.53-3.15,4.95-5.12,7.21c-1.97,2.25-4.25,4.33-6.95,5.97c-2.69,1.64-5.85,2.79-9.14,3.01
					c-3.29,0.25-6.57-0.45-9.44-1.66c-2.89-1.21-5.42-2.89-7.71-4.73c-4.57-3.74-8.24-7.96-11.75-12.42
					c-6.91-8.95-12.2-19.12-15.53-29.89l2.62,1.74c-12.01,0.99-24.07,1.13-36.08,0.57c-6.01-0.28-12-0.75-17.97-1.4
					c-5.97-0.67-11.92-1.53-17.83-2.57l1.59-1c-4.05,12.95-5.51,26.73-4.52,40.36c0.49,6.82,1.64,13.59,3.28,20.24
					C1232.81,548.95,1235.05,555.46,1237.7,561.81z"/>
			</g>
			<g>
				<path class="st2" d="M1420.29,565.67c1.8-13.49,6.95-26.31,12.82-38.59c4.38-9.17,9.33-18.3,16.69-25.3
					c7.37-7,17.59-11.64,27.64-10.15c4.84,0.72,9.61,2.97,12.51,6.91c2.95,4,3.65,9.17,4.14,14.12c1.62,16.36,1.96,32.89,0.29,49.25
					c-0.14,1.39-0.36,2.9-1.38,3.86c-1.08,1.01-2.71,1.08-4.19,1.09c-22.93,0.15-45.87,0.3-68.8,0.45c0.17-1.09,0.33-2.18,0.5-3.27"
					/>
			</g>
			<g>
				<path d="M1383.07,569.06c6.65-11.37,9.9-24.42,10.86-37.46c0.97-13.09-0.41-26.23-2.63-39.15c-2.2-12.95-5.31-25.71-7.82-38.69
					c-0.58-3.27-1-6.62-0.88-10.03c0.1-3.4,0.83-6.85,2.36-9.97c1.55-3.11,3.88-5.94,7.22-7.56c3.35-1.55,7.14-1.39,10.41-0.7
					l-1.14,2.11c-0.99-1.04-1.77-2.05-2.57-3.09c-0.79-1.04-1.56-2.09-2.32-3.15c-1.5-2.12-2.95-4.28-4.34-6.47
					c-2.79-4.38-5.4-8.88-7.76-13.52c-2.35-4.64-4.49-9.41-6.2-14.37c-0.84-2.48-1.58-5.01-2.16-7.58
					c-0.62-2.64-0.87-5.25-1.11-7.85c-0.23-2.6-0.36-5.21-0.37-7.83c0-1.31,0.02-2.63,0.1-3.96c0.08-1.33,0.28-2.75,0.59-4.04
					c0.61-2.62,1.49-5.16,2.74-7.57c0.63-1.2,1.36-2.38,2.28-3.46c0.89-1.07,2.07-2.1,3.4-2.7c2.59-1.29,5.57-1.51,8.27-1.02
					c2.73,0.48,5.23,1.59,7.52,2.97c2.31,1.4,4.34,3.23,6.02,5.28c1.69,2.05,3.09,4.26,4.44,6.46l-1.33,0.49
					c-0.19-1.65-0.38-3.31-0.54-4.98c-0.15-1.67-0.26-3.36-0.17-5.07c0.09-1.7,0.41-3.42,1.15-4.98c0.73-1.56,1.86-2.89,3.15-3.96
					l0.2,0.22c-1.19,1.14-2.18,2.49-2.76,4c-0.6,1.5-0.82,3.13-0.81,4.75c0.03,3.26,0.74,6.52,1.23,9.83l0.47,3.18l-1.81-2.69
					c-1.43-2.13-2.88-4.23-4.55-6.09c-1.66-1.87-3.58-3.45-5.73-4.65c-2.16-1.21-4.49-2.09-6.86-2.46
					c-2.36-0.37-4.76-0.11-6.79,0.95c-1.97,0.94-3.36,2.99-4.45,5.15c-1.08,2.18-1.86,4.57-2.37,6.97c-0.26,1.22-0.4,2.37-0.45,3.61
					c-0.06,1.24-0.05,2.5-0.02,3.76c0.08,2.53,0.22,5.07,0.45,7.6c0.25,2.53,0.51,5.05,1.09,7.43c0.57,2.45,1.29,4.87,2.12,7.26
					c1.63,4.79,3.66,9.47,5.92,14.04c2.26,4.57,4.74,9.04,7.42,13.39c1.34,2.18,2.73,4.32,4.17,6.43c0.72,1.05,1.46,2.09,2.21,3.11
					c0.75,1.01,1.54,2.05,2.32,2.89l2.75,2.98l-3.89-0.87c-1.58-0.35-3.08-0.57-4.61-0.54c-1.52,0.03-3,0.32-4.34,0.91
					c-1.32,0.59-2.53,1.54-3.58,2.64c-1.04,1.11-1.91,2.4-2.62,3.78c-1.39,2.78-2.11,5.9-2.24,9.07c-0.15,3.18,0.21,6.4,0.74,9.61
					c2.33,12.88,5.31,25.76,7.37,38.78c2.04,13.02,3.22,26.29,2.04,39.47c-1.17,13.13-4.65,26.23-11.51,37.54L1383.07,569.06z"/>
			</g>
			<g>
				<path d="M1216.55,559.22c23.09,2.31,46.23,4.14,69.39,5.45c23.16,1.32,46.34,2.09,69.52,2.51c23.18,0.4,46.37,0.32,69.55-0.16
					c11.59-0.24,23.18-0.56,34.76-1c5.79-0.23,11.6-0.43,17.35-0.71l8.64-0.41c1.44-0.08,2.89-0.12,4.31-0.23l4.25-0.45l-2.95,2.67
					c0.67-3.72,1.18-7.46,1.53-11.22c0.37-3.75,0.59-7.52,0.65-11.29c0.12-7.54-0.42-15.08-1.48-22.54
					c-0.54-3.75-1.21-7.37-2.26-10.78c-1.05-3.4-2.51-6.57-4.57-9.09c-2.04-2.55-4.7-4.34-7.82-5.32c-3.11-0.99-6.59-1.09-9.97-0.55
					c-3.41,0.6-6.64,1.8-9.68,3.67c-3.03,1.86-5.82,4.21-8.35,6.89c-5.07,5.35-9.35,11.77-13.21,18.31
					c-7.69,13.15-13.19,27.67-16.22,42.84l-0.69-0.1c1.51-15.47,6.01-30.76,13.12-44.8c1.8-3.5,3.76-6.92,5.85-10.27
					c2.11-3.34,4.42-6.63,7.1-9.67c2.67-3.05,5.72-5.87,9.21-8.2c3.46-2.32,7.52-4.11,11.73-4.92c4.22-0.8,8.69-0.84,13.02,0.4
					c4.31,1.19,8.42,3.79,11.3,7.24c2.91,3.45,4.75,7.45,6.04,11.4c1.31,3.97,2.04,7.99,2.61,11.9c1.19,7.86,1.6,15.83,1.37,23.76
					c-0.12,3.97-0.4,7.93-0.85,11.87c-0.47,3.94-1.11,7.86-1.91,11.74l-0.51,2.47l-2.44,0.2l-4.42,0.36
					c-1.47,0.08-2.92,0.08-4.38,0.12l-8.76,0.21c-5.85,0.17-11.64,0.23-17.45,0.35c-11.62,0.19-23.24,0.32-34.86,0.34
					c-23.24,0.05-46.49-0.29-69.71-1.1c-23.23-0.78-46.43-2.19-69.58-4.06c-23.16-1.87-46.26-4.27-69.3-7.13L1216.55,559.22z"/>
			</g>
			<g>
				<path d="M1399.79,446.8c2.27,1.63,4.9,2.79,7.56,2.89c2.65,0.17,5.1-0.95,6.7-2.88c0.79-0.98,1.4-2.11,1.79-3.32
					c0.42-1.19,0.71-2.41,0.99-3.7c0.57-2.57,0.74-5.36,1.38-8.24l0.3-0.02c0.52,1.38,0.87,2.79,1.1,4.23
					c0.24,1.45,0.3,2.94,0.19,4.45c-0.13,1.5-0.51,3.05-1.23,4.45c-0.71,1.39-1.64,2.68-2.77,3.78c-1.13,1.1-2.49,2-4.02,2.46
					c-1.52,0.48-3.11,0.53-4.6,0.27c-2.99-0.55-5.58-2.13-7.59-4.16L1399.79,446.8z"/>
			</g>
			<g>
				<path d="M1413.01,449.48l4.71,12.19l2.36,6.1c0.8,2.04,1.52,4.06,2.5,5.88c0.97,1.82,2.25,3.45,4.01,4.35
					c1.74,0.9,3.9,0.97,5.9,0.41c2.02-0.54,3.86-1.69,5.49-3.1c1.64-1.41,3.07-3.05,4.51-4.69c-1.3,1.74-2.6,3.5-4.16,5.07
					c-1.54,1.56-3.37,2.94-5.53,3.7c-2.12,0.78-4.61,0.95-6.85,0.01c-2.24-0.93-3.91-2.79-5.13-4.69c-1.24-1.93-2.15-3.97-3.09-5.91
					l-2.83-5.89l-5.65-11.78L1413.01,449.48z"/>
			</g>
			<g>
				<path d="M1413.55,419.73c-4.79-6.56-9.28-13.43-12.41-21.13c-1.57-3.84-2.72-7.9-3.31-12.08c-0.27-2.08-0.51-4.21-0.18-6.58
					c0.31-2.33,1.45-4.9,3.69-6.49c1.11-0.79,2.58-1.28,4-1.26c1.42,0.02,2.72,0.45,3.84,1.07c1.12,0.62,2.09,1.49,2.84,2.39
					c0.76,0.91,1.38,1.88,1.88,2.83c1,1.91,1.81,3.72,2.67,5.6c0.84,1.87,1.63,3.76,2.35,5.68c2.94,7.64,5.13,15.58,6.26,23.65
					c-2.75-7.67-5.71-15.16-9.13-22.42c-0.86-1.81-1.76-3.6-2.64-5.4c-0.91-1.76-1.85-3.61-2.8-5.25c-0.96-1.62-2-2.98-3.32-3.67
					c-0.65-0.35-1.35-0.55-1.96-0.54c-0.61,0.01-1.15,0.19-1.69,0.57c-0.54,0.37-1.03,0.93-1.39,1.58c-0.36,0.63-0.6,1.4-0.73,2.23
					c-0.29,1.65-0.1,3.6,0.07,5.54c0.34,3.87,1.33,7.69,2.48,11.47C1406.5,405.08,1410.17,412.32,1413.55,419.73z"/>
			</g>
			<g>
				<path d="M1431.46,407.55c-3.07-6.42-5.44-13.17-7.28-20.07c-0.96-3.44-1.68-6.94-2.37-10.44c-0.34-1.76-0.61-3.51-0.89-5.29
					c-0.12-1.06-0.25-2.17,0.31-3.65c0.16-0.37,0.38-0.76,0.7-1.12c0.33-0.35,0.74-0.68,1.19-0.86c0.85-0.43,2.02-0.41,2.83-0.08
					c0.82,0.32,1.34,0.79,1.78,1.23c0.43,0.45,0.77,0.91,1.06,1.38c0.31,0.5,0.5,0.89,0.71,1.28l0.63,1.19
					c0.81,1.6,1.61,3.2,2.36,4.82c1.46,3.27,2.88,6.55,4.05,9.93c2.41,6.73,4.22,13.67,5.16,20.73c-2.55-6.64-5.16-13.17-8.05-19.56
					c-1.48-3.17-2.94-6.35-4.56-9.45c-0.81-1.55-1.6-3.1-2.44-4.63l-0.62-1.15c-0.21-0.39-0.42-0.79-0.58-1.04
					c-0.33-0.56-0.86-1.01-0.92-1c-0.02,0.02,0.2,0.01,0.25-0.02c0.09-0.04,0.18-0.18,0.13-0.1c-0.1,0.17-0.16,0.9-0.06,1.58
					c0.21,1.72,0.47,3.46,0.71,5.2c0.47,3.47,1.1,6.92,1.68,10.38C1428.46,393.71,1429.95,400.59,1431.46,407.55z"/>
			</g>
			<g>
				<path class="st20" d="M1469.99,405.44c-6.86-2.63-16.05-1.2-21.85,3.31c-5.8,4.51-10.26,9.56-14.01,15.88
					c-1.75,2.95-3.07,7.41-3.09,10.84c-0.03,4.05,2.39,7.69,4.93,10.85c6.32,7.86,15.35,15.08,25.37,13.99
					c7.47-0.82,13.91-6.4,16.93-13.28c3.01-6.88,3.65-14.56,1.69-21.81C1478,417.96,1475.53,411.64,1469.99,405.44"/>
				<path d="M1469.99,405.44c-6.58-2.03-13.91-0.92-19.53,2.63c-1.39,0.88-2.66,1.99-3.94,3.12c-1.26,1.13-2.48,2.32-3.63,3.55
					c-2.3,2.48-4.38,5.14-6.19,7.99c-0.45,0.71-0.89,1.43-1.31,2.16c-0.43,0.72-0.77,1.41-1.1,2.17c-0.64,1.49-1.13,3.07-1.47,4.67
					c-0.33,1.58-0.53,3.24-0.36,4.7c0.16,1.49,0.71,2.96,1.47,4.36c1.54,2.78,3.75,5.43,6.03,7.86c2.3,2.43,4.82,4.64,7.6,6.4
					c0.68,0.47,1.41,0.84,2.11,1.26c0.73,0.35,1.45,0.75,2.21,1.03c1.49,0.65,3.04,1.07,4.61,1.35c1.57,0.29,3.17,0.27,4.75,0.15
					c1.57-0.17,3.11-0.59,4.59-1.18c2.96-1.2,5.62-3.18,7.76-5.63c2.16-2.46,3.68-5.37,4.76-8.53c2.18-6.3,2.34-13.23,0.45-19.75
					c-0.84-3.31-1.87-6.57-3.33-9.65C1474.01,411.02,1472.15,408.12,1469.99,405.44c2.41,2.46,4.52,5.25,6.18,8.31
					c1.69,3.04,2.97,6.3,4.03,9.61c1.1,3.29,1.8,6.83,1.86,10.37c0.09,3.55-0.45,7.11-1.49,10.51c-0.53,1.7-1.15,3.36-1.98,4.99
					c-0.83,1.61-1.83,3.13-3,4.52c-2.33,2.78-5.27,5.09-8.67,6.55c-1.69,0.73-3.51,1.22-5.36,1.44c-1.84,0.16-3.72,0.19-5.54-0.13
					c-1.82-0.3-3.61-0.78-5.28-1.5c-1.69-0.68-3.29-1.54-4.8-2.51c-3.02-1.95-5.7-4.33-8.11-6.92c-1.21-1.29-2.35-2.64-3.44-4.03
					c-1.08-1.4-2.13-2.87-2.97-4.53c-0.84-1.64-1.5-3.46-1.67-5.4c-0.17-1.97,0.12-3.77,0.51-5.54c0.42-1.76,0.98-3.48,1.74-5.13
					c0.38-0.81,0.84-1.65,1.31-2.39c0.46-0.74,0.95-1.48,1.44-2.2c1.99-2.89,4.22-5.63,6.73-8.07c1.25-1.23,2.56-2.39,3.91-3.49
					c0.68-0.55,1.37-1.09,2.06-1.61c0.72-0.52,1.46-1.04,2.24-1.46c3.13-1.72,6.59-2.68,10.08-2.94
					C1463.26,403.62,1466.82,404.06,1469.99,405.44z"/>
			</g>
			<g>
				<path class="st2" d="M1227.87,535.73c1.23-3.6,0.42-1.52,1.48-4.13c1.62,5.58,6.49,9.48,8.11,15.06
					c0.97,3.34,1.95,6.71,3.5,9.83c0.8,1.61-0.82,3.58,0.26,5.01c-3.73-0.34-4.65-0.34-5.32-0.46c-0.44-0.37-7.73-14.85-8.9-20.45"
					/>
			</g>
			<path class="st21" d="M1451.49,429.6c-0.77,5.33,0.13,10.89,2.53,15.71c1.38,2.76,3.32,5.36,6.02,6.85
				c2.7,1.49,6.26,1.68,8.78-0.1c2.77-1.96,3.65-5.62,4.22-8.96c0.85-4.93,1.48-9.93,1.16-14.92s-1.67-10-4.49-14.12
				c-1.67-2.44-4.24-4.69-7.19-4.48c-3.03,0.22-5.26,2.92-6.73,5.58c-3.38,6.13-4.85,13.29-4.14,20.26"/>
			<g>
				<path d="M1455.46,417.78c1.99-2.56,6.27-2.16,8.66,0.02c2.39,2.19,3.32,5.53,3.89,8.72c1.09,6.18,1.23,12.53,0.41,18.76
					c-0.35,2.69-0.98,5.54-2.94,7.41c2.2-0.8,3.94-2.58,5.08-4.62c1.14-2.04,1.73-4.35,2.17-6.65c1.13-5.94,1.33-12.06,0.58-18.06
					c-0.52-4.11-1.62-8.43-4.68-11.22c-2.07-1.89-5.2-2.88-7.76-1.74c-2.43,1.08-3.74,3.68-4.86,6.09c0.13-0.49,0.26-0.98,0.39-1.47
					"/>
				<g>
					<path d="M1456.52,418.84c1.89-2.24,5.32-1.38,7.09,0.57c2.31,2.55,2.85,6.42,3.3,9.7c0.56,4.08,0.68,8.22,0.4,12.33
						c-0.23,3.36-0.37,7.64-2.89,10.19c-0.98,1,0,3.07,1.46,2.51c4.07-1.58,6.43-5.25,7.6-9.32c1.36-4.74,1.82-9.87,1.77-14.79
						c-0.07-7.52-1.21-19.98-10.67-21.48c-5.08-0.8-7.96,3.1-9.87,7.19c0.91,0.39,1.83,0.77,2.74,1.16
						c0.13-0.49,0.26-0.98,0.39-1.47c0.49-1.87-2.4-2.67-2.89-0.8c-0.13,0.49-0.26,0.98-0.39,1.47c-0.42,1.59,2,2.74,2.74,1.16
						c1.27-2.71,2.95-6.19,6.51-5.81c3.46,0.38,5.74,3.54,6.8,6.58c1.23,3.51,1.54,7.35,1.63,11.05c0.11,4.22-0.23,8.46-1.08,12.59
						c-0.76,3.7-2.22,8.07-6.08,9.57c0.49,0.84,0.97,1.67,1.46,2.51c3.15-3.19,3.48-8.09,3.77-12.31c0.34-5.04,0.05-10.1-0.81-15.07
						c-0.67-3.87-1.93-8.16-5.39-10.46c-2.91-1.94-7.33-2.01-9.71,0.81C1453.16,418.19,1455.28,420.32,1456.52,418.84
						L1456.52,418.84z"/>
				</g>
			</g>
			<g>
				<path d="M1457.99,442.16c-0.03-2.7-0.31-5.35-0.9-7.92c-0.29-1.29-0.83-2.5-1.05-3.78c-0.12-0.62-0.23-1.38-0.32-1.78
					c-0.02-0.11-0.06-0.18-0.09-0.26c-0.04-0.07-0.03-0.12-0.13-0.17c-0.17-0.08-0.46-0.13-0.6,0.14l-0.2,0.02
					c-0.1-0.2-0.04-0.49,0.12-0.68c0.16-0.19,0.38-0.32,0.63-0.39c0.24-0.07,0.59-0.02,0.83,0.1c0.24,0.11,0.44,0.29,0.61,0.46
					c0.61,0.76,0.77,1.35,1.07,2c0.53,1.3,0.59,2.72,0.71,4.1c0.11,1.38,0.14,2.76,0.08,4.13c-0.1,1.37-0.26,2.73-0.55,4.06
					L1457.99,442.16z"/>
			</g>
			<g>
				<path d="M1464.55,447.2c0.27-2.28,0.42-4.56,0.31-6.84c-0.06-2.27-0.32-4.53-0.77-6.74c-0.43-2.22-1.24-4.32-1.82-6.48
					c-0.29-1.06-0.62-2-1.26-2.58c-0.52-0.49-1.83-0.72-2.43,0.22l-0.19-0.05c0-0.67,0.6-1.26,1.24-1.48
					c0.66-0.23,1.43-0.23,2.13,0.13c0.66,0.32,1.15,0.88,1.53,1.42c0.37,0.56,0.62,1.14,0.86,1.69c0.9,2.19,1.24,4.56,1.51,6.88
					c0.27,2.33,0.33,4.68,0.19,7c-0.16,2.32-0.53,4.63-1.12,6.86L1464.55,447.2z"/>
			</g>
			<g>
				<path d="M1372.85,486.69c-3.81,10.55-11.44,19.68-21.14,25.31c-9.7,5.63-20,7.46-31.05,5.53c4.11,4.12,7.47,7.95,12.94,9.93
					c5.47,1.98,11.68,2.27,17.06,0.05c6.26-2.6,9.6-8.98,13.43-14.57c1.61-2.35,5.1-8.03,8.76-25.04"/>
				<g>
					<path d="M1371.41,486.29c-5.6,15.3-19.38,27.22-35.53,29.93c-4.89,0.82-9.94,0.69-14.82-0.14c-1.4-0.24-2.59,1.37-1.46,2.51
						c2.31,2.32,4.55,4.72,7.15,6.72c2.56,1.98,5.42,3.4,8.54,4.26c6.34,1.74,13.86,1.39,19.33-2.57
						c4.75-3.44,7.71-8.74,10.91-13.52c1.39-2.08,2.46-4.33,3.4-6.63c2.45-5.96,4.01-12.28,5.36-18.56c0.41-1.88-2.48-2.69-2.89-0.8
						c-1.2,5.58-2.59,11.15-4.57,16.51c-0.91,2.47-1.97,4.9-3.36,7.13c-2.31,3.71-4.72,7.63-7.7,10.83
						c-4.43,4.76-10.79,6.37-17.13,5.28c-3.43-0.59-6.64-1.82-9.48-3.84c-2.76-1.98-5.07-4.54-7.46-6.94
						c-0.49,0.84-0.97,1.67-1.46,2.51c9.31,1.58,18.64,0.63,27.3-3.19c7.97-3.51,14.84-9.14,20.01-16.12
						c2.84-3.84,5.08-8.09,6.72-12.58C1374.97,485.27,1372.07,484.49,1371.41,486.29L1371.41,486.29z"/>
				</g>
			</g>
		</g>
		<g id="mickey_x5F_lef">
			<g>
				<path d="M1267.72,457.68c9.13-3.94,18.46-6.07,28.05-8.7c2.19-0.6,4.6-1.15,6.66-0.21c2.37,1.09,3.54,3.92,3.47,6.53
					s-1.12,5.08-2.11,7.49c-4.51,11.01-8,22.44-10.43,34.09c-6.94,0.88-13.75,2.83-20.1,5.78c3.26-5.62,5.15-11.91,7.02-18.13
					c1.87-6.24,3.74-12.49,5.62-18.73c0.18-0.58,0.33-1.27-0.03-1.76c-0.5-0.67-1.55-0.45-2.33-0.14
					c-6.56,2.52-10.22,5.68-16.33,9.16C1267.13,468.01,1265.94,462.41,1267.72,457.68"/>
				<g>
					<path d="M1268.48,458.98c5.16-2.21,10.54-3.88,15.95-5.38c2.69-0.75,5.4-1.46,8.1-2.18c2.46-0.66,5.29-1.88,7.88-1.63
						c2.26,0.22,3.57,2.09,3.91,4.21c0.41,2.58-0.68,5.21-1.63,7.55c-2.15,5.29-4.14,10.63-5.85,16.07
						c-1.96,6.21-3.59,12.51-4.93,18.88c0.48-0.37,0.96-0.73,1.45-1.1c-7.24,0.94-14.22,2.93-20.85,5.99
						c0.68,0.68,1.37,1.37,2.05,2.05c4.51-7.87,6.69-16.88,9.27-25.51c0.68-2.26,1.36-4.53,2.04-6.79c0.33-1.09,0.66-2.19,0.98-3.28
						c0.3-0.99,0.77-2.08,0.73-3.14c-0.07-2.07-2.02-2.89-3.83-2.45c-1.9,0.46-3.81,1.5-5.53,2.4c-4.07,2.12-7.8,4.82-11.78,7.1
						c0.75,0.43,1.5,0.86,2.26,1.3c-0.1-4.97-1.26-10.17,0.46-14.99c0.65-1.82-2.25-2.61-2.89-0.8c-1.82,5.09-0.68,10.53-0.57,15.78
						c0.02,1.14,1.26,1.87,2.26,1.3c3.06-1.75,5.97-3.74,9-5.54c1.45-0.86,2.93-1.67,4.46-2.39c0.87-0.41,1.75-0.83,2.66-1.12
						c0.13-0.04,0.35-0.07,0.47-0.15c0.28-0.17,0.13,0.09,0.12-0.07c-0.01-0.26-0.24,0.36-0.23,0.33c-0.14,0.28-0.19,0.64-0.28,0.94
						c-2.34,7.81-4.56,15.68-7.07,23.43c-1.36,4.19-2.94,8.3-5.13,12.13c-0.8,1.39,0.75,2.65,2.05,2.05
						c6.11-2.81,12.66-4.71,19.34-5.58c0.63-0.08,1.3-0.41,1.45-1.1c1.3-6.21,2.89-12.36,4.78-18.42
						c1.85-5.91,4.09-11.63,6.34-17.39c1.75-4.47,2.64-11.07-2.44-13.85c-2.47-1.35-5.33-0.85-7.91-0.15
						c-2.94,0.79-5.88,1.57-8.81,2.36c-6.73,1.81-13.39,3.8-19.8,6.54C1265.19,457.14,1266.72,459.73,1268.48,458.98L1268.48,458.98
						z"/>
				</g>
			</g>
			<g>
				<g>
					<g>
						<path class="st11" d="M1293.86,512.84c0.8-6.04,2.34-12.56,5.08-18.07c6.96-14.03,16.92-29.86,34.21-30.93
							c8.36-0.52,14.61,6.81,14.99,14.58"/>
						<g>
							<path class="st11" d="M1304.84,496.37c8.12-11.07,22.09-19.64,36.12-19.64c3.23,0,7.24,0.01,9.88,2.11
								c3.15,2.5,5.2,6.9,6.12,10.72c3.09,12.84-10.46,21.73-19.15,28.43c-4.29,3.31-9.32,5.58-14.22,7.83
								c-3.36,1.55-7.42,4.13-11.18,4.5c-4.15,0.41-9.15-0.64-13.25-1.37c-3.19-0.57-7.62-0.87-10.49-1.93
								c2.69-2.38,5.2-4.34,7.48-7.17c3.09-3.84,5.81-7.7,8.58-11.73c5.41-7.86,11.64-15.94,20.3-20.4
								c9.43-4.86,33.08-8.94,30.92,8.08c-0.22,1.72-0.71,3.67-1.35,5.23c-0.46,1.12-2.98,4.56-2.88,4.84"/>
						</g>
						<g>
							<path class="st11" d="M1297.66,496.58c-5.94-2.01-14.35,2.02-19.65,4.65c-5.76,2.86-12.8,6.86-14.52,13.68
								c-0.96,3.79,1.01,6.47,3.54,9.13"/>
						</g>
						<path class="st11" d="M1286.89,512.84c-7.32,1.71-14.76,6.63-20.17,11.93c-2.23,2.19-4.71,5.36-3.93,8.66
							c0.82,3.45,4.08,4.75,6.15,6.02"/>
						<path class="st11" d="M1276.54,528.89c-2.94,2.36-5.02,5.87-6.31,9.39c-1.61,4.39-1.58,7.83,3.56,9.1
							c18.03,4.44,37.29-3.45,37.29-8.38"/>
						<g>
							<path class="st11" d="M1285.58,536.68c-5.32,0.9-6.88,1.78-8.76,2.77c-2.65,1.39-5.37,2.83-6.9,5.46"/>
						</g>
					</g>
					<g>
						<path class="st11" d="M1318.7,507.46c-3.19-2.31-5.61-7.52-8.42-10.49c-1.11-1.17-2.84-3.65-4.6-3.81
							c-1.27-0.11-4.49,1.71-5.8,2.17c-8.44,2.94-17.63,6.38-24.38,12.4c-4.68,4.17-7.01,11.87-6.95,18.02
							c0.08,7.95,6.95,12.94,14.12,15.34c9.61,3.21,16.48,0.66,25.37-3.68c-3.1-7.02-1.93-5.2-0.47-11.46
							c1.67-7.16,12.06-22.58,16.93-28.16c-5.83-2.9-14.27-2.4-20.67-3.29"/>
						<g>
							<path class="st11" d="M1319.46,506.17c-3.29-2.48-5-6.69-7.66-9.75c-1.18-1.36-2.35-2.88-3.85-3.91
								c-1.53-1.05-3.03-0.93-4.67-0.28c-1.54,0.6-2.99,1.39-4.56,1.94c-2.22,0.78-4.44,1.58-6.63,2.44
								c-4.41,1.74-8.77,3.72-12.75,6.34c-3.54,2.32-6.74,5.02-8.8,8.77c-2.01,3.67-3.13,7.83-3.43,11.99
								c-0.28,3.94,0.57,7.68,2.99,10.85c2.35,3.08,5.66,5.3,9.18,6.84c4.67,2.03,9.74,3.09,14.82,2.44
								c5.2-0.66,10.01-2.85,14.68-5.12c0.79-0.38,0.84-1.36,0.54-2.05c-0.62-1.41-1.38-2.88-1.69-4.4
								c-0.14-0.69-0.02-1.16,0.25-2.01c0.76-2.43,1.28-4.95,2.29-7.3c2.53-5.96,6.18-11.53,9.87-16.83
								c1.73-2.49,3.52-4.96,5.51-7.26c0.58-0.67,0.63-1.91-0.3-2.36c-6.65-3.21-14.29-2.54-21.43-3.49
								c-0.81-0.11-1.49,0.77-1.5,1.5c-0.01,0.9,0.7,1.39,1.5,1.5c6.55,0.88,13.82,0.14,19.92,3.08c-0.1-0.79-0.2-1.57-0.3-2.36
								c-4.22,4.86-7.84,10.33-11.16,15.84c-1.72,2.86-3.37,5.79-4.69,8.86c-1.12,2.6-1.75,5.32-2.59,8.02
								c-0.98,3.15,0.48,5.86,1.74,8.73c0.18-0.68,0.36-1.37,0.54-2.05c-3.8,1.85-7.69,3.64-11.86,4.48
								c-4.15,0.83-8.35,0.38-12.35-0.95c-6.43-2.15-13.04-6.77-13.02-14.23c0.01-3.65,0.81-7.41,2.34-10.72
								c1.67-3.61,4.2-6.21,7.44-8.47c3.51-2.45,7.36-4.38,11.3-6.02c3.57-1.49,7.35-2.54,10.86-4.15c1.03-0.47,2.9-1.79,4.04-1.22
								c0.88,0.44,1.56,1.34,2.2,2.07c0.59,0.68,1.21,1.34,1.79,2.03c2.69,3.26,4.5,7.23,7.94,9.82
								C1319.48,509.92,1320.98,507.32,1319.46,506.17L1319.46,506.17z"/>
						</g>
					</g>
				</g>
				<g>
					<g>
						<path d="M1293.66,512.62c0.35-3.77,0.95-7.53,1.95-11.21c0.49-1.84,1.08-3.67,1.8-5.45c0.73-1.8,1.55-3.49,2.37-5.21
							c3.36-6.8,7.26-13.5,12.75-19.11c2.73-2.79,5.89-5.28,9.47-7.13c3.6-1.85,7.59-2.86,11.72-2.91c2.17,0.01,4.34,0.55,6.26,1.49
							c1.91,0.98,3.59,2.33,4.88,3.94c2.62,3.2,3.88,7.32,3.48,11.18l-0.4,0.02c-0.78-3.68-2.63-6.93-5.17-9.24
							c-2.54-2.31-5.78-3.55-8.98-3.36c-3.41,0.25-6.9,1.04-10.12,2.42c-3.25,1.37-6.25,3.42-8.93,5.87
							c-5.37,4.93-9.54,11.23-13.2,17.75c-0.92,1.63-1.85,3.28-2.65,4.93c-0.8,1.67-1.49,3.4-2.1,5.17
							c-1.2,3.53-2.07,7.2-2.73,10.91L1293.66,512.62z"/>
					</g>
					<g>
						<path d="M1357.35,495.88c-0.24,2.46-1.05,4.9-2.29,7.09c-1.23,2.2-2.77,4.2-4.43,6.06c-1.66,1.87-3.46,3.6-5.28,5.26
							c-1.82,1.67-3.74,3.19-5.57,4.75l-1.44,1.2c-0.51,0.4-1.02,0.79-1.54,1.17c-1.04,0.75-2.1,1.46-3.18,2.12
							c-2.17,1.31-4.38,2.46-6.57,3.57c-1.1,0.56-2.14,1.1-3.33,1.66c-1.14,0.54-2.26,1.05-3.39,1.55
							c-2.26,0.98-4.51,1.89-6.79,2.82l-0.74,0.3l-0.93-0.14c-3.61-0.54-7.2-1.1-10.81-1.69c-1.8-0.3-3.6-0.64-5.41-0.99l-2.74-0.56
							c-0.47-0.11-0.92-0.19-1.42-0.32l-0.75-0.19l-0.92-0.28l-4.37-1.35l2.67-3.93c1.3-1.92,2.59-3.62,3.9-5.35
							c1.3-1.72,2.6-3.41,3.94-5.07l3.92-4.99c0.63-0.82,1.27-1.66,1.83-2.45l1.87-2.64c2.54-3.55,5.32-7.02,8.54-10.19
							c3.21-3.16,6.83-6.1,11.01-8.17c2.12-1.08,4.31-1.83,6.48-2.45c2.18-0.61,4.39-1.07,6.63-1.38c2.24-0.31,4.51-0.41,6.81-0.3
							c2.29,0.12,4.63,0.46,6.91,1.32c2.27,0.81,4.5,2.37,5.84,4.58c1.36,2.21,1.65,4.75,1.45,7.02c-0.21,2.29-0.82,4.44-1.68,6.48
							c-0.11,0.26-0.22,0.5-0.36,0.77c-0.16,0.3-0.31,0.52-0.47,0.75c-0.32,0.45-0.65,0.88-0.98,1.3l-0.99,1.26l-0.48,0.63
							l-0.22,0.32l-0.1,0.16c-0.04,0.03-0.04,0.16-0.06,0.04l-0.38,0.13c-0.03-0.25,0.04-0.25,0.06-0.34l0.1-0.19l0.2-0.36
							l0.43-0.68l0.87-1.34c0.57-0.91,1.17-1.76,1.48-2.77c0.69-1.99,1.13-4.09,1.19-6.19c0.05-2.09-0.36-4.24-1.56-5.94
							c-1.18-1.72-3.05-2.86-5.03-3.49c-2-0.65-4.12-0.87-6.23-0.89c-2.11-0.01-4.23,0.2-6.32,0.56c-2.09,0.36-4.15,0.86-6.17,1.51
							c-2.01,0.65-4,1.41-5.85,2.43c-3.74,1.99-7.03,4.73-9.97,7.77c-2.95,3.05-5.55,6.43-8.01,9.89
							c-4.77,7.09-10.45,13.53-15.36,20.45l-0.18-0.56c1.66,0.52,3.48,0.87,5.24,1.24l5.34,1.04c3.56,0.67,7.13,1.31,10.71,1.93
							l-0.17,0.02c4.53-1.73,9.08-3.42,13.45-5.51c4.4-2.03,8.75-4.19,12.54-7.21c3.87-2.93,7.8-5.79,11.26-9.17
							c1.72-1.69,3.33-3.51,4.64-5.53c1.31-2.01,2.33-4.24,2.77-6.6L1357.35,495.88z"/>
					</g>
					<g>
						<path d="M1304.68,496.06c3.32-5.07,7.68-9.5,12.68-13.07c5.02-3.55,10.75-6.21,16.9-7.59c3.06-0.7,6.3-1.04,9.39-0.9
							c1.59,0.07,3.27,0.28,4.94,0.85c0.83,0.3,1.67,0.69,2.45,1.22c0.38,0.23,0.8,0.59,1.08,0.84c0.29,0.26,0.58,0.52,0.87,0.8
							c1.17,1.09,2.3,2.35,3.15,3.79c0.85,1.43,1.48,3,1.79,4.59c0.18,0.79,0.24,1.6,0.32,2.39c0.01,0.8,0.03,1.59-0.05,2.37
							c-0.09,1.56-0.45,3.08-0.85,4.55l-0.4-0.06c0.02-3.01-0.2-6-1.22-8.61c-0.98-2.64-2.72-4.71-4.96-6.39
							c-0.28-0.21-0.57-0.43-0.87-0.64c-0.32-0.21-0.48-0.33-0.76-0.47c-0.51-0.26-1.07-0.46-1.68-0.6
							c-1.22-0.28-2.56-0.4-3.97-0.46c-2.92-0.09-5.74-0.22-8.61,0.18c-5.71,0.77-11.3,2.91-16.35,5.93
							c-5.09,3-9.69,6.91-13.52,11.53L1304.68,496.06z"/>
					</g>
					<g>
						<g>
							<path d="M1298.06,494.94c-7.01-2.22-14.83,1.82-20.95,4.88c-6.04,3.01-12.72,6.97-14.86,13.82
								c-1.4,4.47,0.73,8.09,3.74,11.27c1.33,1.4,3.45-0.72,2.12-2.12c-2.28-2.41-4.04-4.93-2.96-8.35c0.9-2.89,2.98-5.22,5.3-7.09
								c2.31-1.86,4.95-3.31,7.59-4.64c2.82-1.43,5.67-2.81,8.66-3.85c3.34-1.17,7.1-2.12,10.58-1.02
								C1299.11,498.42,1299.9,495.52,1298.06,494.94L1298.06,494.94z"/>
						</g>
					</g>
					<g>
						<path d="M1286.94,512.85c-3.35,1.12-6.47,2.74-9.35,4.7c-1.45,0.96-2.84,2-4.17,3.11c-1.34,1.09-2.63,2.25-3.85,3.46
							c-1.23,1.22-2.37,2.51-3.2,3.82c-0.85,1.31-1.51,2.59-1.71,3.74c-0.21,1.12,0.06,2.43,0.87,3.65
							c0.83,1.24,2.25,2.36,3.51,3.77l-0.21,0.34c-1.77-0.4-3.6-0.84-5.3-2.13c-1.7-1.26-2.96-3.51-2.86-5.95
							c0.09-2.42,1.27-4.36,2.56-5.84c1.33-1.5,2.81-2.63,4.21-3.79c2.84-2.3,5.89-4.31,9.15-5.92c3.27-1.57,6.7-2.84,10.26-3.36
							L1286.94,512.85z"/>
					</g>
					<g>
						<path d="M1276.67,528.86c-1.94,1.77-3.38,3.98-4.47,6.31c-0.54,1.17-0.99,2.39-1.35,3.62c-0.35,1.22-0.61,2.47-0.55,3.6
							c0.06,1.14,0.48,2,1.31,2.57c0.41,0.29,0.9,0.52,1.44,0.69c0.54,0.18,1.11,0.28,1.76,0.41c2.52,0.48,5.08,0.73,7.64,0.77
							c2.56,0.02,5.12-0.18,7.64-0.58c2.52-0.38,5.02-0.83,7.51-1.36c2.49-0.51,4.94-1.19,7.33-2.04c1.18-0.45,2.35-0.92,3.43-1.54
							c0.54-0.3,1.06-0.64,1.51-1.04c0.45-0.4,0.86-0.85,1.01-1.44h0.4c0.14,0.75-0.12,1.53-0.48,2.16
							c-0.35,0.66-0.82,1.21-1.31,1.74c-1,1.03-2.13,1.89-3.31,2.63c-2.36,1.5-4.94,2.56-7.56,3.39c-2.64,0.81-5.36,1.3-8.11,1.46
							c-2.75,0.14-5.49,0.09-8.22-0.15c-2.72-0.23-5.43-0.68-8.07-1.37c-1.29-0.34-2.83-0.8-4.08-1.87
							c-0.63-0.53-1.17-1.24-1.48-2.03c-0.31-0.79-0.41-1.61-0.38-2.37c0.07-1.53,0.52-2.87,1.02-4.15
							c0.51-1.27,1.11-2.49,1.79-3.66c1.37-2.34,3.13-4.48,5.32-6.05L1276.67,528.86z"/>
					</g>
					<g>
						<g>
							<path d="M1285.18,535.05c-2.91,0.5-5.73,1.17-8.37,2.53c-3.11,1.6-6.33,3.29-8.19,6.39c-1,1.66,1.6,3.17,2.59,1.51
								c1.59-2.64,4.57-4.02,7.22-5.37c0.98-0.5,1.4-0.68,2.5-1.03c1.64-0.52,3.35-0.85,5.04-1.14c0.8-0.14,1.25-1.12,1.05-1.85
								C1286.8,535.25,1285.98,534.91,1285.18,535.05L1285.18,535.05z"/>
						</g>
					</g>
				</g>
				<path class="st22" d="M1288.16,526.17c-1.99,3.34-3.13,6.46-3.79,10.32c4.67,0.62,19.73,3.06,25.24,2.1
					c-1.28-2.71-2.38-5.93-2.51-8.23c-6.46-0.86-12.88-1.37-19.22-3.5c-0.04-0.23,0.12-0.33,0.49-0.27"/>
			</g>
		</g>
	</g>
</g>
</svg>
