<svg id="Layer_1" data-name="Layer 1" xmlns="http://www.w3.org/2000/svg" viewBox="0 0 720 480.47"><defs><style>.cls-1,.cls-7{fill:#f0ede3;}.cls-2{fill:#5e4137;}.cls-3,.cls-5{stroke:#000;}.cls-3,.cls-5,.cls-6,.cls-7{stroke-miterlimit:10;}.cls-4{fill:#8b6b62;}.cls-5,.cls-6{fill:none;}.cls-6,.cls-7{stroke:#f0ede3;}</style></defs><title>Deer-01</title><rect class="cls-1" width="720" height="480.47"/><path class="cls-2" d="M320.58,212.17h74.53a0,0,0,0,1,0,0v72.12a0,0,0,0,1,0,0H248.46a0,0,0,0,1,0,0v0A72.12,72.12,0,0,1,320.58,212.17Z"/><rect class="cls-3" x="248.96" y="284.76" width="0.36" height="105.56"/><rect class="cls-3" x="394.26" y="284.29" width="0.36" height="105.56"/><rect class="cls-3" x="360.77" y="284.29" width="0.36" height="105.56"/><rect class="cls-3" x="282.26" y="284.76" width="0.36" height="105.56"/><path class="cls-4" d="M395.1,178.79H435a0,0,0,0,1,0,0V244.4a39.87,39.87,0,0,1-39.87,39.87h0a0,0,0,0,1,0,0V178.79A0,0,0,0,1,395.1,178.79Z"/><line class="cls-5" x1="360.95" y1="105.28" x2="393.75" y2="105.28"/><line class="cls-5" x1="360.95" y1="122.12" x2="393.75" y2="122.12"/><line class="cls-5" x1="435.5" y1="105.28" x2="468.3" y2="105.28"/><line class="cls-5" x1="435.5" y1="122.12" x2="468.3" y2="122.12"/><path class="cls-5" d="M385.1,90.16a38.23,38.23,0,1,0,59,0" transform="translate(0 0)"/><path class="cls-2" d="M395.1,147.22h76.44a0,0,0,0,1,0,0v0A31.58,31.58,0,0,1,440,178.81H395.1a0,0,0,0,1,0,0V147.22A0,0,0,0,1,395.1,147.22Z"/><rect class="cls-6" x="394.26" y="179.33" width="0.36" height="104.45"/><rect class="cls-7" x="420.05" y="154.34" width="0.36" height="50.27" transform="translate(240.74 599.7) rotate(-90)"/></svg>