<svg id="Layer_2" data-name="Layer 2" xmlns="http://www.w3.org/2000/svg" viewBox="0 0 720 420"><defs><style>.cls-1{fill:#900;}.cls-2{fill:#fff;stroke:#fff;stroke-miterlimit:10;stroke-width:0.58px;}</style></defs><title>indiana-thumbnail-01</title><rect class="cls-1" width="720" height="420"/><polygon class="cls-2" points="449.54 144.08 436.31 144.08 436.31 253.85 414.83 275.78 377.94 275.78 377.94 301.07 391.14 301.07 391.14 323 329.12 323 329.12 301.07 342.31 301.07 342.31 275.78 305.14 275.78 283.67 253.85 283.67 144.08 270.46 144.08 270.46 127.05 328.89 127.05 328.89 144.08 317.13 144.08 317.13 238.87 342.31 238.87 342.31 114.02 329.07 114.02 329.07 97 391.18 97 391.18 114.02 377.94 114.02 377.94 238.87 402.84 238.87 402.84 144.08 391.08 144.08 391.08 127.05 449.54 127.05 449.54 144.08"/></svg>