<svg id="Layer_2" data-name="Layer 2" xmlns="http://www.w3.org/2000/svg" viewBox="0 0 2530 792"><defs><style>.cls-1{fill:#fff;}.cls-2{fill:#0dbe98;}</style></defs><title>loteria-banner</title><rect width="2530" height="792"/><polyline class="cls-1" points="1115.46 418.6 1130.17 418.6 1138.07 373.4 1123.36 373.4 1120.47 389.59 1107.7 389.59 1110.59 373.4 1095.88 373.4 1087.97 418.6 1102.69 418.6 1105.65 401.69 1118.42 401.69 1115.46 418.6"/><path class="cls-1" d="M1146.43,373.4l-4.49,25.14a30.62,30.62,0,0,0-.55,5.67c0,13.35,11.67,15.35,18.63,15.35,14.67,0,21-4.88,23.29-18l4.92-28.16h-14.71L1169.34,397c-1.34,7.39-2.29,11.24-7.8,11.24-3.58,0-5.33-1.9-5.33-5.81a31.11,31.11,0,0,1,.66-5.64l4.27-23.41h-14.71"/><path class="cls-1" d="M1266.1,418.6h14.71L1282.9,407h6.92c12.84,0,19.91-7,19.91-19.59,0-8.89-6.17-14-16.94-14H1274l-7.9,45.2M1289,395.84h-4.25l2-10.66h4c3.22,0,5,1.64,5,4.61C1295.71,393.52,1293.15,395.84,1289,395.84Z"/><path class="cls-1" d="M1338.38,372.44c-16,0-25.6,10.38-25.6,27.77,0,12.11,7.62,19.35,20.39,19.35,16,0,25.6-10.38,25.6-27.77,0-12.11-7.62-19.35-20.39-19.35m-4.33,35.42c-3.78,0-6-2.74-6-7.33a24.33,24.33,0,0,1,.5-5c1.14-5.9,3-11.38,9-11.38,3.79,0,6,2.74,6,7.33a24.16,24.16,0,0,1-.5,5C1341.91,402.39,1340,407.86,1334.05,407.86Z"/><polyline class="cls-1" points="1409.95 418.6 1424.66 418.6 1430.51 385.5 1441.63 385.5 1443.76 373.4 1406.07 373.4 1403.94 385.5 1415.72 385.5 1409.95 418.6"/><path class="cls-1" d="M1385.58,390.11c-4.64-1.46-6.56-2.07-6.56-4.25,0-1.46,1-3.16,3.72-3.16a4.77,4.77,0,0,1,4.5,2.9l13-3.5c-1.51-6.4-7-9.66-16.46-9.66-17.81,0-19.19,11.93-19.19,15.59,0,7.41,3.94,11.94,12.4,14.26,2.26.59,4.82,1.27,4.82,3.77,0,2-1.48,3.16-4,3.16a6.08,6.08,0,0,1-5.63-3.68L1359.39,409c1.42,6.72,7.75,10.54,17.67,10.54,7.55,0,20.23-2,20.23-15.67,0-6.86-3.83-11.36-11.71-13.78"/><polyline class="cls-1" points="1196.68 373.4 1188.77 418.6 1203.49 418.6 1205.81 405.29 1218.19 405.29 1220.25 393.92 1207.88 393.92 1209.25 385.5 1226.56 385.5 1228.69 373.4 1196.68 373.4"/><polyline class="cls-1" points="1235.3 373.4 1227.39 418.6 1242.11 418.6 1244.43 405.29 1256.82 405.29 1258.88 393.92 1246.5 393.92 1247.87 385.5 1265.18 385.5 1267.32 373.4 1235.3 373.4"/><polyline class="cls-2" points="1079.89 418.58 1063.37 418.58 1063.37 373.39 1087.86 373.39 1079.89 418.58"/><polyline class="cls-2" points="1450.11 373.39 1466.63 373.39 1466.63 418.58 1442.14 418.58 1450.11 373.39"/></svg>