<?xml version="1.0" encoding="utf-8"?>
<!-- Generator: Adobe Illustrator 23.0.6, SVG Export Plug-In . SVG Version: 6.00 Build 0)  -->
<svg version="1.1" id="Layer_1" xmlns="http://www.w3.org/2000/svg" xmlns:xlink="http://www.w3.org/1999/xlink" x="0px" y="0px"
	 viewBox="0 0 500 500" style="enable-background:new 0 0 500 500;" xml:space="preserve">
<style type="text/css">
	.st0{fill:url(#SVGID_1_);}
	.st1{fill:#FF5611;}
	.st2{fill:url(#SVGID_2_);}
	.st3{fill:#F97319;}
	.st4{fill:url(#SVGID_3_);}
	.st5{fill:#F98A26;}
</style>
<title>tremor-logo-color</title>
<g>
	<g>
		
			<linearGradient id="SVGID_1_" gradientUnits="userSpaceOnUse" x1="87.1179" y1="250" x2="452.5009" y2="250" gradientTransform="matrix(1 0 0 -1 0 500)">
			<stop  offset="0" style="stop-color:#FCCA00"/>
			<stop  offset="1" style="stop-color:#FF0078"/>
		</linearGradient>
		<path class="st0" d="M386.4,196c36.3,26.6,36.3,81.4,0,108l-113.2,83l-81.9,60.1c-43.6,32-104.9,0.5-104.9-54V106.8
			c0-54.5,61.3-86,104.9-54l81.9,60.1L386.4,196z"/>
		<path class="st1" d="M386.5,193.7c36.2,26.3,36.2,80.2,0,106.4L273.8,382l-81.6,59.2c-43.5,31.6-104.4,0.5-104.4-53.2V105.9
			c0-53.7,60.9-84.8,104.4-53.2l81.6,59.2L386.5,193.7z"/>
		
			<image style="overflow:visible;opacity:0.15;enable-background:new    ;" width="331" height="408" xlink:href="F54E3AA6B08CD9C.png"  transform="matrix(0.8724 0 0 0.8724 99.8316 71.059)">
		</image>
		
			<linearGradient id="SVGID_2_" gradientUnits="userSpaceOnUse" x1="112.0466" y1="251.3125" x2="345.4686" y2="251.3125" gradientTransform="matrix(1 0 0 -1 0 500)">
			<stop  offset="0" style="stop-color:#FCCA00"/>
			<stop  offset="1" style="stop-color:#FF0078"/>
		</linearGradient>
		<path class="st2" d="M326,210c25.9,19.1,25.9,58.2,0,77.2l-80.7,59.4l-58.4,43c-31.2,22.9-74.8,0.4-74.8-38.6V146.3
			c0-39,43.7-61.5,74.8-38.6l58.4,43L326,210z"/>
		<path class="st3" d="M326.1,208.2c21,15.2,25.6,44.6,10.4,65.6c-2.9,4-6.4,7.5-10.4,10.4l-80.5,58.4l-58.2,42.3
			c-31,22.5-74.6,0.4-74.6-38V145.5c0-38.4,43.5-60.5,74.6-38l58.2,42.3L326.1,208.2z"/>
		
			<image style="overflow:visible;opacity:0.15;enable-background:new    ;" width="171" height="210" xlink:href="F54E3AA6B08CD9D.png"  transform="matrix(0.8699 0 0 0.8699 130.3604 156.7109)">
		</image>
		
			<linearGradient id="SVGID_3_" gradientUnits="userSpaceOnUse" x1="137.2292" y1="252.0687" x2="256.8843" y2="252.0687" gradientTransform="matrix(1 0 0 -1 0 500)">
			<stop  offset="0" style="stop-color:#FCCA00"/>
			<stop  offset="1" style="stop-color:#FF0078"/>
		</linearGradient>
		<path class="st4" d="M246.9,228.1c11,8.2,13.2,23.7,5,34.7c-1.4,1.9-3.1,3.6-5,5l-41.4,30.6l-30,22.1c-16,11.8-38.3,0.2-38.3-19.9
			V195.3c0-20.1,22.4-31.7,38.3-19.9l30,22.1L246.9,228.1z"/>
		<path class="st5" d="M247,226.8c10.7,7.8,13.1,22.8,5.3,33.5c-1.5,2-3.3,3.8-5.3,5.3l-41.1,29.9l-29.8,21.6
			c-15.9,11.5-38.1,0.2-38.1-19.4v-103c0-19.6,22.3-31,38.1-19.4l29.8,21.6L247,226.8z"/>
	</g>
</g>
</svg>
