<svg xmlns="http://www.w3.org/2000/svg" viewBox="0 0 500 500"><defs><style>.cls-1{fill:#212121;}.cls-2{fill:#fff;}</style></defs><title>tremor-logo-white</title><g id="Layer_2" data-name="Layer 2"><rect class="cls-1" x="0.07" y="-0.34" width="500" height="500"/></g><g id="Layer_1" data-name="Layer 1"><path class="cls-2" d="M386.74,196l-113.5-83L191.09,52.85c-43.78-32-105.15-.52-105.15,54v286.3c0,54.52,61.37,86,105.15,54L273.24,387l113.5-83C423.16,277.35,423.16,222.65,386.74,196Zm-50.59,99.49-86.28,63.7-62.45,46.1c-33.28,24.57-79.93.4-79.93-41.42V144.28c0-41.81,46.65-66,79.93-41.42L249.87,149l86.28,63.69C363.83,233.1,363.83,275.05,336.15,295.49Z"/><path class="cls-2" d="M326,210.71l-81-59.29L186.25,108.5c-31.26-22.87-75.07-.37-75.07,38.56V351.47c0,38.93,43.81,61.43,75.07,38.56l58.66-42.92,81-59.29C352,268.79,352,229.74,326,210.71ZM253.83,273,208,306.54l-33.17,24.27c-17.68,12.94-42.46.21-42.46-21.81V193.38c0-22,24.78-34.75,42.46-21.81L208,195.85l45.83,33.53A27.07,27.07,0,0,1,253.83,273Z"/><path class="cls-2" d="M246.25,229.55a24.47,24.47,0,0,1,0,39.43l-41.44,30.33-30,21.95c-16,11.7-38.4.19-38.4-19.72V197c0-19.91,22.41-31.41,38.4-19.72l30,21.95Z"/></g></svg>