<?xml version="1.0" encoding="utf-8"?>
<!-- Generator: Adobe Illustrator 23.0.6, SVG Export Plug-In . SVG Version: 6.00 Build 0)  -->
<svg version="1.1" id="Layer_2" xmlns="http://www.w3.org/2000/svg" xmlns:xlink="http://www.w3.org/1999/xlink" x="0px" y="0px"
	 viewBox="0 0 1054 126" style="enable-background:new 0 0 1054 126;" xml:space="preserve">
<style type="text/css">
	.st0{fill:none;stroke:#000000;stroke-width:1.1266;stroke-linecap:round;stroke-miterlimit:10;}
	.st1{fill:#FFFFFF;}
</style>
<g>
	<path class="st0" d="M196.12,79.98l11.54-10.94l-11.57-10.91"/>
	<line class="st0" x1="207.66" y1="69" x2="152.46" y2="69"/>
</g>
<g>
	<path class="st0" d="M887.5,79.98l11.54-10.94l-11.57-10.91"/>
	<line class="st0" x1="899.04" y1="69" x2="843.84" y2="69"/>
</g>
<g>
	<path class="st0" d="M427.07,79.98l11.54-10.94l-11.57-10.91"/>
	<line class="st0" x1="438.61" y1="69" x2="383.41" y2="69"/>
</g>
<g>
	<path class="st0" d="M639.72,50.05l9.1-8.62l-9.12-8.6"/>
	<path class="st0" d="M647.59,86.92l-9.1,8.62l9.12,8.6"/>
	<g>
		<path class="st0" d="M639.02,95.62c1.51,0.26,3.06,0.39,4.63,0.39c15.2,0,27.52-12.32,27.52-27.52c0-11.64-7.22-21.58-17.43-25.6"
			/>
		<path class="st0" d="M648.45,41.38c-1.56-0.27-3.16-0.42-4.8-0.42c-15.2,0-27.52,12.32-27.52,27.52c0,11.64,7.22,21.58,17.43,25.6
			"/>
	</g>
</g>
<g>
	<g>
		<path d="M924.9,0.41v125.61h128.99V0.41H924.9z"/>
	</g>
</g>
<g>
	<path d="M-0.08,0v125.61h128.99V0H-0.08z"/>
</g>
<g>
	<path class="st1" d="M11.81,56.03h2.46v11.2h-2.46V56.03z"/>
	<path class="st1" d="M16.82,58.65h2.43v1.22c0.56-0.72,1.28-1.38,2.51-1.38c1.84,0,2.91,1.22,2.91,3.19v5.55h-2.43v-4.79
		c0-1.15-0.54-1.74-1.47-1.74s-1.52,0.59-1.52,1.74v4.79h-2.43V58.65z"/>
	<path class="st1" d="M25.7,58.65h2.58l1.92,5.75l1.94-5.75h2.53l-3.38,8.64h-2.21L25.7,58.65z"/>
	<path class="st1" d="M35.17,62.99v-0.03c0-2.45,1.74-4.47,4.24-4.47c2.87,0,4.18,2.23,4.18,4.66c0,0.19-0.02,0.42-0.03,0.64h-5.97
		c0.24,1.1,1.01,1.68,2.1,1.68c0.82,0,1.41-0.26,2.08-0.88l1.39,1.23c-0.8,0.99-1.95,1.6-3.51,1.6
		C37.08,67.42,35.17,65.61,35.17,62.99z M41.22,62.27c-0.14-1.09-0.78-1.82-1.81-1.82c-1.01,0-1.66,0.72-1.86,1.82H41.22z"/>
	<path class="st1" d="M44.72,66.09l1.04-1.6c0.93,0.67,1.9,1.02,2.71,1.02c0.7,0,1.02-0.26,1.02-0.64v-0.03
		c0-0.53-0.83-0.7-1.78-0.99c-1.2-0.35-2.56-0.91-2.56-2.58v-0.03c0-1.74,1.41-2.72,3.14-2.72c1.09,0,2.27,0.37,3.2,0.99l-0.93,1.68
		c-0.85-0.5-1.7-0.8-2.32-0.8c-0.59,0-0.9,0.26-0.9,0.59v0.03c0,0.48,0.82,0.7,1.75,1.02c1.2,0.4,2.59,0.98,2.59,2.55v0.03
		c0,1.91-1.42,2.77-3.28,2.77C47.21,67.39,45.86,66.99,44.72,66.09z"/>
	<path class="st1" d="M53.67,64.8v-4.07h-1.02v-2.08h1.02v-2.19h2.43v2.19h2.02v2.08H56.1v3.67c0,0.56,0.24,0.83,0.78,0.83
		c0.45,0,0.85-0.11,1.2-0.3v1.95c-0.51,0.3-1.1,0.5-1.92,0.5C54.68,67.38,53.67,66.78,53.67,64.8z"/>
	<path class="st1" d="M59.96,55.55h2.56v2.16h-2.56V55.55z M60.02,58.65h2.43v8.58h-2.43V58.65z"/>
	<path class="st1" d="M64.79,68.93l0.83-1.82c0.88,0.5,1.76,0.78,2.9,0.78c1.67,0,2.45-0.8,2.45-2.34v-0.42
		c-0.72,0.86-1.5,1.39-2.8,1.39c-2,0-3.81-1.46-3.81-4v-0.03c0-2.56,1.84-4,3.81-4c1.33,0,2.11,0.56,2.77,1.28v-1.12h2.43v6.64
		c0,1.54-0.37,2.66-1.09,3.38c-0.8,0.8-2.03,1.15-3.7,1.15C67.19,69.82,65.88,69.5,64.79,68.93z M70.97,62.52v-0.03
		c0-1.17-0.91-1.98-2.1-1.98s-2.08,0.82-2.08,1.98v0.03c0,1.18,0.9,1.98,2.08,1.98S70.97,63.69,70.97,62.52z"/>
	<path class="st1" d="M75.03,64.77v-0.03c0-1.87,1.42-2.74,3.46-2.74c0.86,0,1.49,0.14,2.1,0.35V62.2c0-1.01-0.62-1.57-1.84-1.57
		c-0.93,0-1.58,0.18-2.37,0.46l-0.61-1.86c0.94-0.42,1.87-0.69,3.33-0.69c1.33,0,2.29,0.35,2.9,0.96c0.64,0.64,0.93,1.58,0.93,2.74
		v4.98h-2.35V66.3c-0.59,0.66-1.41,1.09-2.59,1.09C76.36,67.39,75.03,66.46,75.03,64.77z M80.61,64.21v-0.43
		c-0.42-0.19-0.96-0.32-1.55-0.32c-1.04,0-1.68,0.42-1.68,1.18v0.03c0,0.66,0.54,1.04,1.33,1.04
		C79.85,65.71,80.61,65.09,80.61,64.21z"/>
	<path class="st1" d="M84.6,62.99v-0.03c0-2.45,1.87-4.47,4.5-4.47c1.62,0,2.62,0.54,3.43,1.44l-1.49,1.6
		c-0.54-0.58-1.09-0.94-1.95-0.94c-1.22,0-2.08,1.07-2.08,2.34v0.03c0,1.31,0.85,2.37,2.18,2.37c0.82,0,1.38-0.35,1.97-0.91
		l1.42,1.44c-0.83,0.91-1.79,1.57-3.51,1.57C86.48,67.42,84.6,65.44,84.6,62.99z"/>
	<path class="st1" d="M94.2,55.55h2.56v2.16H94.2V55.55z M94.26,58.65h2.43v8.58h-2.43V58.65z"/>
	<path class="st1" d="M98.56,62.99v-0.03c0-2.47,1.98-4.47,4.66-4.47c2.66,0,4.63,1.97,4.63,4.43v0.03c0,2.46-1.98,4.47-4.66,4.47
		C100.53,67.42,98.56,65.45,98.56,62.99z M105.45,62.99v-0.03c0-1.26-0.91-2.37-2.26-2.37c-1.39,0-2.23,1.07-2.23,2.34v0.03
		c0,1.26,0.91,2.37,2.26,2.37C104.61,65.33,105.45,64.25,105.45,62.99z M104.02,54.87l2.1,0.91l-2.08,1.92h-1.79L104.02,54.87z"/>
	<path class="st1" d="M109.6,58.65h2.43v1.22c0.56-0.72,1.28-1.38,2.51-1.38c1.84,0,2.91,1.22,2.91,3.19v5.55h-2.43v-4.79
		c0-1.15-0.54-1.74-1.47-1.74s-1.52,0.59-1.52,1.74v4.79h-2.43V58.65z"/>
</g>
<path d="M231.04,0v125.61h128.99V0H231.04z"/>
<g>
	<path class="st1" d="M275.92,56.03h2.46v11.2h-2.46V56.03z"/>
	<path class="st1" d="M280.54,62.96v-0.03c0-2.87,1.87-4.43,3.91-4.43c1.3,0,2.1,0.59,2.67,1.28v-4.23h2.43v11.68h-2.43V66
		c-0.59,0.8-1.41,1.39-2.67,1.39C282.45,67.39,280.54,65.82,280.54,62.96z M287.15,62.96v-0.03c0-1.42-0.94-2.37-2.08-2.37
		c-1.14,0-2.1,0.93-2.1,2.37v0.03c0,1.42,0.96,2.37,2.1,2.37C286.21,65.33,287.15,64.38,287.15,62.96z"/>
	<path class="st1" d="M291.31,62.99v-0.03c0-2.45,1.74-4.47,4.24-4.47c2.87,0,4.18,2.23,4.18,4.66c0,0.19-0.02,0.42-0.03,0.64h-5.97
		c0.24,1.1,1.01,1.68,2.1,1.68c0.82,0,1.41-0.26,2.08-0.88l1.39,1.23c-0.8,0.99-1.95,1.6-3.51,1.6
		C293.22,67.42,291.31,65.61,291.31,62.99z M297.36,62.27c-0.14-1.09-0.78-1.82-1.81-1.82c-1.01,0-1.66,0.72-1.86,1.82H297.36z"/>
	<path class="st1" d="M301.02,64.77v-0.03c0-1.87,1.42-2.74,3.46-2.74c0.86,0,1.49,0.14,2.1,0.35V62.2c0-1.01-0.62-1.57-1.84-1.57
		c-0.93,0-1.58,0.18-2.37,0.46l-0.61-1.86c0.94-0.42,1.87-0.69,3.33-0.69c1.33,0,2.29,0.35,2.9,0.96c0.64,0.64,0.93,1.58,0.93,2.74
		v4.98h-2.35V66.3c-0.59,0.66-1.41,1.09-2.59,1.09C302.35,67.39,301.02,66.46,301.02,64.77z M306.61,64.21v-0.43
		c-0.42-0.19-0.96-0.32-1.55-0.32c-1.04,0-1.68,0.42-1.68,1.18v0.03c0,0.66,0.54,1.04,1.33,1.04
		C305.84,65.71,306.61,65.09,306.61,64.21z"/>
	<path class="st1" d="M311.01,58.65h2.43v1.73c0.5-1.18,1.3-1.95,2.74-1.89v2.55h-0.13c-1.62,0-2.61,0.98-2.61,3.03v3.17h-2.43
		V58.65z"/>
</g>
<path d="M461.53,0v125.61h128.99V0H461.53z"/>
<g>
	<path class="st1" d="M487.86,56.03h8.45v2.19h-6v2.27h5.28v2.19h-5.28v2.35h6.08v2.19h-8.53V56.03z"/>
	<path class="st1" d="M497.05,69.74v-1.9c0.19,0.03,0.34,0.05,0.51,0.05c0.51,0,0.87-0.27,0.87-0.99v-8.24h2.43v8.43
		c0,1.89-0.96,2.75-2.75,2.75C497.66,69.84,497.39,69.81,497.05,69.74z M498.37,55.55h2.56v2.16h-2.56V55.55z"/>
	<path class="st1" d="M502.74,62.99v-0.03c0-2.45,1.74-4.47,4.24-4.47c2.87,0,4.18,2.23,4.18,4.66c0,0.19-0.02,0.42-0.03,0.64h-5.97
		c0.24,1.1,1.01,1.68,2.1,1.68c0.82,0,1.41-0.26,2.08-0.88l1.39,1.23c-0.8,0.99-1.95,1.6-3.51,1.6
		C504.64,67.42,502.74,65.61,502.74,62.99z M508.79,62.27c-0.14-1.09-0.78-1.82-1.81-1.82c-1.01,0-1.66,0.72-1.86,1.82H508.79z"/>
	<path class="st1" d="M512.54,62.99v-0.03c0-2.45,1.87-4.47,4.5-4.47c1.62,0,2.62,0.54,3.43,1.44l-1.49,1.6
		c-0.54-0.58-1.09-0.94-1.95-0.94c-1.22,0-2.08,1.07-2.08,2.34v0.03c0,1.31,0.85,2.37,2.18,2.37c0.82,0,1.38-0.35,1.97-0.91
		l1.42,1.44c-0.83,0.91-1.79,1.57-3.5,1.57C514.43,67.42,512.54,65.44,512.54,62.99z"/>
	<path class="st1" d="M522.03,64.21v-5.55h2.43v4.79c0,1.15,0.54,1.74,1.47,1.74s1.52-0.59,1.52-1.74v-4.79h2.43v8.58h-2.43v-1.22
		c-0.56,0.72-1.28,1.38-2.51,1.38C523.1,67.39,522.03,66.17,522.03,64.21z"/>
	<path class="st1" d="M531.65,62.99v-0.03c0-2.45,1.87-4.47,4.5-4.47c1.62,0,2.62,0.54,3.43,1.44l-1.49,1.6
		c-0.54-0.58-1.09-0.94-1.95-0.94c-1.22,0-2.08,1.07-2.08,2.34v0.03c0,1.31,0.85,2.37,2.18,2.37c0.82,0,1.38-0.35,1.97-0.91
		l1.42,1.44c-0.83,0.91-1.79,1.57-3.51,1.57C533.54,67.42,531.65,65.44,531.65,62.99z"/>
	<path class="st1" d="M541.25,55.55h2.56v2.16h-2.56V55.55z M541.31,58.65h2.43v8.58h-2.43V58.65z"/>
	<path class="st1" d="M545.61,62.99v-0.03c0-2.47,1.99-4.47,4.66-4.47c2.66,0,4.63,1.97,4.63,4.43v0.03c0,2.46-1.99,4.47-4.66,4.47
		C547.58,67.42,545.61,65.45,545.61,62.99z M552.5,62.99v-0.03c0-1.26-0.91-2.37-2.26-2.37c-1.39,0-2.22,1.07-2.22,2.34v0.03
		c0,1.26,0.91,2.37,2.26,2.37C551.67,65.33,552.5,64.25,552.5,62.99z M551.07,54.87l2.1,0.91l-2.08,1.92h-1.79L551.07,54.87z"/>
	<path class="st1" d="M556.65,58.65h2.43v1.22c0.56-0.72,1.28-1.38,2.51-1.38c1.84,0,2.91,1.22,2.91,3.19v5.55h-2.43v-4.79
		c0-1.15-0.54-1.74-1.47-1.74c-0.93,0-1.52,0.59-1.52,1.74v4.79h-2.43V58.65z"/>
</g>
<path d="M693.67,0v125.61h128.99V0H693.67z"/>
<g>
	<path class="st1" d="M737.61,56.03h2.46v11.2h-2.46V56.03z"/>
	<path class="st1" d="M743.02,64.8v-4.07h-1.02v-2.08h1.02v-2.19h2.43v2.19h2.02v2.08h-2.02v3.67c0,0.56,0.24,0.83,0.78,0.83
		c0.45,0,0.85-0.11,1.2-0.3v1.95c-0.51,0.3-1.1,0.5-1.92,0.5C744.02,67.38,743.02,66.78,743.02,64.8z"/>
	<path class="st1" d="M748.6,62.99v-0.03c0-2.45,1.75-4.47,4.24-4.47c2.87,0,4.18,2.23,4.18,4.66c0,0.19-0.02,0.42-0.03,0.64h-5.97
		c0.24,1.1,1.01,1.68,2.1,1.68c0.82,0,1.41-0.26,2.08-0.88l1.39,1.23c-0.8,0.99-1.95,1.6-3.5,1.6
		C750.5,67.42,748.6,65.61,748.6,62.99z M754.65,62.27c-0.14-1.09-0.78-1.82-1.81-1.82c-1.01,0-1.67,0.72-1.86,1.82H754.65z"/>
	<path class="st1" d="M758.82,58.65h2.43v1.73c0.5-1.18,1.3-1.95,2.74-1.89v2.55h-0.13c-1.62,0-2.61,0.98-2.61,3.03v3.17h-2.43
		V58.65z"/>
	<path class="st1" d="M764.6,64.77v-0.03c0-1.87,1.42-2.74,3.46-2.74c0.87,0,1.49,0.14,2.1,0.35V62.2c0-1.01-0.62-1.57-1.84-1.57
		c-0.93,0-1.58,0.18-2.37,0.46l-0.61-1.86c0.94-0.42,1.87-0.69,3.33-0.69c1.33,0,2.29,0.35,2.9,0.96c0.64,0.64,0.93,1.58,0.93,2.74
		v4.98h-2.35V66.3c-0.59,0.66-1.41,1.09-2.59,1.09C765.93,67.39,764.6,66.46,764.6,64.77z M770.19,64.21v-0.43
		c-0.42-0.19-0.96-0.32-1.55-0.32c-1.04,0-1.68,0.42-1.68,1.18v0.03c0,0.66,0.54,1.04,1.33,1.04
		C769.42,65.71,770.19,65.09,770.19,64.21z"/>
	<path class="st1" d="M774.58,58.65h2.43v1.73c0.5-1.18,1.3-1.95,2.74-1.89v2.55h-0.13c-1.62,0-2.61,0.98-2.61,3.03v3.17h-2.43
		V58.65z"/>
</g>
<g>
	<path class="st1" d="M955.47,56.44h8.45v2.19h-6v2.27h5.28v2.19h-5.28v2.35H964v2.19h-8.53V56.44z"/>
	<path class="st1" d="M965.94,59.06h2.43v1.22c0.56-0.72,1.28-1.38,2.51-1.38c1.84,0,2.91,1.22,2.91,3.19v5.55h-2.43v-4.79
		c0-1.15-0.54-1.74-1.47-1.74s-1.52,0.59-1.52,1.74v4.79h-2.43V59.06z"/>
	<path class="st1" d="M976.3,65.21v-4.07h-1.02v-2.08h1.02v-2.19h2.43v2.19h2.02v2.08h-2.02v3.67c0,0.56,0.24,0.83,0.78,0.83
		c0.45,0,0.85-0.11,1.2-0.3v1.95c-0.51,0.3-1.1,0.5-1.92,0.5C977.31,67.79,976.3,67.2,976.3,65.21z"/>
	<path class="st1" d="M982.55,59.06h2.43v1.73c0.5-1.18,1.3-1.95,2.74-1.89v2.55h-0.13c-1.62,0-2.61,0.98-2.61,3.03v3.17h-2.43
		V59.06z"/>
	<path class="st1" d="M988.58,63.4v-0.03c0-2.45,1.75-4.47,4.24-4.47c2.87,0,4.18,2.23,4.18,4.66c0,0.19-0.02,0.42-0.03,0.64h-5.97
		c0.24,1.1,1.01,1.68,2.1,1.68c0.82,0,1.41-0.26,2.08-0.88l1.39,1.23c-0.8,0.99-1.95,1.6-3.5,1.6
		C990.48,67.84,988.58,66.03,988.58,63.4z M994.63,62.68c-0.14-1.09-0.78-1.82-1.81-1.82c-1.01,0-1.67,0.72-1.86,1.82H994.63z"/>
	<path class="st1" d="M998.85,69.34l0.83-1.83c0.88,0.5,1.76,0.78,2.9,0.78c1.66,0,2.45-0.8,2.45-2.34v-0.42
		c-0.72,0.86-1.5,1.39-2.8,1.39c-2,0-3.81-1.46-3.81-4v-0.03c0-2.56,1.84-4,3.81-4c1.33,0,2.11,0.56,2.77,1.28v-1.12h2.43v6.64
		c0,1.54-0.37,2.66-1.09,3.38c-0.8,0.8-2.03,1.15-3.7,1.15C1001.25,70.24,999.94,69.92,998.85,69.34z M1005.03,62.94v-0.03
		c0-1.17-0.91-1.98-2.1-1.98s-2.08,0.82-2.08,1.98v0.03c0,1.18,0.9,1.99,2.08,1.99S1005.03,64.11,1005.03,62.94z"/>
	<path class="st1" d="M1009.09,65.18v-0.03c0-1.87,1.42-2.74,3.46-2.74c0.87,0,1.49,0.14,2.1,0.35v-0.14c0-1.01-0.62-1.57-1.84-1.57
		c-0.93,0-1.58,0.18-2.37,0.46l-0.61-1.86c0.94-0.42,1.87-0.69,3.33-0.69c1.33,0,2.29,0.35,2.9,0.96c0.64,0.64,0.93,1.58,0.93,2.74
		v4.98h-2.35v-0.93c-0.59,0.66-1.41,1.09-2.59,1.09C1010.42,67.8,1009.09,66.88,1009.09,65.18z M1014.67,64.62v-0.43
		c-0.42-0.19-0.96-0.32-1.55-0.32c-1.04,0-1.68,0.42-1.68,1.18v0.03c0,0.66,0.54,1.04,1.33,1.04
		C1013.91,66.12,1014.67,65.5,1014.67,64.62z"/>
	<path class="st1" d="M1019.07,59.06h2.43v1.73c0.5-1.18,1.3-1.95,2.74-1.89v2.55h-0.13c-1.62,0-2.61,0.98-2.61,3.03v3.17h-2.43
		V59.06z"/>
</g>
</svg>
