<?xml version="1.0" encoding="utf-8"?>
<!-- Generator: Adobe Illustrator 23.0.6, SVG Export Plug-In . SVG Version: 6.00 Build 0)  -->
<svg version="1.1" id="Layer_1" xmlns="http://www.w3.org/2000/svg" xmlns:xlink="http://www.w3.org/1999/xlink" x="0px" y="0px"
	 viewBox="0 0 500 500" style="enable-background:new 0 0 500 500;" xml:space="preserve">
<style type="text/css">
	.st0{fill:#212121;}
</style>
<title>tremor-logo-dark</title>
<g>
	<g>
		<path class="st0" d="M386.7,196l-113.5-83l-82.1-60.1c-43.8-32-105.1-0.5-105.1,54v286.3c0,54.5,61.4,86,105.1,54l82.1-60.1
			l113.5-83C423.2,277.4,423.2,222.6,386.7,196z M336.1,295.5l-86.3,63.7l-62.4,46.1c-33.3,24.6-79.9,0.4-79.9-41.4V144.3
			c0-41.8,46.6-66,79.9-41.4l62.4,46.1l86.3,63.7C363.8,233.1,363.8,275.1,336.1,295.5z"/>
		
			<image style="overflow:visible;opacity:0.15;enable-background:new    ;" width="332" height="407" xlink:href="D6E3F2E2F28B60B.png"  transform="matrix(0.8724 0 0 0.8724 98.8876 71.8611)">
		</image>
		<path class="st0" d="M326,210.7l-81-59.3l-58.6-42.9c-31.3-22.9-75.1-0.4-75.1,38.6v204.4c0,38.9,43.8,61.4,75.1,38.6l58.6-42.9
			l81-59.3C352,268.8,352,229.7,326,210.7z M253.8,273L208,306.5l-33.2,24.3c-17.7,12.9-42.5,0.2-42.5-21.8V193.4
			c0-22,24.8-34.7,42.5-21.8l33.2,24.3l45.8,33.5c12,8.9,14.6,25.8,5.8,37.8C258,269.4,256,271.4,253.8,273L253.8,273z"/>
		
			<image style="overflow:visible;opacity:0.15;enable-background:new    ;" width="201" height="239" xlink:href="D6E3F2E2F28B609.png"  transform="matrix(0.8706 0 0 0.8706 124.2626 145.345)">
		</image>
		<path class="st0" d="M246.3,229.6c10.9,8,13.2,23.4,5.2,34.3c-1.5,2-3.2,3.7-5.2,5.2l-41.4,30.3l-30,22
			c-16,11.7-38.4,0.2-38.4-19.7V197c0-19.9,22.4-31.4,38.4-19.7l30,22L246.3,229.6z"/>
	</g>
</g>
</svg>
