<?xml version="1.0" encoding="utf-8"?>
<!-- Generator: Adobe Illustrator 23.0.6, SVG Export Plug-In . SVG Version: 6.00 Build 0)  -->
<svg version="1.1" id="Layer_1" xmlns="http://www.w3.org/2000/svg" xmlns:xlink="http://www.w3.org/1999/xlink" x="0px" y="0px"
	 viewBox="0 0 2530 309.6" style="enable-background:new 0 0 2530 309.6;" xml:space="preserve">
<style type="text/css">
	.st0{fill:#D3343E;}
	.st1{fill:#81221F;}
	.st2{fill:#FFFFFF;}
</style>
<title>walgreens-banner-01</title>
<g>
	<path class="st0" d="M1193,73.4h137.6c3.5,0,6.4,2.9,6.4,6.4l0,0v101.3c0,3.5-2.9,6.4-6.4,6.4l0,0H1193l0,0V73.4L1193,73.4z"/>
	<polygon class="st1" points="1193,187.4 1244.4,240.2 1244.4,187.4 	"/>
	<path class="st2" d="M1254.1,93.4c-0.7,0.9-1.4,1.9-2.1,2.7c-4.8,6.1-9.4,12.4-13.5,19c-3.9,6.2-7.1,12.7-9.1,19.9
		c-1.1,4.4-1.6,8.8-0.8,13.3c0.2,0.9,0.4,1.8,0.7,2.6c1.1,3.2,3.5,4.6,6.7,5c3,0.4,5.6-0.9,8.1-2.4c1.5-0.9,2-1.9,2-3.6
		c-0.1-5.9,1.3-11.4,3.1-16.9c2.1-6.6,5.3-12.8,9.2-18.4c4.5-6.3,9.8-11.7,16.9-15c2.2-1.1,4.6-1.8,7.1-2.1c5.2-0.6,8.4,2.4,8.1,7.6
		c-0.1,3.6-1.4,6.9-2.8,10c-2.9,6.3-6.6,12.1-10.4,17.9c-3.6,5.4-7.5,10.6-11.9,15.3c-1.4,1.4-1.4,1.4-0.4,3.1
		c2.6,4.3,5.3,4.7,9.2,4.3c4.8-0.6,8.6-3.1,12-6.2c4.5-4.1,8-8.9,11.2-14.1c3.9-6.4,6.3-13.3,7.6-20.6c0.7-4,0.8-8.1-0.9-11.9
		c-0.6-1.4-1.5-2.6-2.4-3.8c-0.6-0.9-1.4-1.7-2.1-2.6c-0.1-0.1-0.2-0.6-0.1-0.7c2.3-2.4,4.6-4.7,7-6.9c1.5-1.4,3.4-2.1,5.5-1.6
		c1.6,0.4,2.9,1.4,3.9,2.5c2,2.1,3,4.6,3.4,7.4c0.8,5.2,0,10.4-1.2,15.4c-1.5,6.3-3.9,12.4-7.2,17.9c-4.1,6.9-8.5,13.6-13.8,19.7
		c-4.6,5.3-9.8,10-16,13.4c-5.7,3.1-12.1,4.6-18.6,4.4c-5.1-0.2-9.3-2.2-12.6-6.1c-0.1-0.1-0.3-0.4-0.4-0.6
		c-0.9,0.6-1.6,1.1-2.4,1.6c-3.6,2.3-7.4,4.3-11.6,5.1c-4.9,1-9.5,0.1-13.6-2.6c-2-1.4-3.1-3.5-4-5.7c-1.7-4.6-1.8-9.2-1.5-14
		c0.3-4.9,2-9.4,3.9-13.7c3.7-8.3,8.3-16,13.4-23.4l0.3-0.4c-1.1,0.2-2.2,0.4-3.3,0.6c-2.9,0.5-5.7,0.3-8.5,0.1
		c-3.6-0.3-7.1-0.6-10.8-0.8c-2.3-0.2-4.6,0.4-6.4,1.8l-0.2-0.1c0.1-0.9,0.2-1.6,0.4-2.5c0.6-3,1.8-5.8,3.6-8.2
		c2.6-3.4,6.1-4.9,10.2-4.9c2.9,0.1,5.7,0.4,8.5,0.7c4.6,0.6,9.2,1.3,13.9,0.7c3.7-0.5,7.4-1.3,11.1-2c0.3-0.1,0.5-0.1,0.8-0.1
		C1253.8,93.3,1253.9,93.3,1254.1,93.4z M1257.5,141.5l0.3,0.1c0.1-0.1,0.2-0.1,0.3-0.1c0.3-0.2,0.6-0.4,0.9-0.7
		c6.8-6.1,12.3-13.3,16.1-21.6c1.1-2.3,1.9-4.6,1.9-7.1c0-0.6,0.1-1.4-0.5-1.7c-0.7-0.4-1.3,0.1-1.9,0.5c-2.8,1.9-5.1,4.2-7,7.1
		c-3.6,5.6-6.6,11.7-8.8,18.1C1258.4,137.7,1258,139.7,1257.5,141.5L1257.5,141.5z"/>
</g>
</svg>
