<svg xmlns="http://www.w3.org/2000/svg" xmlns:xlink="http://www.w3.org/1999/xlink" viewBox="0 0 2530 792"><defs><style>.cls-1,.cls-2{fill:none;}.cls-2{stroke:#fff;stroke-miterlimit:10;stroke-width:2px;}.cls-3{fill:url(#linear-gradient);}.cls-4{fill:#fff;}.cls-5{clip-path:url(#clip-path);}.cls-6{fill:url(#New_Pattern);}</style><linearGradient id="linear-gradient" y1="396" x2="2530" y2="396" gradientUnits="userSpaceOnUse"><stop offset="0" stop-color="#0fd987"/><stop offset="1" stop-color="#00b2ae"/></linearGradient><clipPath id="clip-path"><rect class="cls-1" width="2530" height="792"/></clipPath><pattern id="New_Pattern" data-name="New Pattern" width="100" height="1638.58" patternTransform="translate(1222.96 -1091.68) rotate(45)" patternUnits="userSpaceOnUse" viewBox="0 0 100 1638.58"><rect class="cls-1" width="100" height="1638.58"/><line class="cls-2" x1="90" y1="1638.58" x2="90"/><line class="cls-2" x1="70" y1="1638.58" x2="70"/><line class="cls-2" x1="50" y1="1638.58" x2="50"/><line class="cls-2" x1="30" y1="1638.58" x2="30"/><line class="cls-2" x1="10" y1="1638.58" x2="10"/></pattern></defs><title>yahoo-banner-01</title><g id="BG"><rect class="cls-3" width="2530" height="792"/></g><g id="Layer_4" data-name="Layer 4"><g id="mask-6"><path class="cls-4" d="M1368.78,401.28c-.33.8-1.61,1.14-2.87.77s-2-1.31-1.71-2.1,1.61-1.14,2.87-.77S1369.1,400.47,1368.78,401.28Z"/></g><g id="mask-5"><path class="cls-4" d="M1375.86,356.42c-.32.79-1.6,1.14-2.86.77s-2-1.3-1.7-2.09,1.6-1.13,2.86-.76S1376.18,355.64,1375.86,356.42Z"/></g><g id="mask-4"><path class="cls-4" d="M1373.1,353.59a3.82,3.82,0,0,0-.68.06,3,3,0,0,0-1.15.45,3,3,0,0,0-.81.92,3.53,3.53,0,0,0-.45,1.3,3.21,3.21,0,0,0,0,1.38,2.74,2.74,0,0,0,1.46,1.81,4.42,4.42,0,0,0,1.32.42,4.87,4.87,0,0,0,.76.06,3.32,3.32,0,0,0,.63,0,2.71,2.71,0,0,0,2-1.32,3.58,3.58,0,0,0,.45-1.31,3.51,3.51,0,0,0,0-1.37,2.75,2.75,0,0,0-.52-1.09,2.93,2.93,0,0,0-1-.79,4.42,4.42,0,0,0-1.32-.42A3.57,3.57,0,0,0,1373.1,353.59Z"/></g><path class="cls-4" d="M1366.8,393.33a4.17,4.17,0,0,1,.71.06h0a4.38,4.38,0,0,1,1.18.37c.11-.5.25-1.28.45-2.35.59-3.28,1.71-9.41,3.67-17.64.75-3.23,3.74-16,3.74-16.06a.94.94,0,0,1,.07-.35,3.17,3.17,0,0,0,0-1.37,2.79,2.79,0,0,0-.52-1.1,3,3,0,0,0-.95-.78,4.1,4.1,0,0,0-1.31-.42h0a4,4,0,0,0-1.38,0,3,3,0,0,0-1.14.45,2.89,2.89,0,0,0-.86.88,3.53,3.53,0,0,0-.45,1.3v.2c0,.13-.06.48-.06.54-.42,4.92-1.09,12.94-1.36,16.05-.68,8.43-1.52,14.61-2,17.92-.14,1.08-.25,1.86-.3,2.36Z"/><path class="cls-4" d="M1347.23,400.68a21.44,21.44,0,0,0,7.32-4.25,20.94,20.94,0,0,0,5.25-7.4,27.65,27.65,0,0,0,0-19.94,20.94,20.94,0,0,0-5.25-7.4,22.84,22.84,0,0,0-8.08-4.61,34.34,34.34,0,0,0-20.61,0c-.4.13-.79.27-1.18.44a22.14,22.14,0,0,0-6.88,4.17,20.94,20.94,0,0,0-5.25,7.4,27.65,27.65,0,0,0,0,19.94,20.84,20.84,0,0,0,5.26,7.4,21.58,21.58,0,0,0,8.08,4.51,36.6,36.6,0,0,0,20.57,0l.57-.19Zm-1.51-2.9a16.44,16.44,0,0,1-2.14,1,21.76,21.76,0,0,1-7.46,1.24,21.38,21.38,0,0,1-7.35-1.24,15.79,15.79,0,0,1-6-3.83,17.69,17.69,0,0,1-3.94-6.56,31.58,31.58,0,0,1,0-18.79,17.68,17.68,0,0,1,4-6.56,16.08,16.08,0,0,1,3.36-2.62,16.59,16.59,0,0,1,2.6-1.21,21.52,21.52,0,0,1,7.33-1.25,21.77,21.77,0,0,1,7.42,1.24,15.93,15.93,0,0,1,6,3.84,17.82,17.82,0,0,1,4,6.56,31.58,31.58,0,0,1,0,18.79,17.68,17.68,0,0,1-4,6.56,15.9,15.9,0,0,1-3.8,2.87Z"/><path class="cls-4" d="M1306.62,388a25.52,25.52,0,0,0,0-17.84,18.91,18.91,0,0,0-4.54-6.63,19.74,19.74,0,0,0-7-4.12,29,29,0,0,0-17.85,0,19.91,19.91,0,0,0-7,4.12,18.76,18.76,0,0,0-4.53,6.63,25.37,25.37,0,0,0,0,17.84,18.14,18.14,0,0,0,11.5,10.65,28.56,28.56,0,0,0,8.89,1.33,28.85,28.85,0,0,0,8.95-1.33A18.17,18.17,0,0,0,1306.6,388Zm-6.24-.61a16.12,16.12,0,0,1-3.25,5.81,12.94,12.94,0,0,1-4.89,3.4,16.52,16.52,0,0,1-6.06,1.11,16.31,16.31,0,0,1-6.06-1.11,13,13,0,0,1-4.89-3.4,16.17,16.17,0,0,1-3.21-5.81,30.49,30.49,0,0,1,0-16.66,16.27,16.27,0,0,1,3.25-5.81,13,13,0,0,1,4.89-3.41,16.51,16.51,0,0,1,6.06-1.1,16.72,16.72,0,0,1,6.06,1.1,13.07,13.07,0,0,1,4.89,3.41,16.12,16.12,0,0,1,3.25,5.81,29.75,29.75,0,0,1,0,16.66Z"/><path class="cls-4" d="M1187.55,363.76l1.63-2.76c1.56-2.66,2.92-4.82,3.67-6,.54-.77.85-1.29,1.29-1.92l.08-.1h-.11a13,13,0,0,1-3.29.42,12.17,12.17,0,0,1-3.29-.42h-.09c-2,3.72-7.56,12.73-10.84,18.12-1.54,2.54-2.6,4.38-2.8,4.68h-.06c-.14-.31-1.29-2.15-2.83-4.68-3.29-5.37-8.76-14.26-10.82-18.12l-.14.07a11.71,11.71,0,0,1-3.28.41,12.79,12.79,0,0,1-3.31-.48h-.06c.45.7.83,1.27,1.34,2,.76,1.16,2.12,3.32,3.71,6l1.61,2.78c1,1.79,2.28,3.82,3.21,5.42,1.34,2.32,2.9,5.05,4.43,7.75l3.28,5.78v2c0,2.69-.06,5.54-.16,8.08,0,1.15-.09,3.19-.14,5.36,0,2.55-.11,5.31-.11,6.66a12,12,0,0,1,3.32-.47,12.64,12.64,0,0,1,3.35.45c-.07-1.39-.13-4.11-.19-6.74,0-2.16-.1-4.19-.14-5.34-.1-2.49-.15-5.35-.15-8.08v-2c1-1.72,2-3.6,3.24-5.75,1.58-2.7,3.2-5.56,4.45-7.75Z"/><path class="cls-4" d="M1262.08,399.46c-.11-2.24-.22-4.76-.32-7.5-.1-2.55-.15-5.13-.15-7.71V374c0-2.58,0-5.16.15-7.68,0-.93.07-1.88.11-2.88.06-1.65.12-3.38.19-5.05a13,13,0,0,1-6.75,0h0l.06.95c.12,2.37.21,4.82.3,7,.1,2.48.15,5,.15,7.64v3.53h0l-4.55.13h-.7c-2,0-4,.06-6.19.06s-4.2,0-6.18-.06h-.71l-4.51-.1h0V374c0-2.59,0-5.16.15-7.64.08-2.17.2-4.65.32-7.07v-.88a12.12,12.12,0,0,1-3.39.47,12.54,12.54,0,0,1-3.39-.46c.07,1.64.14,3.37.19,5.05,0,1,.07,1.94.11,2.87.1,2.52.15,5,.15,7.68v10.18c0,2.59,0,5.18-.15,7.71-.11,2.79-.21,5.24-.32,7.49a12.67,12.67,0,0,1,3.41-.44,12.46,12.46,0,0,1,3.38.45v-.08c-.13-2.46-.24-5-.33-7.46s-.15-5.05-.15-7.67v-3.86l5.25-.08h12.35l5.2.07h0v3.87c0,2.6,0,5.17-.15,7.67s-.22,5-.33,7.46v.12a13,13,0,0,1,6.77,0Z"/><path class="cls-4" d="M1195.87,387.44h0l.86-.1h12.78l2.32.06h.84c.9,2.26,1.74,4.33,2.47,6.18,1.21,3,2,5.2,2.3,5.82a12.77,12.77,0,0,1,6.72,0l-.61-1.19c-4.38-8.41-13.64-31.43-16.53-38.83l-.36-.94h0a6.68,6.68,0,0,1-4.55.06l-.18-.07c-.08.21-.17.47-.28.74-3.18,8.18-4.39,11-5.16,12.9-3.18,8-8.08,19.4-11.46,26.16-.18.35-.51,1-.62,1.18a12.38,12.38,0,0,1,3.37-.44,12.15,12.15,0,0,1,3.24.41h.11c.24-.61,1.09-2.76,2.28-5.71C1194.11,391.84,1195,389.74,1195.87,387.44Zm1.09-2.89c4.56-11.51,6.94-17.78,7.3-19.19v0c.36,1.44,2.74,7.73,7.3,19.19h0c-1.34.07-6,.19-7.3.19s-6-.12-7.29-.19Z"/><path class="cls-4" d="M1176.65,382.75l-2.88-1.08v20.7a37.66,37.66,0,0,1,3.37,2.5h0c-.12-2.51-.23-9.56-.32-12.12s-.15-5.41-.15-8.08v-2"/><path class="cls-4" d="M1211.59,384.56h0c-1.28.07-5.95.19-7.29.19s-6.07-.12-7.32-.19h0l-3.34,1.46c3.43-.17,17.67-.18,21.33,0Z"/><path class="cls-4" d="M1193.64,386l2.25,1.41c1,0,2.17-.07,3.18-.08h10.45c1,0,2.15.06,3.17.08L1215,386C1211.33,385.84,1197.08,385.85,1193.64,386Z"/><path class="cls-4" d="M1230.06,378.83l2.93,1.53h0l5.22-.09h12.35l5.2.07h0l3-1.53C1252.53,379,1236.12,378.92,1230.06,378.83Z"/><path class="cls-4" d="M1258.72,378.83l-2.94-1.28h0l-5.2.11q-3,.06-6.18.06t-6.19-.06l-5.22-.11h0l-2.93,1.28C1236.12,378.92,1252.53,379,1258.72,378.83Z"/><path class="cls-4" d="M1359.79,369.08a20.94,20.94,0,0,0-5.25-7.4,22.6,22.6,0,0,0-8.08-4.61,34.38,34.38,0,0,0-20.62,0c-.41.13-.8.28-1.18.43a22.39,22.39,0,0,0-6.88,4.19,20.69,20.69,0,0,0-5.25,7.4,27.65,27.65,0,0,0,0,19.94,20.84,20.84,0,0,0,5.26,7.4,21.5,21.5,0,0,0,8.08,4.51,36.58,36.58,0,0,0,20.6,0l.73-.25a21.39,21.39,0,0,0,7.34-4.26,20.94,20.94,0,0,0,5.25-7.4,27.68,27.68,0,0,0,0-19.95Zm-3.17,20a18.35,18.35,0,0,1-4.69,6.9,18.65,18.65,0,0,1-4.54,3,21,21,0,0,1-2.52,1,29.88,29.88,0,0,1-17.5,0,19.06,19.06,0,0,1-7.07-4,18.35,18.35,0,0,1-4.69-6.9,29.79,29.79,0,0,1,0-19.81,18.49,18.49,0,0,1,4.7-6.9,19.15,19.15,0,0,1,4-2.75,21.21,21.21,0,0,1,3-1.29,29.86,29.86,0,0,1,17.51,0,19.42,19.42,0,0,1,7.07,4,18.46,18.46,0,0,1,4.69,6.9,29,29,0,0,1,0,19.81Z"/><path class="cls-4" d="M1356.62,369.24a18.35,18.35,0,0,0-4.69-6.9,19.34,19.34,0,0,0-7.07-4,29.86,29.86,0,0,0-17.51,0,21.21,21.21,0,0,0-3,1.29,19.15,19.15,0,0,0-4,2.75,18.35,18.35,0,0,0-4.69,6.9,29.57,29.57,0,0,0-.06,19.82,18.49,18.49,0,0,0,4.7,6.9,19.06,19.06,0,0,0,7.07,4,29.88,29.88,0,0,0,17.5,0,21,21,0,0,0,2.52-1,18.65,18.65,0,0,0,4.54-3,18.35,18.35,0,0,0,4.69-6.9,29.25,29.25,0,0,0,0-19.82Zm-3.16,19.11a17.75,17.75,0,0,1-4,6.55,16.07,16.07,0,0,1-6,3.83,22.5,22.5,0,0,1-14.76,0,15.83,15.83,0,0,1-6-3.83,17.62,17.62,0,0,1-4-6.55,31.54,31.54,0,0,1,0-18.78,17.62,17.62,0,0,1,4-6.55,15.82,15.82,0,0,1,3.36-2.62,16.59,16.59,0,0,1,2.6-1.21,22.5,22.5,0,0,1,14.76,0,15.83,15.83,0,0,1,6,3.83,17.75,17.75,0,0,1,4,6.55,31.54,31.54,0,0,1,0,18.78Z"/><path class="cls-4" d="M1299.76,364a16.61,16.61,0,0,0-6.06-3.6,25,25,0,0,0-15.1,0,16,16,0,0,0-10.1,9.75,27.43,27.43,0,0,0,0,17.66,16,16,0,0,0,10.1,9.75,25,25,0,0,0,15.1,0,16,16,0,0,0,10.1-9.75,27.67,27.67,0,0,0,0-17.68A16.48,16.48,0,0,0,1299.76,364Zm.59,23.3a16,16,0,0,1-3.24,5.81,12.77,12.77,0,0,1-4.88,3.39,16.52,16.52,0,0,1-6.06,1.11,16.31,16.31,0,0,1-6.06-1.11,12.77,12.77,0,0,1-4.88-3.39,16,16,0,0,1-3.21-5.81,30.49,30.49,0,0,1,0-16.66,16,16,0,0,1,3.24-5.81,12.9,12.9,0,0,1,4.88-3.4,16.3,16.3,0,0,1,6.06-1.1,16.72,16.72,0,0,1,6.06,1.1,12.9,12.9,0,0,1,4.88,3.4,15.87,15.87,0,0,1,3.24,5.81,30.11,30.11,0,0,1,0,16.66Z"/><path class="cls-4" d="M1306.62,370.1a18.91,18.91,0,0,0-4.54-6.63,19.59,19.59,0,0,0-7-4.12,29,29,0,0,0-17.85,0,19.82,19.82,0,0,0-7,4.12,18.76,18.76,0,0,0-4.53,6.63,25.25,25.25,0,0,0,0,17.85,18.17,18.17,0,0,0,11.51,10.66,30.61,30.61,0,0,0,17.85,0A18.21,18.21,0,0,0,1306.62,388a25.54,25.54,0,0,0,0-17.85Zm-2.82,17.76a16,16,0,0,1-10.1,9.75,25,25,0,0,1-15.1,0,16,16,0,0,1-10.1-9.75A24,24,0,0,1,1267,379a24.27,24.27,0,0,1,1.32-8.86,16,16,0,0,1,10.1-9.75,25,25,0,0,1,15.11,0,16,16,0,0,1,10.23,9.75,27.7,27.7,0,0,1,0,17.69Z"/><path class="cls-4" d="M1194.23,353c-1,.86-4.47,1.55-4.47,1.55a18.48,18.48,0,0,1-2.33-1.55,12.8,12.8,0,0,0,6.8,0Z"/><path class="cls-4" d="M1194.23,353c-.91.81-4.16,1.47-4.47,1.55l-16,27.12,2.88,1.08,3.27-5.78c1.47-2.57,3-5.23,4.46-7.75s3.55-6.06,4.82-8.19c1.64-2.79,3-4.91,3.68-5.95C1193.42,354.25,1193.8,353.68,1194.23,353Z"/><path class="cls-4" d="M1173.75,402.37h0v-20.7l-2.88,1.08v2c0,2.63,0,5.48-.15,8.08s-.21,9.6-.33,12.12h0A37.93,37.93,0,0,1,1173.75,402.37Z"/><path class="cls-4" d="M1177.12,404.87a39.16,39.16,0,0,0-3.37-2.5,38.86,38.86,0,0,0-3.35,2.5,12.53,12.53,0,0,1,6.71,0Z"/><path class="cls-4" d="M1206.67,358.42h0a6.54,6.54,0,0,1-4.53.05l-.19-.07,2.4,1.47Z"/><path class="cls-4" d="M1215,386l-3.38-1.46c-3.32-8.33-6.86-17.42-7.29-19.23v-5.44Zm4.54,11.58.06-.07h0L1215,386l-2.29,1.4c2.37,6,4.41,11,4.78,12h0A10,10,0,0,0,1219.51,397.6Z"/><path class="cls-4" d="M1204.3,359.89v5.44c-.45,1.77-4,10.87-7.32,19.19l-3.34,1.46Zm-13.19,39.57c.37-1,2.41-6.06,4.78-12l-2.25-1.41L1189,397.44h0A9.81,9.81,0,0,0,1191.11,399.46Z"/><path class="cls-4" d="M1223.6,398.23c-4.44-8.5-13.85-32-16.56-38.85l-.37-.95-2.37,1.46,15.34,37.55c.07,0,3.7,1.58,4.58,2h0Z"/><path class="cls-4" d="M1224.22,399.46c-.9-.42-4.58-2-4.58-2a10.19,10.19,0,0,1-2.18,2,12.68,12.68,0,0,1,6.75,0Z"/><path class="cls-4" d="M1189,397.44h0l15.34-37.55-2.4-1.47h0l-.37.95c-2.71,6.91-12.12,30.31-16.56,38.85l-.62,1.24C1185.25,399,1189,397.44,1189,397.44Z"/><path class="cls-4" d="M1184.35,399.46c.9-.42,4.62-2,4.62-2a9.77,9.77,0,0,0,2.14,2,12.92,12.92,0,0,0-6.76,0Z"/><path class="cls-4" d="M1255.31,399.46c.13-2.5.24-5.11.34-7.56s.15-5,.15-7.67v-3.84l3-1.53v18.63Zm0-41h0c.13,2.74.26,5.49.35,7.92s.15,5.05.15,7.64v3.53l2.94,1.28V360.35Z"/><path class="cls-4" d="M1258.68,358.88a12.17,12.17,0,0,0,3.39-.47l-3.35,1.93-3.41-1.93A12.41,12.41,0,0,0,1258.68,358.88Z"/><path class="cls-4" d="M1230.06,358.88a12.3,12.3,0,0,1-3.41-.46l3.41,1.94,3.44-1.95A12.15,12.15,0,0,1,1230.06,358.88Z"/><path class="cls-4" d="M1227.14,374v10.2q0,3.92-.15,7.71c-.1,2.52-.21,5.05-.32,7.52l3.39-1.95h0V360.36l-3.36-1.94c.12,2.61.2,5.41.3,7.91S1227.14,371.4,1227.14,374Z"/><path class="cls-4" d="M1233.5,358.41c-.12,2.73-.26,5.54-.36,8s-.14,5.05-.14,7.64v3.53l-2.94,1.29V360.36Zm0,41c-.12-2.5-.24-5.11-.33-7.56s-.14-5.05-.14-7.67v-3.84l-3-1.53v18.66h0Z"/><path class="cls-4" d="M1230.06,399a12.36,12.36,0,0,0-3.42.45l3.42-1.94,3.42,2A12.34,12.34,0,0,0,1230.06,399Z"/><path class="cls-4" d="M1258.7,399a12.15,12.15,0,0,1,3.39.45l-3.37-1.94-3.41,2A12.13,12.13,0,0,1,1258.7,399Z"/><path class="cls-4" d="M1262.09,399.46c-.12-2.44-.23-5-.32-7.52s-.15-5.05-.15-7.71V374q0-3.92.15-7.68c.1-2.5.19-5.3.3-7.92l-3.35,1.93h0v37.15h0Z"/><path class="cls-4" d="M1157.76,354.55s-3.45-.69-4.46-1.55c.43.68.8,1.25,1.35,2,.69,1,2,3.16,3.68,6,1.27,2.17,3.37,5.67,4.83,8.2s3,5.18,4.45,7.75c1.84,3.22,2.93,5.16,3.28,5.78l2.88-1.08Z"/><path class="cls-4" d="M1153.3,353c1,.86,4.46,1.55,4.46,1.55a17.56,17.56,0,0,0,2.34-1.55,11.94,11.94,0,0,1-3.41.46A11.75,11.75,0,0,1,1153.3,353Z"/><path class="cls-4" d="M1368.72,393.8l-1-1.8-1.46,1.4a4.43,4.43,0,0,1,1.26,0h0a4.26,4.26,0,0,1,1.21.38Z"/><path class="cls-4" d="M1376.62,356a2.8,2.8,0,0,0-1.48-1.9,4.05,4.05,0,0,0-1.17-.4L1367.7,392l1,1.8c.43-2,1.53-9.09,4.12-20,.71-3,3.73-16,3.74-16.06a1.22,1.22,0,0,1,.07-.36A3.38,3.38,0,0,0,1376.62,356Z"/><path class="cls-4" d="M1367.7,392h0l6.27-38.33h-.15a4.06,4.06,0,0,0-1.39,0,3,3,0,0,0-1.15.45,3.07,3.07,0,0,0-.82.9,3.58,3.58,0,0,0-.45,1.31v.2c0,.13-.06.48-.06.54-.43,5-1.09,12.92-1.36,16.05-1,11.19-2.17,18.26-2.34,20.28h0Z"/><path class="cls-4" d="M1373.1,353.59a3.82,3.82,0,0,0-.68.06,3,3,0,0,0-1.15.45,3,3,0,0,0-.81.92,3.53,3.53,0,0,0-.45,1.3,3.21,3.21,0,0,0,0,1.38,2.74,2.74,0,0,0,1.46,1.81,4.42,4.42,0,0,0,1.32.42,4.87,4.87,0,0,0,.76.06,3.32,3.32,0,0,0,.63,0,2.71,2.71,0,0,0,2-1.32,3.58,3.58,0,0,0,.45-1.31,3.51,3.51,0,0,0,0-1.37,2.75,2.75,0,0,0-.52-1.09,2.93,2.93,0,0,0-1-.79,4.42,4.42,0,0,0-1.32-.42A3.57,3.57,0,0,0,1373.1,353.59Z"/><path class="cls-4" d="M1375.86,356.42c-.32.79-1.6,1.14-2.86.77s-2-1.3-1.7-2.09,1.6-1.13,2.86-.76S1376.18,355.64,1375.86,356.42Z"/><path class="cls-4" d="M1366,398.45a3.82,3.82,0,0,0-.68.06,3.07,3.07,0,0,0-1.16.46,2.89,2.89,0,0,0-.85.89,3.42,3.42,0,0,0-.46,1.31,3.26,3.26,0,0,0,0,1.39,2.75,2.75,0,0,0,1.54,1.85,4.42,4.42,0,0,0,1.32.42,5.09,5.09,0,0,0,.77.06h.63a2.79,2.79,0,0,0,2-1.35,3.91,3.91,0,0,0,.42-2.7,2.77,2.77,0,0,0-.52-1.11,3,3,0,0,0-1-.79,4.17,4.17,0,0,0-1.33-.44A5.34,5.34,0,0,0,1366,398.45Z"/><path class="cls-4" d="M1368.78,401.28c-.33.8-1.61,1.14-2.87.77s-2-1.31-1.71-2.1,1.61-1.14,2.87-.77S1369.1,400.47,1368.78,401.28Z"/><path class="cls-4" d="M1187.43,353c-3,5.39-13.13,21.87-13.67,22.83v5.84l16-27.12A18.48,18.48,0,0,1,1187.43,353Z"/><path class="cls-4" d="M1160.1,353c3,5.39,13.14,21.86,13.67,22.82v5.84l-16-27.11A17.56,17.56,0,0,0,1160.1,353Z"/><path class="cls-4" d="M1219.75,417.54c0-2.47,0-4.18-.18-6.13,1.3,0,2.63.11,3.94.11a45,45,0,0,0,4.62-.11,4.88,4.88,0,0,0-.09.93,5.66,5.66,0,0,0,.09,1c-1.67-.11-4.33-.26-5-.26-.14,1.59-.14,3.19-.14,4.81,1.93,0,3.34-.09,5-.18a4.88,4.88,0,0,0-.11,1,7.37,7.37,0,0,0,.11.93c-1.67-.13-3.34-.2-5-.2v1.13c0,2.48,0,4.19.18,6.14-.48,0-1.08-.12-1.81-.12a16.56,16.56,0,0,0-1.82.12c.13-2,.18-3.65.18-6.14Z"/><path class="cls-4" d="M1231.07,417.54c0-2.47,0-4.18-.17-6.13.49,0,1.08.11,1.82.11s1.32-.07,1.82-.11c-.13,1.95-.19,3.65-.19,6.13v3a60.45,60.45,0,0,0,.19,6.13c-.49,0-1.08-.11-1.82-.11s-1.32.07-1.82.11c.17-2,.17-3.67.17-6.16Z"/><path class="cls-4" d="M1238.46,411.41a4.59,4.59,0,0,0,2,0c3.18,3.52,6.34,7,9.59,10.53,0-3.52,0-9.54-.15-10.53a4.59,4.59,0,0,0,2,0c-.35,6.44-.35,9.38-.35,15.26a4.71,4.71,0,0,0-.91-.11,4.13,4.13,0,0,0-.86.11q-4.6-5.37-9.73-10.74v5.15c0,3.53.07,4.78.13,5.59a6.78,6.78,0,0,0-1-.11,6.93,6.93,0,0,0-1,.11c.11-.63.45-6.34.45-10.85C1238.57,413.83,1238.48,412.47,1238.46,411.41Z"/><path class="cls-4" d="M1267.65,426.67c-.71,0-1.33-.11-2-.11s-1.27.07-1.88.11c-.47-1.5-1-3-1.53-4.53h-5.13a45.32,45.32,0,0,0-1.5,4.53c-.34-.05-.67-.09-1-.11s-.74.06-1.1.11c1.08-2.45,4.4-10.33,6.3-15.37a3.19,3.19,0,0,0,1.68,0C1263.39,416.34,1266,423.07,1267.65,426.67Zm-5.86-5.83c-.64-1.79-1.26-3.54-2-5.27-.75,1.73-1.44,3.48-2.08,5.27Z"/><path class="cls-4" d="M1270,411.41a4.59,4.59,0,0,0,2,0c3.18,3.52,6.34,7,9.6,10.53,0-3.52,0-9.54-.16-10.53a4.59,4.59,0,0,0,2,0c-.35,6.44-.35,9.38-.35,15.26a4.62,4.62,0,0,0-.91-.11,4.13,4.13,0,0,0-.86.11q-4.55-5.37-9.66-10.74v5.15c0,3.53.07,4.78.13,5.59a4.69,4.69,0,0,0-2,0c.11-.63.44-6.34.44-10.85C1270.12,413.83,1270,412.47,1270,411.41Z"/><path class="cls-4" d="M1299.09,424.11a7.12,7.12,0,0,0-.48,1.88,9.83,9.83,0,0,1-4.52,1c-5.13,0-8.16-3.2-8.16-7.39,0-6.06,4.13-8.44,8.78-8.44a10,10,0,0,1,4.51,1.08,8.24,8.24,0,0,0-.5,2.25h-.32a4.55,4.55,0,0,0-3.8-2c-2.37,0-5,2-5,6.75s2.69,6.34,5.24,6.34a5.87,5.87,0,0,0,4-1.65Z"/><path class="cls-4" d="M1301.68,417.54a60.66,60.66,0,0,0-.19-6.13c1.31,0,2.64.11,3.94.11a45.23,45.23,0,0,0,4.63-.11,4.88,4.88,0,0,0-.09.93,5.66,5.66,0,0,0,.09,1c-1.68-.11-4.33-.26-5-.26-.11,1.62-.11,3.21-.11,4.82,1.93,0,3.34-.09,5-.18a4.88,4.88,0,0,0-.11,1,5.53,5.53,0,0,0,.11.9c-1.68-.13-3.34-.2-5-.2v2.83c0,1,0,1.88.07,2.77a44.85,44.85,0,0,0,5-.28,5.66,5.66,0,0,0-.09,1,5,5,0,0,0,.09.94c-.8,0-1.84-.11-3.87-.11-3.6,0-4.2.07-4.69.11.14-1.94.19-3.64.19-6.13Z"/></g><g id="Layer_6" data-name="Layer 6"><g class="cls-5"><path class="cls-6" d="M1265,2185-524,396,1265-1393,3054,396ZM1424,336H1115V439h309Z"/></g></g></svg>