<?xml version="1.0" encoding="utf-8"?>
<!-- Generator: Adobe Illustrator 23.0.6, SVG Export Plug-In . SVG Version: 6.00 Build 0)  -->
<svg version="1.1" xmlns="http://www.w3.org/2000/svg" xmlns:xlink="http://www.w3.org/1999/xlink" x="0px" y="0px"
	 viewBox="0 0 2530 792" style="enable-background:new 0 0 2530 792;" xml:space="preserve">
<style type="text/css">
	.st0{fill:url(#SVGID_1_);}
	.st1{opacity:0.2;}
	.st2{clip-path:url(#SVGID_3_);}
	.st3{fill:none;stroke:#FFFFFF;stroke-width:1.4667;stroke-miterlimit:10;}
	.st4{clip-path:url(#SVGID_5_);}
	.st5{fill:url(#SVGID_6_);}
	.st6{fill:#FFFFFF;}
</style>
<g id="BG_1_">
	<g id="BG">
		
			<linearGradient id="SVGID_1_" gradientUnits="userSpaceOnUse" x1="1128.2029" y1="880.9777" x2="1670.1353" y2="92.7123" gradientTransform="matrix(1 0 0 1 0 -286)">
			<stop  offset="0.35" style="stop-color:#58BD7F"/>
			<stop  offset="1" style="stop-color:#00A1A1"/>
		</linearGradient>
		<rect class="st0" width="2530" height="792"/>
	</g>
</g>
<g id="Layer_2">
	<g class="st1">
		<defs>
			<path id="SVGID_2_" class="st1" d="M2530,792H0V0h2530V792z"/>
		</defs>
		<clipPath id="SVGID_3_">
			<use xlink:href="#SVGID_2_"  style="overflow:visible;"/>
		</clipPath>
		<g class="st2">
			<g>
				<line class="st3" x1="1278.2" y1="-184.8" x2="1860.7" y2="1674.4"/>
				<line class="st3" x1="1278.2" y1="-184.8" x2="1801.4" y2="1672.5"/>
				<line class="st3" x1="1278.2" y1="-184.8" x2="1742.7" y2="1672.5"/>
				<line class="st3" x1="1278.2" y1="-184.8" x2="1683.4" y2="1672.5"/>
				<line class="st3" x1="1278.2" y1="-184.8" x2="1624.7" y2="1672.5"/>
				<line class="st3" x1="1278.2" y1="-184.8" x2="1566" y2="1672.5"/>
				<line class="st3" x1="1278.2" y1="-184.8" x2="1507.4" y2="1672.5"/>
				<line class="st3" x1="1278.2" y1="-184.8" x2="1448.7" y2="1673.2"/>
				<line class="st3" x1="1278.2" y1="-184.8" x2="1392.5" y2="1673.2"/>
				<line class="st3" x1="1278.2" y1="-184.8" x2="1333.8" y2="1672.9"/>
				<line class="st3" x1="1278.2" y1="-184.8" x2="1279.3" y2="1672.5"/>
				<line class="st3" x1="1278.2" y1="-184.8" x2="1220.4" y2="1672.5"/>
				<line class="st3" x1="1278.2" y1="-184.8" x2="1161.7" y2="1672.5"/>
				<line class="st3" x1="1278.2" y1="-184.8" x2="1103" y2="1672.5"/>
				<line class="st3" x1="1278.2" y1="-184.8" x2="1044.4" y2="1672.5"/>
				<line class="st3" x1="1278.2" y1="-184.8" x2="985.7" y2="1672.5"/>
				<line class="st3" x1="1278.2" y1="-184.8" x2="927" y2="1672.5"/>
				<line class="st3" x1="1278.2" y1="-184.8" x2="868.3" y2="1672.5"/>
				<line class="st3" x1="1278.2" y1="-184.8" x2="809.7" y2="1672.5"/>
				<line class="st3" x1="1278.2" y1="-184.8" x2="751" y2="1672.5"/>
				<line class="st3" x1="1278.2" y1="-184.8" x2="692.3" y2="1672.5"/>
			</g>
			<g>
				<line class="st3" x1="1278.2" y1="-184.8" x2="-541.4" y2="1132.7"/>
				<line class="st3" x1="1278.2" y1="-184.8" x2="-636" y2="1116.9"/>
				<line class="st3" x1="1278.2" y1="-184.8" x2="-699.1" y2="1073.9"/>
				<line class="st3" x1="1278.2" y1="-184.8" x2="-721.9" y2="1004.7"/>
				<line class="st3" x1="1278.2" y1="-184.8" x2="-764.8" y2="946.9"/>
				<line class="st3" x1="1278.2" y1="-184.8" x2="-748.1" y2="856.9"/>
				<line class="st3" x1="1278.2" y1="-184.8" x2="-812.5" y2="808.7"/>
				<line class="st3" x1="1278.2" y1="-184.8" x2="-916.8" y2="778.4"/>
				<line class="st3" x1="1278.2" y1="-184.8" x2="-893.3" y2="687.5"/>
				<line class="st3" x1="1278.2" y1="-184.8" x2="-880.3" y2="609.6"/>
				<line class="st3" x1="1278.2" y1="-184.8" x2="-924.8" y2="547.6"/>
				<line class="st3" x1="1278.2" y1="-184.8" x2="-941" y2="476.1"/>
				<line class="st3" x1="1278.2" y1="-184.8" x2="-880.8" y2="385"/>
				<line class="st3" x1="1278.2" y1="-184.8" x2="-839.4" y2="304"/>
				<line class="st3" x1="1278.2" y1="-184.8" x2="-749.4" y2="217.5"/>
				<line class="st3" x1="1278.2" y1="-184.8" x2="-586.3" y2="126"/>
				<line class="st3" x1="1278.2" y1="-184.8" x2="-606.5" y2="71"/>
				<line class="st3" x1="1278.2" y1="-184.8" x2="-626.7" y2="15.9"/>
				<line class="st3" x1="1278.2" y1="-184.8" x2="-647" y2="-39.2"/>
				<line class="st3" x1="1278.2" y1="-184.8" x2="-667.2" y2="-94.2"/>
			</g>
			<g>
				<line class="st3" x1="1278.2" y1="-184.8" x2="643.9" y2="1637.5"/>
				<line class="st3" x1="1278.2" y1="-184.8" x2="595.8" y2="1603.9"/>
				<line class="st3" x1="1278.2" y1="-184.8" x2="547.1" y2="1570"/>
				<line class="st3" x1="1278.2" y1="-184.8" x2="499" y2="1536.4"/>
				<line class="st3" x1="1278.2" y1="-184.8" x2="450.9" y2="1502.8"/>
				<line class="st3" x1="1278.2" y1="-184.8" x2="402.8" y2="1469.2"/>
				<line class="st3" x1="1278.2" y1="-184.8" x2="354.3" y2="1436.2"/>
				<line class="st3" x1="1278.2" y1="-184.8" x2="308.2" y2="1404"/>
				<line class="st3" x1="1278.2" y1="-184.8" x2="260.3" y2="1370.1"/>
				<line class="st3" x1="1278.2" y1="-184.8" x2="215.8" y2="1338.6"/>
				<line class="st3" x1="1278.2" y1="-184.8" x2="167.5" y2="1304.9"/>
				<line class="st3" x1="1278.2" y1="-184.8" x2="119.4" y2="1271.3"/>
				<line class="st3" x1="1278.2" y1="-184.8" x2="71.3" y2="1237.7"/>
				<line class="st3" x1="1278.2" y1="-184.8" x2="23.2" y2="1204.1"/>
				<line class="st3" x1="1278.2" y1="-184.8" x2="-24.9" y2="1170.5"/>
				<line class="st3" x1="1278.2" y1="-184.8" x2="-73" y2="1137"/>
				<line class="st3" x1="1278.2" y1="-184.8" x2="-121.1" y2="1103.4"/>
				<line class="st3" x1="1278.2" y1="-184.8" x2="-169.2" y2="1069.8"/>
				<line class="st3" x1="1278.2" y1="-184.8" x2="-217.3" y2="1036.2"/>
				<line class="st3" x1="1278.2" y1="-184.8" x2="-348" y2="1066.2"/>
			</g>
			<g>
				<line class="st3" x1="1278.2" y1="-184.8" x2="3224.2" y2="-89.6"/>
				<line class="st3" x1="1278.2" y1="-184.8" x2="3202" y2="-34.6"/>
				<line class="st3" x1="1278.2" y1="-184.8" x2="3181.7" y2="20.4"/>
				<line class="st3" x1="1278.2" y1="-184.8" x2="3210" y2="82.9"/>
				<line class="st3" x1="1278.2" y1="-184.8" x2="3296.4" y2="157.6"/>
				<line class="st3" x1="1278.2" y1="-184.8" x2="3313.4" y2="225.1"/>
				<line class="st3" x1="1278.2" y1="-184.8" x2="3319.9" y2="292.7"/>
				<line class="st3" x1="1278.2" y1="-184.8" x2="3283" y2="350.6"/>
				<line class="st3" x1="1278.2" y1="-184.8" x2="3274.8" y2="413.3"/>
				<line class="st3" x1="1278.2" y1="-184.8" x2="3326.9" y2="500"/>
				<line class="st3" x1="1278.2" y1="-184.8" x2="3365.2" y2="581.6"/>
				<line class="st3" x1="1278.2" y1="-184.8" x2="3414.1" y2="677.3"/>
				<line class="st3" x1="1278.2" y1="-184.8" x2="3325.1" y2="717.4"/>
				<line class="st3" x1="1278.2" y1="-184.8" x2="3327.5" y2="796.4"/>
				<line class="st3" x1="1278.2" y1="-184.8" x2="3369" y2="897.7"/>
				<line class="st3" x1="1278.2" y1="-184.8" x2="3319.2" y2="953.4"/>
				<line class="st3" x1="1278.2" y1="-184.8" x2="3339.3" y2="1048.9"/>
				<line class="st3" x1="1278.2" y1="-184.8" x2="3296.9" y2="1108.2"/>
				<line class="st3" x1="1278.2" y1="-184.8" x2="3183.2" y2="1117.4"/>
				<line class="st3" x1="1278.2" y1="-184.8" x2="3031.8" y2="1091.2"/>
				<line class="st3" x1="1278.2" y1="-184.8" x2="2860.6" y2="1038.3"/>
			</g>
			<g>
				<line class="st3" x1="1278.2" y1="-184.8" x2="2770" y2="1039.1"/>
				<line class="st3" x1="1278.2" y1="-184.8" x2="2721.9" y2="1072.7"/>
				<line class="st3" x1="1278.2" y1="-184.8" x2="2673.2" y2="1106.6"/>
				<line class="st3" x1="1278.2" y1="-184.8" x2="2625.1" y2="1140.2"/>
				<line class="st3" x1="1278.2" y1="-184.8" x2="2577" y2="1173.8"/>
				<line class="st3" x1="1278.2" y1="-184.8" x2="2528.9" y2="1207.3"/>
				<line class="st3" x1="1278.2" y1="-184.8" x2="2481.2" y2="1241.5"/>
				<line class="st3" x1="1278.2" y1="-184.8" x2="2435" y2="1273.7"/>
				<line class="st3" x1="1278.2" y1="-184.8" x2="2386.7" y2="1307"/>
				<line class="st3" x1="1278.2" y1="-184.8" x2="2341.8" y2="1337.8"/>
				<line class="st3" x1="1278.2" y1="-184.8" x2="2293.5" y2="1371.5"/>
				<line class="st3" x1="1278.2" y1="-184.8" x2="2245.4" y2="1405.1"/>
				<line class="st3" x1="1278.2" y1="-184.8" x2="2197.2" y2="1438.7"/>
				<line class="st3" x1="1278.2" y1="-184.8" x2="2149.1" y2="1472.2"/>
				<line class="st3" x1="1278.2" y1="-184.8" x2="2101" y2="1505.8"/>
				<line class="st3" x1="1278.2" y1="-184.8" x2="2052.9" y2="1539.4"/>
				<line class="st3" x1="1278.2" y1="-184.8" x2="2004.8" y2="1573"/>
				<line class="st3" x1="1278.2" y1="-184.8" x2="1956.7" y2="1606.5"/>
				<line class="st3" x1="1278.2" y1="-184.8" x2="1908.5" y2="1640.1"/>
			</g>
		</g>
		<g class="st2">
			<g>
				<line class="st3" x1="1277.3" y1="976.8" x2="1859.8" y2="-882.4"/>
				<line class="st3" x1="1277.3" y1="976.8" x2="1800.5" y2="-880.5"/>
				<line class="st3" x1="1277.3" y1="976.8" x2="1741.8" y2="-880.5"/>
				<line class="st3" x1="1277.3" y1="976.8" x2="1682.5" y2="-880.5"/>
				<line class="st3" x1="1277.3" y1="976.8" x2="1623.8" y2="-880.5"/>
				<line class="st3" x1="1277.3" y1="976.8" x2="1565.1" y2="-880.5"/>
				<line class="st3" x1="1277.3" y1="976.8" x2="1506.5" y2="-880.5"/>
				<line class="st3" x1="1277.3" y1="976.8" x2="1447.8" y2="-881.2"/>
				<line class="st3" x1="1277.3" y1="976.8" x2="1391.6" y2="-881.2"/>
				<line class="st3" x1="1277.3" y1="976.8" x2="1332.9" y2="-880.9"/>
				<line class="st3" x1="1277.3" y1="976.8" x2="1278.4" y2="-880.5"/>
				<line class="st3" x1="1277.3" y1="976.8" x2="1219.5" y2="-880.5"/>
				<line class="st3" x1="1277.3" y1="976.8" x2="1160.8" y2="-880.5"/>
				<line class="st3" x1="1277.3" y1="976.8" x2="1102.1" y2="-880.5"/>
				<line class="st3" x1="1277.3" y1="976.8" x2="1043.5" y2="-880.5"/>
				<line class="st3" x1="1277.3" y1="976.8" x2="984.8" y2="-880.5"/>
				<line class="st3" x1="1277.3" y1="976.8" x2="926.1" y2="-880.5"/>
				<line class="st3" x1="1277.3" y1="976.8" x2="867.4" y2="-880.5"/>
				<line class="st3" x1="1277.3" y1="976.8" x2="808.8" y2="-880.5"/>
				<line class="st3" x1="1277.3" y1="976.8" x2="750.1" y2="-880.5"/>
				<line class="st3" x1="1277.3" y1="976.8" x2="691.4" y2="-880.5"/>
			</g>
			<g>
				<line class="st3" x1="1277.3" y1="976.8" x2="-542.3" y2="-340.7"/>
				<line class="st3" x1="1277.3" y1="976.8" x2="-636.9" y2="-324.9"/>
				<line class="st3" x1="1277.3" y1="976.8" x2="-700" y2="-281.9"/>
				<line class="st3" x1="1277.3" y1="976.8" x2="-722.8" y2="-212.7"/>
				<line class="st3" x1="1277.3" y1="976.8" x2="-765.7" y2="-154.9"/>
				<line class="st3" x1="1277.3" y1="976.8" x2="-749" y2="-64.9"/>
				<line class="st3" x1="1277.3" y1="976.8" x2="-813.4" y2="-16.7"/>
				<line class="st3" x1="1277.3" y1="976.8" x2="-917.7" y2="13.6"/>
				<line class="st3" x1="1277.3" y1="976.8" x2="-894.2" y2="104.5"/>
				<line class="st3" x1="1277.3" y1="976.8" x2="-881.2" y2="182.4"/>
				<line class="st3" x1="1277.3" y1="976.8" x2="-925.7" y2="244.4"/>
				<line class="st3" x1="1277.3" y1="976.8" x2="-941.9" y2="315.9"/>
				<line class="st3" x1="1277.3" y1="976.8" x2="-881.7" y2="407"/>
				<line class="st3" x1="1277.3" y1="976.8" x2="-840.3" y2="488"/>
				<line class="st3" x1="1277.3" y1="976.8" x2="-750.3" y2="574.5"/>
				<line class="st3" x1="1277.3" y1="976.8" x2="-587.2" y2="666"/>
				<line class="st3" x1="1277.3" y1="976.8" x2="-607.4" y2="721"/>
				<line class="st3" x1="1277.3" y1="976.8" x2="-627.6" y2="776.1"/>
				<line class="st3" x1="1277.3" y1="976.8" x2="-647.9" y2="831.2"/>
				<line class="st3" x1="1277.3" y1="976.8" x2="-668.1" y2="886.2"/>
			</g>
			<g>
				<line class="st3" x1="1277.3" y1="976.8" x2="643" y2="-845.5"/>
				<line class="st3" x1="1277.3" y1="976.8" x2="594.9" y2="-811.9"/>
				<line class="st3" x1="1277.3" y1="976.8" x2="546.2" y2="-778"/>
				<line class="st3" x1="1277.3" y1="976.8" x2="498.1" y2="-744.4"/>
				<line class="st3" x1="1277.3" y1="976.8" x2="450" y2="-710.8"/>
				<line class="st3" x1="1277.3" y1="976.8" x2="401.9" y2="-677.2"/>
				<line class="st3" x1="1277.3" y1="976.8" x2="353.4" y2="-644.2"/>
				<line class="st3" x1="1277.3" y1="976.8" x2="307.3" y2="-612"/>
				<line class="st3" x1="1277.3" y1="976.8" x2="259.4" y2="-578.1"/>
				<line class="st3" x1="1277.3" y1="976.8" x2="214.9" y2="-546.6"/>
				<line class="st3" x1="1277.3" y1="976.8" x2="166.6" y2="-512.9"/>
				<line class="st3" x1="1277.3" y1="976.8" x2="118.5" y2="-479.3"/>
				<line class="st3" x1="1277.3" y1="976.8" x2="70.4" y2="-445.7"/>
				<line class="st3" x1="1277.3" y1="976.8" x2="22.3" y2="-412.1"/>
				<line class="st3" x1="1277.3" y1="976.8" x2="-25.8" y2="-378.5"/>
				<line class="st3" x1="1277.3" y1="976.8" x2="-73.9" y2="-345"/>
				<line class="st3" x1="1277.3" y1="976.8" x2="-122" y2="-311.4"/>
				<line class="st3" x1="1277.3" y1="976.8" x2="-170.1" y2="-277.8"/>
				<line class="st3" x1="1277.3" y1="976.8" x2="-218.2" y2="-244.2"/>
				<line class="st3" x1="1277.3" y1="976.8" x2="-348.9" y2="-274.2"/>
			</g>
			<g>
				<line class="st3" x1="1277.3" y1="976.8" x2="3223.3" y2="881.6"/>
				<line class="st3" x1="1277.3" y1="976.8" x2="3201.1" y2="826.6"/>
				<line class="st3" x1="1277.3" y1="976.8" x2="3180.8" y2="771.6"/>
				<line class="st3" x1="1277.3" y1="976.8" x2="3209.1" y2="709.1"/>
				<line class="st3" x1="1277.3" y1="976.8" x2="3295.5" y2="634.4"/>
				<line class="st3" x1="1277.3" y1="976.8" x2="3312.5" y2="566.9"/>
				<line class="st3" x1="1277.3" y1="976.8" x2="3319" y2="499.3"/>
				<line class="st3" x1="1277.3" y1="976.8" x2="3282.1" y2="441.4"/>
				<line class="st3" x1="1277.3" y1="976.8" x2="3273.9" y2="378.7"/>
				<line class="st3" x1="1277.3" y1="976.8" x2="3326" y2="292"/>
				<line class="st3" x1="1277.3" y1="976.8" x2="3364.3" y2="210.4"/>
				<line class="st3" x1="1277.3" y1="976.8" x2="3413.2" y2="114.7"/>
				<line class="st3" x1="1277.3" y1="976.8" x2="3324.2" y2="74.6"/>
				<line class="st3" x1="1277.3" y1="976.8" x2="3326.6" y2="-4.4"/>
				<line class="st3" x1="1277.3" y1="976.8" x2="3368.2" y2="-105.7"/>
				<line class="st3" x1="1277.3" y1="976.8" x2="3318.3" y2="-161.4"/>
				<line class="st3" x1="1277.3" y1="976.8" x2="3338.4" y2="-256.9"/>
				<line class="st3" x1="1277.3" y1="976.8" x2="3296" y2="-316.2"/>
				<line class="st3" x1="1277.3" y1="976.8" x2="3182.3" y2="-325.4"/>
				<line class="st3" x1="1277.3" y1="976.8" x2="3030.9" y2="-299.2"/>
				<line class="st3" x1="1277.3" y1="976.8" x2="2859.7" y2="-246.3"/>
			</g>
			<g>
				<line class="st3" x1="1277.3" y1="976.8" x2="2769.1" y2="-247.1"/>
				<line class="st3" x1="1277.3" y1="976.8" x2="2721" y2="-280.7"/>
				<line class="st3" x1="1277.3" y1="976.8" x2="2672.3" y2="-314.6"/>
				<line class="st3" x1="1277.3" y1="976.8" x2="2624.2" y2="-348.2"/>
				<line class="st3" x1="1277.3" y1="976.8" x2="2576.1" y2="-381.8"/>
				<line class="st3" x1="1277.3" y1="976.8" x2="2528" y2="-415.3"/>
				<line class="st3" x1="1277.3" y1="976.8" x2="2480.3" y2="-449.5"/>
				<line class="st3" x1="1277.3" y1="976.8" x2="2434.1" y2="-481.7"/>
				<line class="st3" x1="1277.3" y1="976.8" x2="2385.8" y2="-515"/>
				<line class="st3" x1="1277.3" y1="976.8" x2="2340.9" y2="-545.8"/>
				<line class="st3" x1="1277.3" y1="976.8" x2="2292.6" y2="-579.5"/>
				<line class="st3" x1="1277.3" y1="976.8" x2="2244.5" y2="-613.1"/>
				<line class="st3" x1="1277.3" y1="976.8" x2="2196.3" y2="-646.7"/>
				<line class="st3" x1="1277.3" y1="976.8" x2="2148.2" y2="-680.2"/>
				<line class="st3" x1="1277.3" y1="976.8" x2="2100.1" y2="-713.8"/>
				<line class="st3" x1="1277.3" y1="976.8" x2="2052" y2="-747.4"/>
				<line class="st3" x1="1277.3" y1="976.8" x2="2003.9" y2="-781"/>
				<line class="st3" x1="1277.3" y1="976.8" x2="1955.8" y2="-814.5"/>
				<line class="st3" x1="1277.3" y1="976.8" x2="1907.6" y2="-848.1"/>
			</g>
		</g>
	</g>
</g>
<g id="Layer_4">
	<g>
		<defs>
			<rect id="SVGID_4_" x="1123.8" y="341.7" width="282.4" height="108.7"/>
		</defs>
		<clipPath id="SVGID_5_">
			<use xlink:href="#SVGID_4_"  style="overflow:visible;"/>
		</clipPath>
		<g id="BG_2_" class="st4">
			
				<linearGradient id="SVGID_6_" gradientUnits="userSpaceOnUse" x1="305.01" y1="1130.9122" x2="1964.6317" y2="357.0179" gradientTransform="matrix(1 0 0 1 0 -286)">
				<stop  offset="0.35" style="stop-color:#58BD7F"/>
				<stop  offset="1" style="stop-color:#00A1A1"/>
			</linearGradient>
			<rect x="145.3" y="77.2" class="st5" width="2241.4" height="639.2"/>
		</g>
	</g>
</g>
<g id="Layer_3">
	<g id="Yahoo_logo">
		<g id="mask-6">
			<path class="st6" d="M1368.8,407.3c-0.3,0.8-1.6,1.1-2.9,0.8s-2-1.3-1.7-2.1s1.6-1.1,2.9-0.8S1369.1,406.5,1368.8,407.3z"/>
		</g>
		<g id="mask-5">
			<path class="st6" d="M1375.9,362.4c-0.3,0.8-1.6,1.1-2.9,0.8s-2-1.3-1.7-2.1s1.6-1.1,2.9-0.8S1376.2,361.6,1375.9,362.4z"/>
		</g>
		<g id="mask-4">
			<path class="st6" d="M1373.1,359.6c-0.2,0-0.5,0-0.7,0.1c-0.4,0.1-0.8,0.2-1.2,0.5c-0.3,0.2-0.6,0.6-0.8,0.9
				c-0.2,0.4-0.4,0.8-0.4,1.3c-0.1,0.5-0.1,0.9,0,1.4c0.2,0.8,0.7,1.5,1.5,1.8c0.4,0.2,0.9,0.4,1.3,0.4c0.3,0,0.5,0.1,0.8,0.1
				c0.2,0,0.4,0,0.6,0c0.8-0.1,1.6-0.6,2-1.3c0.2-0.4,0.4-0.8,0.4-1.3c0.1-0.5,0.1-0.9,0-1.4c-0.1-0.4-0.3-0.8-0.5-1.1
				c-0.3-0.3-0.6-0.6-1-0.8c-0.4-0.2-0.9-0.4-1.3-0.4C1373.6,359.6,1373.3,359.6,1373.1,359.6z"/>
		</g>
		<path class="st6" d="M1366.8,399.3c0.2,0,0.5,0,0.7,0.1l0,0c0.4,0.1,0.8,0.2,1.2,0.4c0.1-0.5,0.2-1.3,0.4-2.4
			c0.6-3.3,1.7-9.4,3.7-17.6c0.8-3.2,3.7-16,3.7-16.1s0-0.2,0.1-0.4c0.1-0.5,0.1-0.9,0-1.4c-0.1-0.4-0.3-0.8-0.5-1.1
			c-0.3-0.3-0.6-0.6-0.9-0.8c-0.4-0.2-0.9-0.4-1.3-0.4l0,0c-0.5-0.1-0.9-0.1-1.4,0c-0.4,0.1-0.8,0.2-1.1,0.5
			c-0.3,0.2-0.6,0.5-0.9,0.9c-0.2,0.4-0.4,0.8-0.4,1.3v0.2c0,0.1-0.1,0.5-0.1,0.5c-0.4,4.9-1.1,12.9-1.4,16
			c-0.7,8.4-1.5,14.6-2,17.9c-0.1,1.1-0.2,1.9-0.3,2.4H1366.8z"/>
		<path class="st6" d="M1347.2,406.7c2.7-0.9,5.2-2.4,7.3-4.2c2.3-2.1,4.1-4.6,5.2-7.4c2.5-6.4,2.5-13.5,0-19.9
			c-1.2-2.8-3-5.3-5.2-7.4c-2.3-2.1-5.1-3.6-8.1-4.6c-6.7-2.1-13.9-2.1-20.6,0c-0.4,0.1-0.8,0.3-1.2,0.4c-2.5,1-4.9,2.4-6.9,4.2
			c-2.3,2.1-4.1,4.6-5.2,7.4c-2.5,6.4-2.5,13.5,0,19.9c1.2,2.8,3,5.3,5.3,7.4s5.1,3.6,8.1,4.5c6.7,2,13.9,2,20.6,0L1347.2,406.7
			L1347.2,406.7z M1345.7,403.8c-0.7,0.4-1.4,0.7-2.1,1c-2.4,0.8-4.9,1.3-7.5,1.2c-2.5,0-5-0.4-7.3-1.2c-2.3-0.8-4.3-2.1-6-3.8
			c-1.8-1.9-3.1-4.1-3.9-6.6c-1.9-6.1-1.9-12.7,0-18.8c0.8-2.5,2.2-4.7,4-6.6c1-1,2.1-1.9,3.4-2.6c0.8-0.5,1.7-0.9,2.6-1.2
			c2.4-0.8,4.8-1.3,7.3-1.2c2.5,0,5,0.4,7.4,1.2c2.3,0.8,4.3,2.1,6,3.8c1.8,1.9,3.2,4.1,4,6.6c1.9,6.1,1.9,12.7,0,18.8
			c-0.8,2.5-2.2,4.7-4,6.6C1348.4,402.1,1347.1,403.1,1345.7,403.8L1345.7,403.8z"/>
		<path class="st6" d="M1306.6,394c2.1-5.8,2.1-12.1,0-17.8c-1-2.5-2.6-4.8-4.5-6.6c-2-1.8-4.4-3.2-7-4.1c-5.8-1.9-12-1.9-17.8,0
			c-2.6,0.9-5,2.3-7,4.1c-2,1.9-3.5,4.1-4.5,6.6c-2.2,5.8-2.2,12.1,0,17.8c2,5.1,6.3,9,11.5,10.6c2.9,0.9,5.9,1.4,8.9,1.3
			c3,0,6.1-0.4,8.9-1.3C1300.3,403,1304.6,399.1,1306.6,394L1306.6,394z M1300.4,393.4c-0.7,2.1-1.8,4.1-3.2,5.8
			c-1.3,1.5-3,2.7-4.9,3.4c-1.9,0.7-4,1.1-6.1,1.1s-4.1-0.4-6.1-1.1c-1.9-0.7-3.5-1.9-4.9-3.4c-1.5-1.7-2.6-3.7-3.2-5.8
			c-1.5-5.4-1.5-11.2,0-16.7c0.7-2.1,1.8-4.1,3.2-5.8c1.3-1.5,3-2.7,4.9-3.4c1.9-0.7,4-1.1,6.1-1.1s4.1,0.4,6.1,1.1
			c1.9,0.7,3.5,1.9,4.9,3.4c1.5,1.7,2.6,3.7,3.2,5.8C1302,382.2,1302,388,1300.4,393.4L1300.4,393.4z"/>
		<path class="st6" d="M1187.6,369.8l1.6-2.8c1.6-2.7,2.9-4.8,3.7-6c0.5-0.8,0.8-1.3,1.3-1.9l0.1-0.1h-0.1c-1.1,0.3-2.2,0.4-3.3,0.4
			c-1.1,0-2.2-0.1-3.3-0.4h-0.1c-2,3.7-7.6,12.7-10.8,18.1c-1.5,2.5-2.6,4.4-2.8,4.7h-0.1c-0.1-0.3-1.3-2.1-2.8-4.7
			c-3.3-5.4-8.8-14.3-10.8-18.1l-0.1,0.1c-1.1,0.3-2.2,0.4-3.3,0.4c-1.1,0-2.2-0.2-3.3-0.5h-0.1c0.4,0.7,0.8,1.3,1.3,2
			c0.8,1.2,2.1,3.3,3.7,6l1.6,2.8c1,1.8,2.3,3.8,3.2,5.4c1.3,2.3,2.9,5,4.4,7.8l3.3,5.8v2c0,2.7-0.1,5.5-0.2,8.1
			c0,1.1-0.1,3.2-0.1,5.4c0,2.5-0.1,5.3-0.1,6.7c1.1-0.3,2.2-0.5,3.3-0.5c1.1,0,2.3,0.2,3.3,0.5c-0.1-1.4-0.1-4.1-0.2-6.7
			c0-2.2-0.1-4.2-0.1-5.3c-0.1-2.5-0.2-5.4-0.2-8.1v-2c1-1.7,2-3.6,3.2-5.8c1.6-2.7,3.2-5.6,4.4-7.8L1187.6,369.8z"/>
		<path class="st6" d="M1262.1,405.5c-0.1-2.2-0.2-4.8-0.3-7.5c-0.1-2.5-0.2-5.1-0.2-7.7V380c0-2.6,0-5.2,0.2-7.7
			c0-0.9,0.1-1.9,0.1-2.9c0.1-1.6,0.1-3.4,0.2-5c-2.2,0.6-4.5,0.6-6.8,0l0,0l0.1,1c0.1,2.4,0.2,4.8,0.3,7c0.1,2.5,0.2,5,0.2,7.6v3.5
			l0,0l-4.6,0.1h-0.7c-2,0-4,0.1-6.2,0.1s-4.2,0-6.2-0.1h-0.7l-4.5-0.1l0,0V380c0-2.6,0-5.2,0.2-7.6c0.1-2.2,0.2-4.6,0.3-7.1v-0.9
			c-1.1,0.3-2.2,0.5-3.4,0.5c-1.1,0-2.3-0.2-3.4-0.5c0.1,1.6,0.1,3.4,0.2,5c0,1,0.1,1.9,0.1,2.9c0.1,2.5,0.2,5,0.2,7.7v10.2
			c0,2.6,0,5.2-0.2,7.7c-0.1,2.8-0.2,5.2-0.3,7.5c1.1-0.3,2.3-0.4,3.4-0.4s2.3,0.1,3.4,0.5v-0.1c-0.1-2.5-0.2-5-0.3-7.5
			s-0.2-5-0.2-7.7v-3.9l5.2-0.1h12.3l5.2,0.1l0,0v3.9c0,2.6,0,5.2-0.2,7.7s-0.2,5-0.3,7.5v0.1
			C1257.5,404.9,1259.8,404.9,1262.1,405.5L1262.1,405.5z"/>
		<path class="st6" d="M1195.9,393.4L1195.9,393.4l0.9-0.1h12.8l2.3,0.1h0.8c0.9,2.3,1.7,4.3,2.5,6.2c1.2,3,2,5.2,2.3,5.8
			c2.2-0.6,4.5-0.6,6.7,0l-0.6-1.2c-4.4-8.4-13.6-31.4-16.5-38.8l-0.4-0.9l0,0c-1.5,0.6-3.1,0.6-4.6,0.1l-0.2-0.1
			c-0.1,0.2-0.2,0.5-0.3,0.7c-3.2,8.2-4.4,11-5.2,12.9c-3.2,8-8.1,19.4-11.5,26.2c-0.2,0.4-0.5,1-0.6,1.2c1.1-0.3,2.2-0.4,3.4-0.4
			c1.1,0,2.2,0.1,3.2,0.4h0.1c0.2-0.6,1.1-2.8,2.3-5.7C1194.1,397.8,1195,395.7,1195.9,393.4z M1197,390.5
			c4.6-11.5,6.9-17.8,7.3-19.2l0,0c0.4,1.4,2.7,7.7,7.3,19.2l0,0c-1.3,0.1-6,0.2-7.3,0.2S1198.3,390.6,1197,390.5L1197,390.5z"/>
		<path class="st6" d="M1176.7,388.8l-2.9-1.1v20.7c1.2,0.8,2.3,1.6,3.4,2.5l0,0c-0.1-2.5-0.2-9.6-0.3-12.1s-0.2-5.4-0.2-8.1V388.8"
			/>
		<path class="st6" d="M1211.6,390.6L1211.6,390.6c-1.3,0.1-5.9,0.2-7.3,0.2s-6.1-0.1-7.3-0.2l0,0l-3.3,1.5c3.4-0.2,17.7-0.2,21.3,0
			L1211.6,390.6z"/>
		<path class="st6" d="M1193.6,392l2.2,1.4c1,0,2.2-0.1,3.2-0.1h10.4c1,0,2.2,0.1,3.2,0.1l2.3-1.4
			C1211.3,391.8,1197.1,391.9,1193.6,392z"/>
		<path class="st6" d="M1230.1,384.8l2.9,1.5l0,0l5.2-0.1h12.3l5.2,0.1l0,0l3-1.5C1252.5,385,1236.1,384.9,1230.1,384.8z"/>
		<path class="st6" d="M1258.7,384.8l-2.9-1.3l0,0l-5.2,0.1c-2,0-4.1,0.1-6.2,0.1s-4.2,0-6.2-0.1l-5.2-0.1l0,0l-2.9,1.3
			C1236.1,384.9,1252.5,385,1258.7,384.8z"/>
		<path class="st6" d="M1359.8,375.1c-1.2-2.8-3-5.3-5.2-7.4c-2.3-2.1-5.1-3.7-8.1-4.6c-6.7-2.1-13.9-2.1-20.6,0
			c-0.4,0.1-0.8,0.3-1.2,0.4c-2.5,1-4.9,2.4-6.9,4.2c-2.3,2-4.1,4.6-5.2,7.4c-2.5,6.4-2.5,13.5,0,19.9c1.2,2.8,3,5.3,5.3,7.4
			s5.1,3.6,8.1,4.5c6.7,2,13.9,2,20.6,0l0.7-0.2c2.7-0.9,5.2-2.4,7.3-4.3c2.3-2.1,4.1-4.6,5.2-7.4
			C1362.3,388.6,1362.3,381.5,1359.8,375.1L1359.8,375.1z M1356.6,395.1c-1,2.6-2.6,5-4.7,6.9c-1.4,1.2-2.9,2.2-4.5,3
			c-0.8,0.4-1.7,0.7-2.5,1c-5.7,1.7-11.8,1.7-17.5,0c-2.6-0.8-5-2.2-7.1-4c-2.1-1.9-3.7-4.3-4.7-6.9c-2.3-6.4-2.3-13.4,0-19.8
			c1-2.6,2.6-5,4.7-6.9c1.2-1.1,2.6-2,4-2.8c1-0.5,2-0.9,3-1.3c5.7-1.7,11.8-1.7,17.5,0c2.6,0.8,5,2.2,7.1,4
			c2.1,1.9,3.7,4.3,4.7,6.9C1358.9,381.6,1358.9,388.6,1356.6,395.1L1356.6,395.1z"/>
		<path class="st6" d="M1356.6,375.2c-1-2.6-2.6-5-4.7-6.9c-2-1.8-4.5-3.2-7.1-4c-5.7-1.7-11.8-1.7-17.5,0c-1,0.4-2,0.8-3,1.3
			c-1.4,0.7-2.8,1.7-4,2.8c-2.1,1.9-3.7,4.3-4.7,6.9c-2.3,6.4-2.3,13.4-0.1,19.8c1,2.6,2.6,5,4.7,6.9c2,1.8,4.5,3.2,7.1,4
			c5.7,1.7,11.8,1.7,17.5,0c0.9-0.3,1.7-0.6,2.5-1c1.7-0.8,3.2-1.8,4.5-3c2.1-1.9,3.7-4.3,4.7-6.9
			C1358.9,388.7,1358.9,381.7,1356.6,375.2L1356.6,375.2z M1353.5,394.3c-0.8,2.4-2.2,4.7-4,6.5c-1.7,1.7-3.7,3-6,3.8
			c-4.8,1.7-10,1.7-14.8,0c-2.3-0.8-4.3-2.1-6-3.8c-1.8-1.9-3.2-4.1-4-6.5c-1.9-6.1-1.9-12.7,0-18.8c0.8-2.5,2.2-4.7,4-6.5
			c1-1,2.1-1.9,3.4-2.6c0.8-0.5,1.7-0.9,2.6-1.2c4.8-1.7,10-1.7,14.8,0c2.3,0.8,4.3,2.1,6,3.8c1.8,1.9,3.2,4.1,4,6.5
			C1355.3,381.7,1355.3,388.2,1353.5,394.3L1353.5,394.3z"/>
		<path class="st6" d="M1299.8,370c-1.7-1.6-3.8-2.8-6.1-3.6c-4.9-1.6-10.2-1.6-15.1,0c-4.7,1.5-8.4,5.1-10.1,9.8
			c-1.9,5.7-1.9,11.9,0,17.7c1.7,4.6,5.4,8.2,10.1,9.8c4.9,1.6,10.2,1.6,15.1,0c4.7-1.5,8.4-5.1,10.1-9.8c1.9-5.7,1.9-11.9,0-17.7
			C1302.9,373.8,1301.6,371.7,1299.8,370z M1300.3,393.3c-0.7,2.1-1.8,4.1-3.2,5.8c-1.3,1.5-3,2.7-4.9,3.4c-1.9,0.7-4,1.1-6.1,1.1
			s-4.1-0.4-6.1-1.1c-1.9-0.7-3.5-1.9-4.9-3.4c-1.5-1.7-2.6-3.7-3.2-5.8c-1.5-5.4-1.5-11.2,0-16.7c0.7-2.1,1.8-4.1,3.2-5.8
			c1.3-1.5,3-2.7,4.9-3.4c1.9-0.7,4-1.1,6.1-1.1s4.1,0.4,6.1,1.1c1.9,0.7,3.5,1.9,4.9,3.4c1.5,1.7,2.6,3.7,3.2,5.8
			C1301.9,382.1,1301.9,387.9,1300.3,393.3L1300.3,393.3z"/>
		<path class="st6" d="M1306.6,376.1c-1-2.5-2.6-4.8-4.5-6.6c-2-1.8-4.4-3.3-7-4.1c-5.8-1.9-12-1.9-17.8,0c-2.6,0.9-5,2.3-7,4.1
			c-2,1.9-3.5,4.1-4.5,6.6c-2.2,5.8-2.2,12.1,0,17.9c2,5.1,6.3,9,11.5,10.7c5.8,1.8,12,1.8,17.8,0c5.3-1.6,9.5-5.5,11.6-10.6
			C1308.8,388.2,1308.8,381.9,1306.6,376.1L1306.6,376.1z M1303.8,393.9c-1.7,4.6-5.4,8.2-10.1,9.8c-4.9,1.6-10.2,1.6-15.1,0
			c-4.7-1.5-8.4-5.1-10.1-9.8c-1.1-2.8-1.6-5.8-1.5-8.9c-0.1-3,0.3-6,1.3-8.9c1.7-4.6,5.4-8.2,10.1-9.8c4.9-1.6,10.2-1.6,15.1,0
			c4.7,1.5,8.5,5.1,10.2,9.8C1305.7,381.9,1305.7,388.1,1303.8,393.9L1303.8,393.9z"/>
		<path class="st6" d="M1194.2,359c-1,0.9-4.5,1.5-4.5,1.5c-0.8-0.5-1.6-1-2.3-1.5C1189.7,359.6,1192,359.6,1194.2,359L1194.2,359z"
			/>
		<path class="st6" d="M1194.2,359c-0.9,0.8-4.2,1.5-4.5,1.5l-16,27.1l2.9,1.1l3.3-5.8c1.5-2.6,3-5.2,4.5-7.8s3.6-6.1,4.8-8.2
			c1.6-2.8,3-4.9,3.7-6C1193.4,360.2,1193.8,359.7,1194.2,359z"/>
		<path class="st6" d="M1173.8,408.4L1173.8,408.4v-20.7l-2.9,1.1v2c0,2.6,0,5.5-0.2,8.1s-0.2,9.6-0.3,12.1l0,0
			C1171.5,410,1172.6,409.2,1173.8,408.4z"/>
		<path class="st6" d="M1177.1,410.9c-1.1-0.9-2.2-1.7-3.4-2.5c-1.2,0.8-2.3,1.6-3.3,2.5C1172.6,410.3,1174.9,410.3,1177.1,410.9
			L1177.1,410.9z"/>
		<path class="st6" d="M1206.7,364.4L1206.7,364.4c-1.5,0.6-3.1,0.6-4.5,0l-0.2-0.1l2.4,1.5L1206.7,364.4z"/>
		<path class="st6" d="M1215,392l-3.4-1.5c-3.3-8.3-6.9-17.4-7.3-19.2v-5.4L1215,392z M1219.5,403.6L1219.5,403.6L1219.5,403.6
			L1215,392l-2.3,1.4c2.4,6,4.4,11,4.8,12l0,0C1218.2,404.9,1218.9,404.3,1219.5,403.6L1219.5,403.6z"/>
		<path class="st6" d="M1204.3,365.9v5.4c-0.4,1.8-4,10.9-7.3,19.2l-3.3,1.5L1204.3,365.9z M1191.1,405.5c0.4-1,2.4-6.1,4.8-12
			l-2.2-1.4l-4.6,11.4l0,0C1189.6,404.2,1190.3,404.9,1191.1,405.5L1191.1,405.5z"/>
		<path class="st6" d="M1223.6,404.2c-4.4-8.5-13.8-32-16.6-38.9l-0.4-1l-2.4,1.5l15.3,37.5c0.1,0,3.7,1.6,4.6,2l0,0L1223.6,404.2z"
			/>
		<path class="st6" d="M1224.2,405.5c-0.9-0.4-4.6-2-4.6-2c-0.6,0.8-1.4,1.4-2.2,2C1219.7,404.9,1222,404.9,1224.2,405.5
			L1224.2,405.5z"/>
		<path class="st6" d="M1189,403.4L1189,403.4l15.3-37.5l-2.4-1.5l0,0l-0.4,1c-2.7,6.9-12.1,30.3-16.6,38.9l-0.6,1.2
			C1185.2,405,1189,403.4,1189,403.4z"/>
		<path class="st6" d="M1184.3,405.5c0.9-0.4,4.6-2,4.6-2c0.6,0.8,1.3,1.4,2.1,2C1188.9,404.9,1186.6,404.9,1184.3,405.5z"/>
		<path class="st6" d="M1255.3,405.5c0.1-2.5,0.2-5.1,0.3-7.6s0.2-5,0.2-7.7v-3.8l3-1.5v18.6L1255.3,405.5z M1255.3,364.5
			L1255.3,364.5c0.1,2.7,0.3,5.5,0.3,7.9s0.2,5,0.2,7.6v3.5l2.9,1.3v-18.5L1255.3,364.5z"/>
		<path class="st6" d="M1258.7,364.9c1.1,0,2.3-0.2,3.4-0.5l-3.3,1.9l-3.4-1.9C1256.4,364.7,1257.5,364.9,1258.7,364.9z"/>
		<path class="st6" d="M1230.1,364.9c-1.2,0-2.3-0.1-3.4-0.5l3.4,1.9l3.4-2C1232.4,364.7,1231.2,364.9,1230.1,364.9z"/>
		<path class="st6" d="M1227.1,380v10.2c0,2.6-0.1,5.2-0.2,7.7s-0.2,5-0.3,7.5l3.4-2l0,0v-37.1l-3.4-1.9c0.1,2.6,0.2,5.4,0.3,7.9
			S1227.1,377.4,1227.1,380z"/>
		<path class="st6" d="M1233.5,364.4c-0.1,2.7-0.3,5.5-0.4,8s-0.1,5-0.1,7.6v3.5l-2.9,1.3v-18.5L1233.5,364.4z M1233.5,405.4
			c-0.1-2.5-0.2-5.1-0.3-7.6s-0.1-5-0.1-7.7v-3.8l-3-1.5v18.7l0,0L1233.5,405.4z"/>
		<path class="st6" d="M1230.1,405c-1.2,0-2.3,0.1-3.4,0.5l3.4-1.9l3.4,2C1232.4,405.2,1231.2,405,1230.1,405z"/>
		<path class="st6" d="M1258.7,405c1.1,0,2.3,0.1,3.4,0.5l-3.4-1.9l-3.4,2C1256.4,405.2,1257.6,405,1258.7,405z"/>
		<path class="st6" d="M1262.1,405.5c-0.1-2.4-0.2-5-0.3-7.5s-0.2-5-0.2-7.7V380c0-2.6,0.1-5.2,0.2-7.7s0.2-5.3,0.3-7.9l-3.3,1.9
			l0,0v37.1l0,0L1262.1,405.5z"/>
		<path class="st6" d="M1157.8,360.5c0,0-3.4-0.7-4.5-1.5c0.4,0.7,0.8,1.2,1.3,2c0.7,1,2,3.2,3.7,6c1.3,2.2,3.4,5.7,4.8,8.2
			s3,5.2,4.4,7.8c1.8,3.2,2.9,5.2,3.3,5.8l2.9-1.1L1157.8,360.5z"/>
		<path class="st6" d="M1153.3,359c1,0.9,4.5,1.5,4.5,1.5c0.8-0.5,1.6-1,2.3-1.5c-1.1,0.3-2.3,0.5-3.4,0.5
			C1155.5,359.5,1154.4,359.3,1153.3,359z"/>
		<path class="st6" d="M1368.7,399.8l-1-1.8l-1.5,1.4c0.4-0.1,0.8-0.1,1.3,0l0,0C1367.9,399.5,1368.3,399.6,1368.7,399.8
			L1368.7,399.8z"/>
		<path class="st6" d="M1376.6,362c-0.2-0.8-0.7-1.5-1.5-1.9c-0.4-0.2-0.8-0.3-1.2-0.4l-6.3,38.3l1,1.8c0.4-2,1.5-9.1,4.1-20
			c0.7-3,3.7-16,3.7-16.1s0-0.2,0.1-0.4C1376.7,362.9,1376.7,362.5,1376.6,362z"/>
		<path class="st6" d="M1367.7,398L1367.7,398l6.3-38.3h-0.2c-0.5-0.1-0.9-0.1-1.4,0c-0.4,0.1-0.8,0.2-1.2,0.5
			c-0.3,0.2-0.6,0.5-0.8,0.9c-0.2,0.4-0.4,0.8-0.4,1.3v0.2c0,0.1-0.1,0.5-0.1,0.5c-0.4,5-1.1,12.9-1.4,16c-1,11.2-2.2,18.3-2.3,20.3
			l0,0L1367.7,398z"/>
		<path class="st6" d="M1373.1,359.6c-0.2,0-0.5,0-0.7,0.1c-0.4,0.1-0.8,0.2-1.2,0.5c-0.3,0.2-0.6,0.6-0.8,0.9
			c-0.2,0.4-0.4,0.8-0.4,1.3c-0.1,0.5-0.1,0.9,0,1.4c0.2,0.8,0.7,1.5,1.5,1.8c0.4,0.2,0.9,0.4,1.3,0.4c0.3,0,0.5,0.1,0.8,0.1
			c0.2,0,0.4,0,0.6,0c0.8-0.1,1.6-0.6,2-1.3c0.2-0.4,0.4-0.8,0.4-1.3c0.1-0.5,0.1-0.9,0-1.4c-0.1-0.4-0.3-0.8-0.5-1.1
			c-0.3-0.3-0.6-0.6-1-0.8c-0.4-0.2-0.9-0.4-1.3-0.4C1373.6,359.6,1373.3,359.6,1373.1,359.6z"/>
		<path class="st6" d="M1375.9,362.4c-0.3,0.8-1.6,1.1-2.9,0.8s-2-1.3-1.7-2.1s1.6-1.1,2.9-0.8S1376.2,361.6,1375.9,362.4z"/>
		<path class="st6" d="M1366,404.5c-0.2,0-0.5,0-0.7,0.1c-0.4,0.1-0.8,0.2-1.2,0.5c-0.3,0.2-0.6,0.5-0.8,0.9
			c-0.2,0.4-0.4,0.8-0.5,1.3s-0.1,0.9,0,1.4c0.2,0.8,0.8,1.5,1.5,1.9c0.4,0.2,0.9,0.4,1.3,0.4c0.3,0,0.5,0.1,0.8,0.1h0.6
			c0.8-0.1,1.6-0.6,2-1.4c0.5-0.8,0.6-1.8,0.4-2.7c-0.1-0.4-0.3-0.8-0.5-1.1c-0.3-0.3-0.6-0.6-1-0.8c-0.4-0.2-0.9-0.4-1.3-0.4
			C1366.5,404.5,1366.2,404.5,1366,404.5z"/>
		<path class="st6" d="M1368.8,407.3c-0.3,0.8-1.6,1.1-2.9,0.8s-2-1.3-1.7-2.1s1.6-1.1,2.9-0.8S1369.1,406.5,1368.8,407.3z"/>
		<path class="st6" d="M1187.4,359c-3,5.4-13.1,21.9-13.7,22.8v5.8l16-27.1C1188.9,360.1,1188.2,359.6,1187.4,359z"/>
		<path class="st6" d="M1160.1,359c3,5.4,13.1,21.9,13.7,22.8v5.8l-16-27.1C1158.6,360.1,1159.4,359.6,1160.1,359z"/>
		<path class="st6" d="M1219.8,423.5c0-2.5,0-4.2-0.2-6.1c1.3,0,2.6,0.1,3.9,0.1c1.5,0,3.1,0,4.6-0.1c-0.1,0.3-0.1,0.6-0.1,0.9
			s0,0.7,0.1,1c-1.7-0.1-4.3-0.3-5-0.3c-0.1,1.6-0.1,3.2-0.1,4.8c1.9,0,3.3-0.1,5-0.2c-0.1,0.3-0.1,0.7-0.1,1s0.1,0.6,0.1,0.9
			c-1.7-0.1-3.3-0.2-5-0.2v1.1c0,2.5,0,4.2,0.2,6.1c-0.5,0-1.1-0.1-1.8-0.1c-0.6,0-1.2,0-1.8,0.1c0.1-2,0.2-3.6,0.2-6.1
			L1219.8,423.5z"/>
		<path class="st6" d="M1231.1,423.5c0-2.5,0-4.2-0.2-6.1c0.5,0,1.1,0.1,1.8,0.1s1.3-0.1,1.8-0.1c-0.1,2-0.2,3.6-0.2,6.1v3
			c0,2,0,4.1,0.2,6.1c-0.5,0-1.1-0.1-1.8-0.1s-1.3,0.1-1.8,0.1c0.2-2,0.2-3.7,0.2-6.2V423.5z"/>
		<path class="st6" d="M1238.5,417.4c0.7,0.1,1.3,0.1,2,0c3.2,3.5,6.3,7,9.6,10.5c0-3.5,0-9.5-0.2-10.5c0.7,0.1,1.3,0.1,2,0
			c-0.3,6.4-0.3,9.4-0.3,15.3c-0.3-0.1-0.6-0.1-0.9-0.1s-0.6,0-0.9,0.1c-3.1-3.6-6.3-7.2-9.7-10.7v5.1c0,3.5,0.1,4.8,0.1,5.6
			c-0.3-0.1-0.7-0.1-1-0.1s-0.7,0-1,0.1c0.1-0.6,0.4-6.3,0.4-10.9C1238.6,419.8,1238.5,418.5,1238.5,417.4z"/>
		<path class="st6" d="M1267.7,432.7c-0.7,0-1.3-0.1-2-0.1s-1.3,0.1-1.9,0.1c-0.5-1.5-1-3-1.5-4.5h-5.1c-0.6,1.5-1.1,3-1.5,4.5
			c-0.3,0-0.7-0.1-1-0.1s-0.7,0.1-1.1,0.1c1.1-2.5,4.4-10.3,6.3-15.4c0.5,0.2,1.1,0.2,1.7,0C1263.4,422.3,1266,429.1,1267.7,432.7z
			 M1261.8,426.8c-0.6-1.8-1.3-3.5-2-5.3c-0.8,1.7-1.4,3.5-2.1,5.3H1261.8z"/>
		<path class="st6" d="M1270,417.4c0.7,0.1,1.3,0.1,2,0c3.2,3.5,6.3,7,9.6,10.5c0-3.5,0-9.5-0.2-10.5c0.7,0.1,1.3,0.1,2,0
			c-0.3,6.4-0.3,9.4-0.3,15.3c-0.3-0.1-0.6-0.1-0.9-0.1s-0.6,0-0.9,0.1c-3-3.6-6.3-7.2-9.7-10.7v5.1c0,3.5,0.1,4.8,0.1,5.6
			c-0.7-0.1-1.3-0.1-2,0c0.1-0.6,0.4-6.3,0.4-10.9C1270.1,419.8,1270,418.5,1270,417.4z"/>
		<path class="st6" d="M1299.1,430.1c-0.2,0.6-0.4,1.2-0.5,1.9c-1.4,0.7-3,1-4.5,1c-5.1,0-8.2-3.2-8.2-7.4c0-6.1,4.1-8.4,8.8-8.4
			c1.6,0,3.1,0.4,4.5,1.1c-0.3,0.7-0.4,1.5-0.5,2.2h-0.3c-0.9-1.3-2.3-2-3.8-2c-2.4,0-5,2-5,6.8s2.7,6.3,5.2,6.3
			c1.5,0,2.9-0.6,4-1.6L1299.1,430.1z"/>
		<path class="st6" d="M1301.7,423.5c0-2,0-4.1-0.2-6.1c1.3,0,2.6,0.1,3.9,0.1c1.5,0,3.1,0,4.6-0.1c-0.1,0.3-0.1,0.6-0.1,0.9
			s0,0.7,0.1,1c-1.7-0.1-4.3-0.3-5-0.3c-0.1,1.6-0.1,3.2-0.1,4.8c1.9,0,3.3-0.1,5-0.2c-0.1,0.3-0.1,0.7-0.1,1s0,0.6,0.1,0.9
			c-1.7-0.1-3.3-0.2-5-0.2v2.8c0,1,0,1.9,0.1,2.8c1.7,0,3.3-0.1,5-0.3c-0.1,0.3-0.1,0.7-0.1,1s0,0.6,0.1,0.9c-0.8,0-1.8-0.1-3.9-0.1
			c-3.6,0-4.2,0.1-4.7,0.1c0.1-1.9,0.2-3.6,0.2-6.1L1301.7,423.5z"/>
	</g>
</g>
</svg>
